G04 #@! TF.GenerationSoftware,KiCad,Pcbnew,(6.0.5)*
G04 #@! TF.CreationDate,2022-12-14T22:57:53+01:00*
G04 #@! TF.ProjectId,MDCC_512k,4d444343-5f35-4313-926b-2e6b69636164,C*
G04 #@! TF.SameCoordinates,Original*
G04 #@! TF.FileFunction,Soldermask,Bot*
G04 #@! TF.FilePolarity,Negative*
%FSLAX46Y46*%
G04 Gerber Fmt 4.6, Leading zero omitted, Abs format (unit mm)*
G04 Created by KiCad (PCBNEW (6.0.5)) date 2022-12-14 22:57:53*
%MOMM*%
%LPD*%
G01*
G04 APERTURE LIST*
G04 Aperture macros list*
%AMRoundRect*
0 Rectangle with rounded corners*
0 $1 Rounding radius*
0 $2 $3 $4 $5 $6 $7 $8 $9 X,Y pos of 4 corners*
0 Add a 4 corners polygon primitive as box body*
4,1,4,$2,$3,$4,$5,$6,$7,$8,$9,$2,$3,0*
0 Add four circle primitives for the rounded corners*
1,1,$1+$1,$2,$3*
1,1,$1+$1,$4,$5*
1,1,$1+$1,$6,$7*
1,1,$1+$1,$8,$9*
0 Add four rect primitives between the rounded corners*
20,1,$1+$1,$2,$3,$4,$5,0*
20,1,$1+$1,$4,$5,$6,$7,0*
20,1,$1+$1,$6,$7,$8,$9,0*
20,1,$1+$1,$8,$9,$2,$3,0*%
%AMFreePoly0*
4,1,17,0.435971,0.836021,0.836021,0.435971,0.850900,0.400050,0.850900,-0.400050,0.836021,-0.435971,0.435971,-0.836021,0.400050,-0.850900,-0.400050,-0.850900,-0.435971,-0.836021,-0.836021,-0.435971,-0.850900,-0.400050,-0.850900,0.400050,-0.836021,0.435971,-0.435971,0.836021,-0.400050,0.850900,0.400050,0.850900,0.435971,0.836021,0.435971,0.836021,$1*%
%AMFreePoly1*
4,1,17,0.416921,0.797921,0.797921,0.416921,0.812800,0.381000,0.812800,-0.381000,0.797921,-0.416921,0.416921,-0.797921,0.381000,-0.812800,-0.381000,-0.812800,-0.416921,-0.797921,-0.797921,-0.416921,-0.812800,-0.381000,-0.812800,0.381000,-0.797921,0.416921,-0.416921,0.797921,-0.381000,0.812800,0.381000,0.812800,0.416921,0.797921,0.416921,0.797921,$1*%
G04 Aperture macros list end*
%ADD10O,1.422400X2.743200*%
%ADD11C,5.000000*%
%ADD12RoundRect,0.431800X-0.381000X-2.794000X0.381000X-2.794000X0.381000X2.794000X-0.381000X2.794000X0*%
%ADD13R,1.600000X1.600000*%
%ADD14O,1.600000X1.600000*%
%ADD15O,2.743200X1.422400*%
%ADD16C,1.600000*%
%ADD17FreePoly0,0.000000*%
%ADD18FreePoly1,270.000000*%
%ADD19RoundRect,0.050800X-0.317500X-0.635000X0.317500X-0.635000X0.317500X0.635000X-0.317500X0.635000X0*%
%ADD20RoundRect,0.050800X-1.270000X-2.540000X1.270000X-2.540000X1.270000X2.540000X-1.270000X2.540000X0*%
G04 APERTURE END LIST*
D10*
X135801100Y-112993600D03*
X138341100Y-112993600D03*
X140881100Y-112993600D03*
X143421100Y-112993600D03*
X145961100Y-112993600D03*
X148501100Y-112993600D03*
X151041100Y-112993600D03*
X153581100Y-112993600D03*
X156121100Y-112993600D03*
X158661100Y-112993600D03*
X161201100Y-112993600D03*
X163741100Y-112993600D03*
X166281100Y-112993600D03*
X168821100Y-112993600D03*
X171361100Y-112993600D03*
X173901100Y-112993600D03*
X173901100Y-97753600D03*
X171361100Y-97753600D03*
X168821100Y-97753600D03*
X166281100Y-97753600D03*
X163741100Y-97753600D03*
X161201100Y-97753600D03*
X158661100Y-97753600D03*
X156121100Y-97753600D03*
X153581100Y-97753600D03*
X151041100Y-97753600D03*
X148501100Y-97753600D03*
X145961100Y-97753600D03*
X143421100Y-97753600D03*
X140881100Y-97753600D03*
X138341100Y-97753600D03*
X135801100Y-97753600D03*
D11*
X148501100Y-86003600D03*
D12*
X121841100Y-125828600D03*
X124381100Y-125828600D03*
X126921100Y-125828600D03*
X129461100Y-125828600D03*
X132001100Y-125828600D03*
X134541100Y-125828600D03*
X137081100Y-125828600D03*
X139621100Y-125828600D03*
X142161100Y-125828600D03*
X144701100Y-125828600D03*
X147241100Y-125828600D03*
X149781100Y-125828600D03*
X152321100Y-125828600D03*
X154861100Y-125828600D03*
X157401100Y-125828600D03*
X159941100Y-125828600D03*
X162481100Y-125828600D03*
X165021100Y-125828600D03*
X167561100Y-125828600D03*
X170101100Y-125828600D03*
X172641100Y-125828600D03*
X175181100Y-125828600D03*
D13*
X123190000Y-114935000D03*
D14*
X130810000Y-114935000D03*
D13*
X123190000Y-112020000D03*
D14*
X130810000Y-112020000D03*
D15*
X123101100Y-93345000D03*
X123101100Y-95885000D03*
X123101100Y-98425000D03*
X123101100Y-100965000D03*
X123101100Y-103505000D03*
X123101100Y-106045000D03*
X123101100Y-108585000D03*
X130721100Y-108585000D03*
X130721100Y-106045000D03*
X130721100Y-103505000D03*
X130721100Y-100965000D03*
X130721100Y-98425000D03*
X130721100Y-95885000D03*
X130721100Y-93345000D03*
D16*
X133350000Y-85090000D03*
D14*
X143510000Y-85090000D03*
D17*
X161201100Y-95213600D03*
D10*
X154851100Y-90768600D03*
X157391100Y-90768600D03*
X159931100Y-90768600D03*
X162471100Y-90768600D03*
X165011100Y-90768600D03*
X167551100Y-90768600D03*
X170091100Y-90768600D03*
X172631100Y-90768600D03*
X175171100Y-90768600D03*
X177711100Y-90768600D03*
X177711100Y-83148600D03*
X175171100Y-83148600D03*
X172631100Y-83148600D03*
X170091100Y-83148600D03*
X167551100Y-83148600D03*
X165011100Y-83148600D03*
X162471100Y-83148600D03*
X159931100Y-83148600D03*
X157391100Y-83148600D03*
X154851100Y-83148600D03*
D18*
X129161100Y-81803600D03*
X129161100Y-88303600D03*
X124661100Y-81803600D03*
X124661100Y-88303600D03*
D19*
X137452100Y-94578600D03*
X138341100Y-94578600D03*
X139230100Y-94578600D03*
X137452100Y-90768600D03*
X138341100Y-90768600D03*
X139230100Y-90768600D03*
D20*
X126911100Y-85053600D03*
D19*
X137452100Y-83148600D03*
X138341100Y-83148600D03*
X139230100Y-83148600D03*
X137452100Y-86958600D03*
X138341100Y-86958600D03*
X139230100Y-86958600D03*
M02*
