G04 #@! TF.GenerationSoftware,KiCad,Pcbnew,(6.0.5)*
G04 #@! TF.CreationDate,2022-12-14T22:57:53+01:00*
G04 #@! TF.ProjectId,MDCC_512k,4d444343-5f35-4313-926b-2e6b69636164,C*
G04 #@! TF.SameCoordinates,Original*
G04 #@! TF.FileFunction,Copper,L2,Bot*
G04 #@! TF.FilePolarity,Positive*
%FSLAX46Y46*%
G04 Gerber Fmt 4.6, Leading zero omitted, Abs format (unit mm)*
G04 Created by KiCad (PCBNEW (6.0.5)) date 2022-12-14 22:57:53*
%MOMM*%
%LPD*%
G01*
G04 APERTURE LIST*
G04 Aperture macros list*
%AMRoundRect*
0 Rectangle with rounded corners*
0 $1 Rounding radius*
0 $2 $3 $4 $5 $6 $7 $8 $9 X,Y pos of 4 corners*
0 Add a 4 corners polygon primitive as box body*
4,1,4,$2,$3,$4,$5,$6,$7,$8,$9,$2,$3,0*
0 Add four circle primitives for the rounded corners*
1,1,$1+$1,$2,$3*
1,1,$1+$1,$4,$5*
1,1,$1+$1,$6,$7*
1,1,$1+$1,$8,$9*
0 Add four rect primitives between the rounded corners*
20,1,$1+$1,$2,$3,$4,$5,0*
20,1,$1+$1,$4,$5,$6,$7,0*
20,1,$1+$1,$6,$7,$8,$9,0*
20,1,$1+$1,$8,$9,$2,$3,0*%
%AMOutline5P*
0 Free polygon, 5 corners , with rotation*
0 The origin of the aperture is its center*
0 number of corners: always 5*
0 $1 to $10 corner X, Y*
0 $11 Rotation angle, in degrees counterclockwise*
0 create outline with 5 corners*
4,1,5,$1,$2,$3,$4,$5,$6,$7,$8,$9,$10,$1,$2,$11*%
%AMOutline6P*
0 Free polygon, 6 corners , with rotation*
0 The origin of the aperture is its center*
0 number of corners: always 6*
0 $1 to $12 corner X, Y*
0 $13 Rotation angle, in degrees counterclockwise*
0 create outline with 6 corners*
4,1,6,$1,$2,$3,$4,$5,$6,$7,$8,$9,$10,$11,$12,$1,$2,$13*%
%AMOutline7P*
0 Free polygon, 7 corners , with rotation*
0 The origin of the aperture is its center*
0 number of corners: always 7*
0 $1 to $14 corner X, Y*
0 $15 Rotation angle, in degrees counterclockwise*
0 create outline with 7 corners*
4,1,7,$1,$2,$3,$4,$5,$6,$7,$8,$9,$10,$11,$12,$13,$14,$1,$2,$15*%
%AMOutline8P*
0 Free polygon, 8 corners , with rotation*
0 The origin of the aperture is its center*
0 number of corners: always 8*
0 $1 to $16 corner X, Y*
0 $17 Rotation angle, in degrees counterclockwise*
0 create outline with 8 corners*
4,1,8,$1,$2,$3,$4,$5,$6,$7,$8,$9,$10,$11,$12,$13,$14,$15,$16,$1,$2,$17*%
G04 Aperture macros list end*
G04 #@! TA.AperFunction,ComponentPad*
%ADD10O,1.320800X2.641600*%
G04 #@! TD*
G04 #@! TA.AperFunction,SMDPad,CuDef*
%ADD11RoundRect,0.381000X-0.381000X-2.794000X0.381000X-2.794000X0.381000X2.794000X-0.381000X2.794000X0*%
G04 #@! TD*
G04 #@! TA.AperFunction,ComponentPad*
%ADD12R,1.600000X1.600000*%
G04 #@! TD*
G04 #@! TA.AperFunction,ComponentPad*
%ADD13O,1.600000X1.600000*%
G04 #@! TD*
G04 #@! TA.AperFunction,ComponentPad*
%ADD14O,2.641600X1.320800*%
G04 #@! TD*
G04 #@! TA.AperFunction,ComponentPad*
%ADD15C,1.600000*%
G04 #@! TD*
G04 #@! TA.AperFunction,ComponentPad*
%ADD16Outline8P,-0.800100X0.400050X-0.400050X0.800100X0.400050X0.800100X0.800100X0.400050X0.800100X-0.400050X0.400050X-0.800100X-0.400050X-0.800100X-0.800100X-0.400050X0.000000*%
G04 #@! TD*
G04 #@! TA.AperFunction,ComponentPad*
%ADD17Outline8P,-0.762000X0.381000X-0.381000X0.762000X0.381000X0.762000X0.762000X0.381000X0.762000X-0.381000X0.381000X-0.762000X-0.381000X-0.762000X-0.762000X-0.381000X270.000000*%
G04 #@! TD*
G04 #@! TA.AperFunction,SMDPad,CuDef*
%ADD18R,0.635000X1.270000*%
G04 #@! TD*
G04 #@! TA.AperFunction,SMDPad,CuDef*
%ADD19R,2.540000X5.080000*%
G04 #@! TD*
G04 #@! TA.AperFunction,ViaPad*
%ADD20C,0.800000*%
G04 #@! TD*
G04 #@! TA.AperFunction,Conductor*
%ADD21C,0.250000*%
G04 #@! TD*
G04 APERTURE END LIST*
D10*
X135801100Y-112993600D03*
X138341100Y-112993600D03*
X140881100Y-112993600D03*
X143421100Y-112993600D03*
X145961100Y-112993600D03*
X148501100Y-112993600D03*
X151041100Y-112993600D03*
X153581100Y-112993600D03*
X156121100Y-112993600D03*
X158661100Y-112993600D03*
X161201100Y-112993600D03*
X163741100Y-112993600D03*
X166281100Y-112993600D03*
X168821100Y-112993600D03*
X171361100Y-112993600D03*
X173901100Y-112993600D03*
X173901100Y-97753600D03*
X171361100Y-97753600D03*
X168821100Y-97753600D03*
X166281100Y-97753600D03*
X163741100Y-97753600D03*
X161201100Y-97753600D03*
X158661100Y-97753600D03*
X156121100Y-97753600D03*
X153581100Y-97753600D03*
X151041100Y-97753600D03*
X148501100Y-97753600D03*
X145961100Y-97753600D03*
X143421100Y-97753600D03*
X140881100Y-97753600D03*
X138341100Y-97753600D03*
X135801100Y-97753600D03*
D11*
X121841100Y-125828600D03*
X124381100Y-125828600D03*
X126921100Y-125828600D03*
X129461100Y-125828600D03*
X132001100Y-125828600D03*
X134541100Y-125828600D03*
X137081100Y-125828600D03*
X139621100Y-125828600D03*
X142161100Y-125828600D03*
X144701100Y-125828600D03*
X147241100Y-125828600D03*
X149781100Y-125828600D03*
X152321100Y-125828600D03*
X154861100Y-125828600D03*
X157401100Y-125828600D03*
X159941100Y-125828600D03*
X162481100Y-125828600D03*
X165021100Y-125828600D03*
X167561100Y-125828600D03*
X170101100Y-125828600D03*
X172641100Y-125828600D03*
X175181100Y-125828600D03*
D12*
X123190000Y-114935000D03*
D13*
X130810000Y-114935000D03*
D12*
X123190000Y-112020000D03*
D13*
X130810000Y-112020000D03*
D14*
X123101100Y-93345000D03*
X123101100Y-95885000D03*
X123101100Y-98425000D03*
X123101100Y-100965000D03*
X123101100Y-103505000D03*
X123101100Y-106045000D03*
X123101100Y-108585000D03*
X130721100Y-108585000D03*
X130721100Y-106045000D03*
X130721100Y-103505000D03*
X130721100Y-100965000D03*
X130721100Y-98425000D03*
X130721100Y-95885000D03*
X130721100Y-93345000D03*
D15*
X133350000Y-85090000D03*
D13*
X143510000Y-85090000D03*
D16*
X161201100Y-95213600D03*
D10*
X154851100Y-90768600D03*
X157391100Y-90768600D03*
X159931100Y-90768600D03*
X162471100Y-90768600D03*
X165011100Y-90768600D03*
X167551100Y-90768600D03*
X170091100Y-90768600D03*
X172631100Y-90768600D03*
X175171100Y-90768600D03*
X177711100Y-90768600D03*
X177711100Y-83148600D03*
X175171100Y-83148600D03*
X172631100Y-83148600D03*
X170091100Y-83148600D03*
X167551100Y-83148600D03*
X165011100Y-83148600D03*
X162471100Y-83148600D03*
X159931100Y-83148600D03*
X157391100Y-83148600D03*
X154851100Y-83148600D03*
D17*
X129161100Y-81803600D03*
X129161100Y-88303600D03*
X124661100Y-81803600D03*
X124661100Y-88303600D03*
D18*
X137452100Y-94578600D03*
X138341100Y-94578600D03*
X139230100Y-94578600D03*
X137452100Y-90768600D03*
X138341100Y-90768600D03*
X139230100Y-90768600D03*
D19*
X126911100Y-85053600D03*
D18*
X137452100Y-83148600D03*
X138341100Y-83148600D03*
X139230100Y-83148600D03*
X137452100Y-86958600D03*
X138341100Y-86958600D03*
X139230100Y-86958600D03*
D20*
X151019000Y-120015000D03*
X149611500Y-119336900D03*
X138558700Y-93314900D03*
D21*
X126911100Y-83861200D02*
X126718700Y-83861200D01*
X126718700Y-83861200D02*
X124661100Y-81803600D01*
X124699700Y-88265000D02*
X124661100Y-88303600D01*
X126911100Y-88265000D02*
X124699700Y-88265000D01*
X126911100Y-85053600D02*
X126911100Y-88265000D01*
X128139900Y-85090000D02*
X126911100Y-83861200D01*
X130810000Y-85090000D02*
X128139900Y-85090000D01*
X176722200Y-86802800D02*
X179070000Y-84455000D01*
X134881920Y-81018080D02*
X130810000Y-85090000D01*
X179070000Y-84455000D02*
X179070000Y-81915000D01*
X176722200Y-88130400D02*
X176722200Y-86802800D01*
X177711100Y-89119300D02*
X176722200Y-88130400D01*
X178173080Y-81018080D02*
X134881920Y-81018080D01*
X177711100Y-90768600D02*
X177711100Y-89119300D01*
X179070000Y-81915000D02*
X178173080Y-81018080D01*
X121451800Y-125439300D02*
X121841100Y-125828600D01*
X175181100Y-119936100D02*
X175181100Y-125828600D01*
X173901100Y-112993600D02*
X173901100Y-118656100D01*
X173901100Y-118656100D02*
X175181100Y-119936100D01*
X126911100Y-85053600D02*
X126911100Y-83861200D01*
X121451800Y-108585000D02*
X121451800Y-125439300D01*
X177711100Y-99385100D02*
X177711100Y-90768600D01*
X123101100Y-108585000D02*
X121451800Y-108585000D01*
X173901100Y-112993600D02*
X173901100Y-103195100D01*
X173901100Y-103195100D02*
X177711100Y-99385100D01*
X137452100Y-85090000D02*
X133350000Y-85090000D01*
X136806100Y-95099300D02*
X136806100Y-94578600D01*
X133350000Y-92365400D02*
X132370400Y-93345000D01*
X137452100Y-91732100D02*
X137452100Y-93615100D01*
X137452100Y-90768600D02*
X137452100Y-91732100D01*
X135801100Y-97753600D02*
X135801100Y-96104300D01*
X135801100Y-96104300D02*
X136806100Y-95099300D01*
X137452100Y-85090000D02*
X137452100Y-83148600D01*
X130721100Y-93345000D02*
X132370400Y-93345000D01*
X137452100Y-94096800D02*
X137452100Y-93615100D01*
X137452100Y-94578600D02*
X136806100Y-94578600D01*
X133350000Y-85090000D02*
X133350000Y-92365400D01*
X137452100Y-94096800D02*
X137452100Y-94578600D01*
X137452100Y-86958600D02*
X137452100Y-85090000D01*
X143510000Y-85090000D02*
X144638500Y-85090000D01*
X144691100Y-99513900D02*
X137187000Y-107018000D01*
X130810000Y-114651300D02*
X130810000Y-114935000D01*
X156121100Y-97753600D02*
X156121100Y-96104300D01*
X136202500Y-114651300D02*
X130810000Y-114651300D01*
X144638500Y-94224100D02*
X145998700Y-95584300D01*
X144638500Y-85090000D02*
X144638500Y-94224100D01*
X145998700Y-95584300D02*
X144691100Y-96891900D01*
X156121100Y-96104300D02*
X155601100Y-95584300D01*
X130810000Y-112020000D02*
X130810000Y-114651300D01*
X144691100Y-96891900D02*
X144691100Y-99513900D01*
X137187000Y-113666800D02*
X136202500Y-114651300D01*
X137187000Y-107018000D02*
X137187000Y-113666800D01*
X155601100Y-95584300D02*
X145998700Y-95584300D01*
X124381100Y-117254600D02*
X124381100Y-125828600D01*
X123190000Y-116063500D02*
X124381100Y-117254600D01*
X123190000Y-114935000D02*
X123190000Y-116063500D01*
X130721100Y-95885000D02*
X123101100Y-95885000D01*
X130721100Y-100965000D02*
X123101100Y-100965000D01*
X130721100Y-108585000D02*
X132370400Y-108585000D01*
X130721100Y-106045000D02*
X132370400Y-106045000D01*
X132370400Y-106045000D02*
X132370400Y-108585000D01*
X125391800Y-106686400D02*
X124750400Y-106045000D01*
X132001100Y-120015000D02*
X125391800Y-113405700D01*
X132001100Y-125828600D02*
X132001100Y-120015000D01*
X125391800Y-113405700D02*
X125391800Y-106686400D01*
X124750400Y-106045000D02*
X124750400Y-103505000D01*
X123101100Y-103505000D02*
X124750400Y-103505000D01*
X124637000Y-106045000D02*
X124750400Y-106045000D01*
X123101100Y-106045000D02*
X124637000Y-106045000D01*
X139876200Y-93267200D02*
X139876200Y-95539000D01*
X138341100Y-90768600D02*
X138341100Y-91732100D01*
X138341100Y-91732100D02*
X139876200Y-93267200D01*
X139876200Y-95539000D02*
X138341100Y-97074100D01*
X138341100Y-97074100D02*
X138341100Y-97753600D01*
X138341100Y-83148600D02*
X138341100Y-84112100D01*
X138341100Y-84112100D02*
X140881100Y-86652100D01*
X140881100Y-86652100D02*
X140881100Y-97753600D01*
X145961100Y-97753600D02*
X145961100Y-99402900D01*
X139621100Y-125828600D02*
X139621100Y-105742900D01*
X139621100Y-105742900D02*
X145961100Y-99402900D01*
X151765000Y-120015000D02*
X152321100Y-120571100D01*
X152321100Y-120571100D02*
X152321100Y-125828600D01*
X151019000Y-120015000D02*
X151765000Y-120015000D01*
X149781100Y-119506500D02*
X149611500Y-119336900D01*
X149781100Y-125828600D02*
X149781100Y-119506500D01*
X153581100Y-97753600D02*
X153581100Y-99402900D01*
X144482800Y-125610300D02*
X144482800Y-108501200D01*
X144482800Y-108501200D02*
X153581100Y-99402900D01*
X144701100Y-125828600D02*
X144482800Y-125610300D01*
X144941500Y-114313400D02*
X144941500Y-111953400D01*
X147241100Y-116613000D02*
X144941500Y-114313400D01*
X147241100Y-125828600D02*
X147241100Y-116613000D01*
X158661100Y-97753600D02*
X158661100Y-99402900D01*
X157492000Y-99402900D02*
X158661100Y-99402900D01*
X144941500Y-111953400D02*
X157492000Y-99402900D01*
X170091100Y-90768600D02*
X170091100Y-110074300D01*
X171361100Y-112993600D02*
X171361100Y-111344300D01*
X170091100Y-110074300D02*
X171361100Y-111344300D01*
X162471100Y-92417900D02*
X163059200Y-92417900D01*
X168821100Y-112993600D02*
X168821100Y-111344300D01*
X162471100Y-90768600D02*
X162471100Y-92417900D01*
X163059200Y-92417900D02*
X167832200Y-97190900D01*
X167832200Y-97190900D02*
X167832200Y-110355400D01*
X167832200Y-110355400D02*
X168821100Y-111344300D01*
X166281100Y-112993600D02*
X166281100Y-111344300D01*
X159931100Y-90768600D02*
X159931100Y-104994300D01*
X159931100Y-104994300D02*
X166281100Y-111344300D01*
X165389620Y-114642120D02*
X163741100Y-112993600D01*
X172641100Y-125828600D02*
X172641100Y-120152000D01*
X167131220Y-114642120D02*
X165389620Y-114642120D01*
X172641100Y-120152000D02*
X167131220Y-114642120D01*
X165259840Y-115094840D02*
X163302340Y-115094840D01*
X170101100Y-125828600D02*
X170101100Y-119936100D01*
X163302340Y-115094840D02*
X161201100Y-112993600D01*
X170101100Y-119936100D02*
X165259840Y-115094840D01*
X160309620Y-114642120D02*
X158661100Y-112993600D01*
X167561100Y-125828600D02*
X167561100Y-120152000D01*
X167561100Y-120152000D02*
X162051220Y-114642120D01*
X162051220Y-114642120D02*
X160309620Y-114642120D01*
X157769620Y-114642120D02*
X156121100Y-112993600D01*
X159511220Y-114642120D02*
X157769620Y-114642120D01*
X165021100Y-120152000D02*
X159511220Y-114642120D01*
X165021100Y-125828600D02*
X165021100Y-120152000D01*
X156920420Y-114642120D02*
X155229620Y-114642120D01*
X155229620Y-114642120D02*
X153581100Y-112993600D01*
X162481100Y-120202800D02*
X156920420Y-114642120D01*
X162481100Y-125828600D02*
X162481100Y-120202800D01*
X154431220Y-114642120D02*
X152689620Y-114642120D01*
X159941100Y-120152000D02*
X154431220Y-114642120D01*
X152689620Y-114642120D02*
X151041100Y-112993600D01*
X159941100Y-125828600D02*
X159941100Y-120152000D01*
X157401100Y-120202800D02*
X151840420Y-114642120D01*
X150149620Y-114642120D02*
X148501100Y-112993600D01*
X157401100Y-125828600D02*
X157401100Y-120202800D01*
X151840420Y-114642120D02*
X150149620Y-114642120D01*
X149962097Y-115094839D02*
X149509378Y-114642120D01*
X154861100Y-119936100D02*
X150019840Y-115094840D01*
X154861100Y-125828600D02*
X154861100Y-119936100D01*
X150019840Y-115094840D02*
X149962097Y-115094839D01*
X147609620Y-114642120D02*
X145961100Y-112993600D01*
X149509378Y-114642120D02*
X147609620Y-114642120D01*
X142161100Y-125828600D02*
X142161100Y-115902900D01*
X143421100Y-112993600D02*
X143421100Y-114642900D01*
X142161100Y-115902900D02*
X143421100Y-114642900D01*
X140881100Y-111207100D02*
X140881100Y-112993600D01*
X158821600Y-93310800D02*
X157551600Y-94580800D01*
X158821600Y-89811100D02*
X158821600Y-93310800D01*
X152311100Y-99777100D02*
X140881100Y-111207100D01*
X159513400Y-89119300D02*
X158821600Y-89811100D01*
X157551600Y-98384800D02*
X156483900Y-99452500D01*
X154851100Y-96904000D02*
X154037800Y-96090700D01*
X157551600Y-94580800D02*
X157551600Y-98384800D01*
X167551100Y-89119300D02*
X159513400Y-89119300D01*
X153185000Y-96090700D02*
X152311100Y-96964600D01*
X154851100Y-98555000D02*
X154851100Y-96904000D01*
X167551100Y-90768600D02*
X167551100Y-89119300D01*
X156483900Y-99452500D02*
X155748600Y-99452500D01*
X154037800Y-96090700D02*
X153185000Y-96090700D01*
X155748600Y-99452500D02*
X154851100Y-98555000D01*
X152311100Y-96964600D02*
X152311100Y-99777100D01*
X138341100Y-93615100D02*
X138558700Y-93397500D01*
X138341100Y-94578600D02*
X138341100Y-93615100D01*
X138558700Y-93397500D02*
X138558700Y-93314900D01*
X135801100Y-112993600D02*
X135801100Y-111344300D01*
X138341100Y-86958600D02*
X138341100Y-87922100D01*
X134793400Y-110336600D02*
X135801100Y-111344300D01*
X138341100Y-87922100D02*
X134793400Y-91469800D01*
X134793400Y-91469800D02*
X134793400Y-110336600D01*
X140358500Y-91251000D02*
X140358500Y-96075400D01*
X140451600Y-99403000D02*
X141306100Y-99403000D01*
X144430980Y-81923520D02*
X151138520Y-81923520D01*
X141870700Y-84483800D02*
X144430980Y-81923520D01*
X139876100Y-90768600D02*
X140358500Y-91251000D01*
X139230100Y-90768600D02*
X139876100Y-90768600D01*
X140358500Y-96075400D02*
X139875900Y-96558000D01*
X139875900Y-96558000D02*
X139875900Y-98827300D01*
X167551100Y-84797900D02*
X167551100Y-83148600D01*
X151138520Y-81923520D02*
X154012900Y-84797900D01*
X141306100Y-99403000D02*
X141870700Y-98838400D01*
X139230100Y-86958600D02*
X139230100Y-90768600D01*
X141870700Y-98838400D02*
X141870700Y-84483800D01*
X154012900Y-84797900D02*
X167551100Y-84797900D01*
X139875900Y-98827300D02*
X140451600Y-99403000D01*
X141553900Y-81470800D02*
X173493300Y-81470800D01*
X139230100Y-83148600D02*
X139876100Y-83148600D01*
X139876100Y-83148600D02*
X141553900Y-81470800D01*
X173493300Y-81470800D02*
X175171100Y-83148600D01*
X142382289Y-84622886D02*
X142382289Y-98991111D01*
X174529700Y-88477900D02*
X157052658Y-88477900D01*
X175171100Y-90768600D02*
X175171100Y-89119300D01*
X175171100Y-89119300D02*
X174529700Y-88477900D01*
X144455175Y-82550000D02*
X142382289Y-84622886D01*
X157052658Y-88477900D02*
X151124758Y-82550000D01*
X138381200Y-99875900D02*
X137343100Y-98837800D01*
X151124758Y-82550000D02*
X144455175Y-82550000D01*
X138453300Y-95542100D02*
X139230100Y-95542100D01*
X137343100Y-98837800D02*
X137343100Y-96652300D01*
X142382289Y-98991111D02*
X141497500Y-99875900D01*
X137343100Y-96652300D02*
X138453300Y-95542100D01*
X139230100Y-95542100D02*
X139230100Y-94578600D01*
X141497500Y-99875900D02*
X138381200Y-99875900D01*
X124750400Y-114461700D02*
X126921100Y-116632400D01*
X123922400Y-107315000D02*
X124750400Y-108143000D01*
X126921100Y-116632400D02*
X126921100Y-125828600D01*
X122287400Y-107315000D02*
X123922400Y-107315000D01*
X122307500Y-94615000D02*
X121434300Y-95488200D01*
X129161100Y-88303600D02*
X129161100Y-89395400D01*
X121434300Y-95488200D02*
X121434300Y-106461900D01*
X123941500Y-94615000D02*
X122307500Y-94615000D01*
X129161100Y-89395400D02*
X123941500Y-94615000D01*
X124750400Y-108143000D02*
X124750400Y-114461700D01*
X121434300Y-106461900D02*
X122287400Y-107315000D01*
G04 #@! TA.AperFunction,Conductor*
G36*
X179684721Y-81032102D02*
G01*
X179731214Y-81085758D01*
X179742600Y-81138100D01*
X179742600Y-100559100D01*
X179722598Y-100627221D01*
X179668942Y-100673714D01*
X179616600Y-100685100D01*
X177509723Y-100685100D01*
X177508953Y-100685098D01*
X177508137Y-100685093D01*
X177431379Y-100684624D01*
X177409018Y-100691015D01*
X177402947Y-100692750D01*
X177386185Y-100696328D01*
X177356913Y-100700520D01*
X177348745Y-100704234D01*
X177348744Y-100704234D01*
X177333538Y-100711148D01*
X177316014Y-100717596D01*
X177291329Y-100724651D01*
X177283735Y-100729443D01*
X177283732Y-100729444D01*
X177266320Y-100740430D01*
X177251237Y-100748569D01*
X177224318Y-100760808D01*
X177217516Y-100766669D01*
X177204865Y-100777570D01*
X177189861Y-100788673D01*
X177168142Y-100802376D01*
X177162203Y-100809101D01*
X177162199Y-100809104D01*
X177148568Y-100824538D01*
X177136376Y-100836582D01*
X177120773Y-100850027D01*
X177120771Y-100850030D01*
X177113973Y-100855887D01*
X177109093Y-100863416D01*
X177109092Y-100863417D01*
X177100006Y-100877435D01*
X177088715Y-100892309D01*
X177077669Y-100904817D01*
X177071722Y-100911551D01*
X177065412Y-100924991D01*
X177059158Y-100938311D01*
X177050837Y-100953291D01*
X177039629Y-100970583D01*
X177039627Y-100970588D01*
X177034748Y-100978115D01*
X177032178Y-100986708D01*
X177032176Y-100986713D01*
X177027389Y-101002720D01*
X177020728Y-101020164D01*
X177013633Y-101035276D01*
X177009819Y-101043400D01*
X177008438Y-101052267D01*
X177008438Y-101052268D01*
X177005270Y-101072615D01*
X177001487Y-101089332D01*
X176995585Y-101109066D01*
X176995584Y-101109072D01*
X176993014Y-101117666D01*
X176992959Y-101126637D01*
X176992959Y-101126638D01*
X176992804Y-101152097D01*
X176992771Y-101152889D01*
X176992600Y-101153986D01*
X176992600Y-101184977D01*
X176992598Y-101185747D01*
X176992124Y-101263321D01*
X176992508Y-101264665D01*
X176992600Y-101266010D01*
X176992600Y-119889000D01*
X176972598Y-119957121D01*
X176918942Y-120003614D01*
X176866600Y-120015000D01*
X173355594Y-120015000D01*
X173287473Y-119994998D01*
X173240980Y-119941342D01*
X173234600Y-119924160D01*
X173227118Y-119898407D01*
X173223085Y-119891588D01*
X173223083Y-119891583D01*
X173216807Y-119880972D01*
X173208112Y-119863224D01*
X173200652Y-119844383D01*
X173181677Y-119818265D01*
X173174664Y-119808613D01*
X173168148Y-119798693D01*
X173149680Y-119767465D01*
X173149678Y-119767462D01*
X173145642Y-119760638D01*
X173131321Y-119746317D01*
X173118480Y-119731283D01*
X173117193Y-119729512D01*
X173106572Y-119714893D01*
X173072495Y-119686702D01*
X173063716Y-119678712D01*
X168378047Y-114993042D01*
X168344021Y-114930730D01*
X168349086Y-114859915D01*
X168391633Y-114803079D01*
X168458153Y-114778268D01*
X168491723Y-114780368D01*
X168692726Y-114820350D01*
X168692729Y-114820350D01*
X168698393Y-114821477D01*
X168704168Y-114821553D01*
X168704172Y-114821553D01*
X168811845Y-114822962D01*
X168913204Y-114824289D01*
X168918901Y-114823310D01*
X168918902Y-114823310D01*
X169119233Y-114788887D01*
X169119234Y-114788887D01*
X169124930Y-114787908D01*
X169326480Y-114713552D01*
X169511106Y-114603712D01*
X169515446Y-114599906D01*
X169515450Y-114599903D01*
X169668282Y-114465872D01*
X169672623Y-114462065D01*
X169694324Y-114434538D01*
X169802045Y-114297893D01*
X169805622Y-114293356D01*
X169808459Y-114287965D01*
X169902958Y-114108351D01*
X169905650Y-114103235D01*
X169969355Y-113898069D01*
X169969462Y-113897163D01*
X170002439Y-113836079D01*
X170064588Y-113801757D01*
X170135427Y-113806483D01*
X170192465Y-113848758D01*
X170213228Y-113890546D01*
X170265162Y-114074691D01*
X170267715Y-114079868D01*
X170267717Y-114079873D01*
X170348470Y-114243622D01*
X170360179Y-114267365D01*
X170488716Y-114439498D01*
X170492950Y-114443412D01*
X170492952Y-114443414D01*
X170641800Y-114581007D01*
X170646470Y-114585324D01*
X170828157Y-114699960D01*
X171027692Y-114779566D01*
X171033352Y-114780692D01*
X171033356Y-114780693D01*
X171232726Y-114820350D01*
X171232729Y-114820350D01*
X171238393Y-114821477D01*
X171244168Y-114821553D01*
X171244172Y-114821553D01*
X171351845Y-114822962D01*
X171453204Y-114824289D01*
X171458901Y-114823310D01*
X171458902Y-114823310D01*
X171659233Y-114788887D01*
X171659234Y-114788887D01*
X171664930Y-114787908D01*
X171866480Y-114713552D01*
X172051106Y-114603712D01*
X172055446Y-114599906D01*
X172055450Y-114599903D01*
X172208282Y-114465872D01*
X172212623Y-114462065D01*
X172234324Y-114434538D01*
X172342045Y-114297893D01*
X172345622Y-114293356D01*
X172348459Y-114287965D01*
X172442958Y-114108351D01*
X172445650Y-114103235D01*
X172509355Y-113898069D01*
X172509559Y-113896344D01*
X172542668Y-113835023D01*
X172604818Y-113800704D01*
X172675657Y-113805435D01*
X172732693Y-113847712D01*
X172753452Y-113889496D01*
X172804062Y-114068947D01*
X172808187Y-114079694D01*
X172898052Y-114261922D01*
X172904062Y-114271730D01*
X173025636Y-114434538D01*
X173033325Y-114443078D01*
X173182536Y-114581007D01*
X173191661Y-114588008D01*
X173363501Y-114696431D01*
X173373749Y-114701652D01*
X173562467Y-114776943D01*
X173573503Y-114780212D01*
X173629330Y-114791317D01*
X173642206Y-114790165D01*
X173646183Y-114777848D01*
X174155100Y-114777848D01*
X174158906Y-114790810D01*
X174173822Y-114792746D01*
X174199103Y-114788402D01*
X174210223Y-114785422D01*
X174400848Y-114715097D01*
X174411226Y-114710147D01*
X174585843Y-114606261D01*
X174595155Y-114599495D01*
X174747918Y-114465526D01*
X174755835Y-114457183D01*
X174881623Y-114297622D01*
X174887894Y-114287965D01*
X174982494Y-114108160D01*
X174986899Y-114097526D01*
X175047151Y-113903482D01*
X175049543Y-113892228D01*
X175069064Y-113727302D01*
X175069500Y-113719899D01*
X175069500Y-113265715D01*
X175065025Y-113250476D01*
X175063635Y-113249271D01*
X175055952Y-113247600D01*
X174173215Y-113247600D01*
X174157976Y-113252075D01*
X174156771Y-113253465D01*
X174155100Y-113261148D01*
X174155100Y-114777848D01*
X173646183Y-114777848D01*
X173647100Y-114775009D01*
X173647100Y-112721485D01*
X174155100Y-112721485D01*
X174159575Y-112736724D01*
X174160965Y-112737929D01*
X174168648Y-112739600D01*
X175051385Y-112739600D01*
X175066624Y-112735125D01*
X175067829Y-112733735D01*
X175069500Y-112726052D01*
X175069500Y-112281619D01*
X175069234Y-112275830D01*
X175055386Y-112125121D01*
X175053288Y-112113800D01*
X174998138Y-111918253D01*
X174994013Y-111907506D01*
X174904148Y-111725278D01*
X174898138Y-111715470D01*
X174776564Y-111552662D01*
X174768875Y-111544122D01*
X174619664Y-111406193D01*
X174610539Y-111399192D01*
X174438699Y-111290769D01*
X174428451Y-111285548D01*
X174239733Y-111210257D01*
X174228697Y-111206988D01*
X174172870Y-111195883D01*
X174159994Y-111197035D01*
X174155100Y-111212191D01*
X174155100Y-112721485D01*
X173647100Y-112721485D01*
X173647100Y-111209352D01*
X173643294Y-111196390D01*
X173628378Y-111194454D01*
X173603097Y-111198798D01*
X173591977Y-111201778D01*
X173401352Y-111272103D01*
X173390974Y-111277053D01*
X173216357Y-111380939D01*
X173207045Y-111387705D01*
X173054282Y-111521674D01*
X173046365Y-111530017D01*
X172920577Y-111689578D01*
X172914306Y-111699235D01*
X172819706Y-111879040D01*
X172815301Y-111889674D01*
X172755047Y-112083723D01*
X172753779Y-112089690D01*
X172720049Y-112152163D01*
X172657899Y-112186482D01*
X172587060Y-112181753D01*
X172530023Y-112139476D01*
X172509265Y-112097694D01*
X172457038Y-111912509D01*
X172362021Y-111719835D01*
X172233484Y-111547702D01*
X172229248Y-111543786D01*
X172079970Y-111405795D01*
X172079967Y-111405793D01*
X172075730Y-111401876D01*
X172053270Y-111387705D01*
X172051725Y-111386730D01*
X172004786Y-111333463D01*
X171993022Y-111284128D01*
X171992022Y-111252330D01*
X171991773Y-111244410D01*
X171986122Y-111224958D01*
X171982114Y-111205606D01*
X171980968Y-111196537D01*
X171979574Y-111185503D01*
X171976656Y-111178132D01*
X171963300Y-111144397D01*
X171959455Y-111133170D01*
X171958821Y-111130987D01*
X171947118Y-111090707D01*
X171943082Y-111083882D01*
X171943081Y-111083879D01*
X171936806Y-111073268D01*
X171928110Y-111055518D01*
X171923572Y-111044056D01*
X171923569Y-111044051D01*
X171920652Y-111036683D01*
X171898860Y-111006688D01*
X171894673Y-111000925D01*
X171888157Y-110991007D01*
X171869675Y-110959757D01*
X171865642Y-110952937D01*
X171851318Y-110938613D01*
X171838476Y-110923578D01*
X171831231Y-110913606D01*
X171826572Y-110907193D01*
X171792506Y-110879011D01*
X171783727Y-110871022D01*
X170761505Y-109848800D01*
X170727479Y-109786488D01*
X170724600Y-109759705D01*
X170724600Y-99604571D01*
X170744602Y-99536450D01*
X170798258Y-99489957D01*
X170868532Y-99479853D01*
X170897289Y-99487541D01*
X171027692Y-99539566D01*
X171033352Y-99540692D01*
X171033356Y-99540693D01*
X171232726Y-99580350D01*
X171232729Y-99580350D01*
X171238393Y-99581477D01*
X171244168Y-99581553D01*
X171244172Y-99581553D01*
X171351845Y-99582962D01*
X171453204Y-99584289D01*
X171458901Y-99583310D01*
X171458902Y-99583310D01*
X171659233Y-99548887D01*
X171659234Y-99548887D01*
X171664930Y-99547908D01*
X171866480Y-99473552D01*
X172051106Y-99363712D01*
X172055446Y-99359906D01*
X172055450Y-99359903D01*
X172208282Y-99225872D01*
X172212623Y-99222065D01*
X172237661Y-99190305D01*
X172281460Y-99134745D01*
X172345622Y-99053356D01*
X172362022Y-99022186D01*
X172442958Y-98868351D01*
X172445650Y-98863235D01*
X172509355Y-98658069D01*
X172509462Y-98657163D01*
X172542439Y-98596079D01*
X172604588Y-98561757D01*
X172675427Y-98566483D01*
X172732465Y-98608758D01*
X172753228Y-98650546D01*
X172805162Y-98834691D01*
X172807715Y-98839868D01*
X172807717Y-98839873D01*
X172868240Y-98962599D01*
X172900179Y-99027365D01*
X173028716Y-99199498D01*
X173032950Y-99203412D01*
X173032952Y-99203414D01*
X173140785Y-99303093D01*
X173186470Y-99345324D01*
X173368157Y-99459960D01*
X173373521Y-99462100D01*
X173523758Y-99522038D01*
X173567692Y-99539566D01*
X173573352Y-99540692D01*
X173573356Y-99540693D01*
X173772726Y-99580350D01*
X173772729Y-99580350D01*
X173778393Y-99581477D01*
X173784168Y-99581553D01*
X173784172Y-99581553D01*
X173891845Y-99582962D01*
X173993204Y-99584289D01*
X173998901Y-99583310D01*
X173998902Y-99583310D01*
X174199233Y-99548887D01*
X174199234Y-99548887D01*
X174204930Y-99547908D01*
X174406480Y-99473552D01*
X174591106Y-99363712D01*
X174595446Y-99359906D01*
X174595450Y-99359903D01*
X174748282Y-99225872D01*
X174752623Y-99222065D01*
X174777661Y-99190305D01*
X174821460Y-99134745D01*
X174885622Y-99053356D01*
X174902022Y-99022186D01*
X174982958Y-98868351D01*
X174985650Y-98863235D01*
X175049355Y-98658069D01*
X175051550Y-98639526D01*
X175069564Y-98487331D01*
X175069564Y-98487324D01*
X175070000Y-98483644D01*
X175070000Y-97038698D01*
X175055351Y-96879272D01*
X175051593Y-96865945D01*
X175016100Y-96740099D01*
X174997038Y-96672509D01*
X174958690Y-96594746D01*
X174904575Y-96485014D01*
X174902021Y-96479835D01*
X174813830Y-96361732D01*
X174776937Y-96312326D01*
X174776936Y-96312325D01*
X174773484Y-96307702D01*
X174761159Y-96296309D01*
X174619970Y-96165795D01*
X174619967Y-96165793D01*
X174615730Y-96161876D01*
X174434043Y-96047240D01*
X174265927Y-95980169D01*
X174239872Y-95969774D01*
X174234508Y-95967634D01*
X174228848Y-95966508D01*
X174228844Y-95966507D01*
X174029474Y-95926850D01*
X174029471Y-95926850D01*
X174023807Y-95925723D01*
X174018032Y-95925647D01*
X174018028Y-95925647D01*
X173910355Y-95924238D01*
X173808996Y-95922911D01*
X173803299Y-95923890D01*
X173803298Y-95923890D01*
X173671360Y-95946561D01*
X173597270Y-95959292D01*
X173395720Y-96033648D01*
X173211094Y-96143488D01*
X173206754Y-96147294D01*
X173206750Y-96147297D01*
X173074469Y-96263305D01*
X173049577Y-96285135D01*
X172916578Y-96453844D01*
X172913889Y-96458955D01*
X172913887Y-96458958D01*
X172882561Y-96518500D01*
X172816550Y-96643965D01*
X172752845Y-96849131D01*
X172752738Y-96850037D01*
X172719761Y-96911121D01*
X172657612Y-96945443D01*
X172586773Y-96940717D01*
X172529735Y-96898442D01*
X172508972Y-96856654D01*
X172476100Y-96740099D01*
X172457038Y-96672509D01*
X172418690Y-96594746D01*
X172364575Y-96485014D01*
X172362021Y-96479835D01*
X172273830Y-96361732D01*
X172236937Y-96312326D01*
X172236936Y-96312325D01*
X172233484Y-96307702D01*
X172221159Y-96296309D01*
X172079970Y-96165795D01*
X172079967Y-96165793D01*
X172075730Y-96161876D01*
X171894043Y-96047240D01*
X171725927Y-95980169D01*
X171699872Y-95969774D01*
X171694508Y-95967634D01*
X171688848Y-95966508D01*
X171688844Y-95966507D01*
X171489474Y-95926850D01*
X171489471Y-95926850D01*
X171483807Y-95925723D01*
X171478032Y-95925647D01*
X171478028Y-95925647D01*
X171370355Y-95924238D01*
X171268996Y-95922911D01*
X171263299Y-95923890D01*
X171263298Y-95923890D01*
X171131360Y-95946561D01*
X171057270Y-95959292D01*
X170926036Y-96007707D01*
X170894211Y-96019448D01*
X170823378Y-96024260D01*
X170761187Y-95990013D01*
X170727385Y-95927580D01*
X170724600Y-95901236D01*
X170724600Y-92483313D01*
X170744602Y-92415192D01*
X170776429Y-92381494D01*
X170781106Y-92378712D01*
X170785440Y-92374911D01*
X170785443Y-92374909D01*
X170938282Y-92240872D01*
X170942623Y-92237065D01*
X170964324Y-92209538D01*
X171072045Y-92072893D01*
X171075622Y-92068356D01*
X171078459Y-92062965D01*
X171129121Y-91966672D01*
X171175650Y-91878235D01*
X171225940Y-91716273D01*
X171237643Y-91678583D01*
X171237643Y-91678582D01*
X171239355Y-91673069D01*
X171239462Y-91672163D01*
X171272439Y-91611079D01*
X171334588Y-91576757D01*
X171405427Y-91581483D01*
X171462465Y-91623758D01*
X171483228Y-91665546D01*
X171535162Y-91849691D01*
X171537715Y-91854868D01*
X171537717Y-91854873D01*
X171565939Y-91912100D01*
X171630179Y-92042365D01*
X171649587Y-92068356D01*
X171742154Y-92192318D01*
X171758716Y-92214498D01*
X171762950Y-92218412D01*
X171762952Y-92218414D01*
X171911800Y-92356007D01*
X171916470Y-92360324D01*
X172098157Y-92474960D01*
X172103521Y-92477100D01*
X172270068Y-92543545D01*
X172297692Y-92554566D01*
X172303352Y-92555692D01*
X172303356Y-92555693D01*
X172502726Y-92595350D01*
X172502729Y-92595350D01*
X172508393Y-92596477D01*
X172514168Y-92596553D01*
X172514172Y-92596553D01*
X172621845Y-92597962D01*
X172723204Y-92599289D01*
X172728901Y-92598310D01*
X172728902Y-92598310D01*
X172929233Y-92563887D01*
X172929234Y-92563887D01*
X172934930Y-92562908D01*
X173136480Y-92488552D01*
X173321106Y-92378712D01*
X173325446Y-92374906D01*
X173325450Y-92374903D01*
X173478282Y-92240872D01*
X173482623Y-92237065D01*
X173504324Y-92209538D01*
X173612045Y-92072893D01*
X173615622Y-92068356D01*
X173618459Y-92062965D01*
X173669121Y-91966672D01*
X173715650Y-91878235D01*
X173765940Y-91716273D01*
X173777643Y-91678583D01*
X173777643Y-91678582D01*
X173779355Y-91673069D01*
X173779462Y-91672163D01*
X173812439Y-91611079D01*
X173874588Y-91576757D01*
X173945427Y-91581483D01*
X174002465Y-91623758D01*
X174023228Y-91665546D01*
X174075162Y-91849691D01*
X174077715Y-91854868D01*
X174077717Y-91854873D01*
X174105939Y-91912100D01*
X174170179Y-92042365D01*
X174189587Y-92068356D01*
X174282154Y-92192318D01*
X174298716Y-92214498D01*
X174302950Y-92218412D01*
X174302952Y-92218414D01*
X174451800Y-92356007D01*
X174456470Y-92360324D01*
X174638157Y-92474960D01*
X174643521Y-92477100D01*
X174810068Y-92543545D01*
X174837692Y-92554566D01*
X174843352Y-92555692D01*
X174843356Y-92555693D01*
X175042726Y-92595350D01*
X175042729Y-92595350D01*
X175048393Y-92596477D01*
X175054168Y-92596553D01*
X175054172Y-92596553D01*
X175161845Y-92597962D01*
X175263204Y-92599289D01*
X175268901Y-92598310D01*
X175268902Y-92598310D01*
X175469233Y-92563887D01*
X175469234Y-92563887D01*
X175474930Y-92562908D01*
X175676480Y-92488552D01*
X175861106Y-92378712D01*
X175865446Y-92374906D01*
X175865450Y-92374903D01*
X176018282Y-92240872D01*
X176022623Y-92237065D01*
X176044324Y-92209538D01*
X176152045Y-92072893D01*
X176155622Y-92068356D01*
X176158459Y-92062965D01*
X176209121Y-91966672D01*
X176255650Y-91878235D01*
X176319355Y-91673069D01*
X176319559Y-91671344D01*
X176352668Y-91610023D01*
X176414818Y-91575704D01*
X176485657Y-91580435D01*
X176542693Y-91622712D01*
X176563452Y-91664496D01*
X176614062Y-91843947D01*
X176618187Y-91854694D01*
X176708052Y-92036922D01*
X176714062Y-92046730D01*
X176835636Y-92209538D01*
X176843325Y-92218078D01*
X176992536Y-92356007D01*
X177001661Y-92363008D01*
X177173501Y-92471431D01*
X177183749Y-92476652D01*
X177372467Y-92551943D01*
X177383503Y-92555212D01*
X177439330Y-92566317D01*
X177452206Y-92565165D01*
X177456183Y-92552848D01*
X177965100Y-92552848D01*
X177968906Y-92565810D01*
X177983822Y-92567746D01*
X178009103Y-92563402D01*
X178020223Y-92560422D01*
X178210848Y-92490097D01*
X178221226Y-92485147D01*
X178395843Y-92381261D01*
X178405155Y-92374495D01*
X178557918Y-92240526D01*
X178565835Y-92232183D01*
X178691623Y-92072622D01*
X178697894Y-92062965D01*
X178792494Y-91883160D01*
X178796899Y-91872526D01*
X178857151Y-91678482D01*
X178859543Y-91667228D01*
X178879064Y-91502302D01*
X178879500Y-91494899D01*
X178879500Y-91040715D01*
X178875025Y-91025476D01*
X178873635Y-91024271D01*
X178865952Y-91022600D01*
X177983215Y-91022600D01*
X177967976Y-91027075D01*
X177966771Y-91028465D01*
X177965100Y-91036148D01*
X177965100Y-92552848D01*
X177456183Y-92552848D01*
X177457100Y-92550009D01*
X177457100Y-90496485D01*
X177965100Y-90496485D01*
X177969575Y-90511724D01*
X177970965Y-90512929D01*
X177978648Y-90514600D01*
X178861385Y-90514600D01*
X178876624Y-90510125D01*
X178877829Y-90508735D01*
X178879500Y-90501052D01*
X178879500Y-90056619D01*
X178879234Y-90050830D01*
X178865386Y-89900121D01*
X178863288Y-89888800D01*
X178808138Y-89693253D01*
X178804013Y-89682506D01*
X178714148Y-89500278D01*
X178708138Y-89490470D01*
X178586564Y-89327662D01*
X178578875Y-89319122D01*
X178429664Y-89181193D01*
X178420539Y-89174192D01*
X178248699Y-89065769D01*
X178238451Y-89060548D01*
X178049733Y-88985257D01*
X178038697Y-88981988D01*
X177982870Y-88970883D01*
X177969994Y-88972035D01*
X177965100Y-88987191D01*
X177965100Y-90496485D01*
X177457100Y-90496485D01*
X177457100Y-88984352D01*
X177453294Y-88971390D01*
X177438378Y-88969454D01*
X177413097Y-88973798D01*
X177401977Y-88976778D01*
X177211352Y-89047103D01*
X177200974Y-89052053D01*
X177026357Y-89155939D01*
X177017045Y-89162705D01*
X176864282Y-89296674D01*
X176856365Y-89305017D01*
X176730577Y-89464578D01*
X176724306Y-89474235D01*
X176629706Y-89654040D01*
X176625301Y-89664674D01*
X176565047Y-89858723D01*
X176563779Y-89864690D01*
X176530049Y-89927163D01*
X176467899Y-89961482D01*
X176397060Y-89956753D01*
X176340023Y-89914476D01*
X176319265Y-89872694D01*
X176267038Y-89687509D01*
X176263268Y-89679863D01*
X176174575Y-89500014D01*
X176172021Y-89494835D01*
X176043484Y-89322702D01*
X176039248Y-89318786D01*
X175889970Y-89180795D01*
X175889967Y-89180793D01*
X175885730Y-89176876D01*
X175861725Y-89161730D01*
X175814786Y-89108463D01*
X175803022Y-89059125D01*
X175802023Y-89027336D01*
X175801774Y-89019411D01*
X175799405Y-89011257D01*
X175796121Y-88999952D01*
X175792112Y-88980593D01*
X175791316Y-88974292D01*
X175789574Y-88960503D01*
X175786658Y-88953137D01*
X175786656Y-88953131D01*
X175773300Y-88919398D01*
X175769455Y-88908168D01*
X175759330Y-88873317D01*
X175759330Y-88873316D01*
X175757119Y-88865707D01*
X175746805Y-88848266D01*
X175738108Y-88830513D01*
X175733659Y-88819278D01*
X175730652Y-88811683D01*
X175704663Y-88775912D01*
X175698147Y-88765992D01*
X175687884Y-88748638D01*
X175675642Y-88727938D01*
X175661321Y-88713617D01*
X175648480Y-88698583D01*
X175641232Y-88688607D01*
X175636572Y-88682193D01*
X175602507Y-88654012D01*
X175593726Y-88646022D01*
X175033347Y-88085642D01*
X175025813Y-88077363D01*
X175021700Y-88070882D01*
X174972048Y-88024256D01*
X174969207Y-88021502D01*
X174949470Y-88001765D01*
X174946273Y-87999285D01*
X174937251Y-87991580D01*
X174905021Y-87961314D01*
X174898075Y-87957495D01*
X174898072Y-87957493D01*
X174887266Y-87951552D01*
X174870747Y-87940701D01*
X174870283Y-87940341D01*
X174854741Y-87928286D01*
X174847472Y-87925141D01*
X174847468Y-87925138D01*
X174814163Y-87910726D01*
X174803513Y-87905509D01*
X174764760Y-87884205D01*
X174745137Y-87879167D01*
X174726434Y-87872763D01*
X174715120Y-87867867D01*
X174715119Y-87867867D01*
X174707845Y-87864719D01*
X174700022Y-87863480D01*
X174700012Y-87863477D01*
X174664176Y-87857801D01*
X174652556Y-87855395D01*
X174617411Y-87846372D01*
X174617410Y-87846372D01*
X174609730Y-87844400D01*
X174589476Y-87844400D01*
X174569765Y-87842849D01*
X174557586Y-87840920D01*
X174549757Y-87839680D01*
X174541865Y-87840426D01*
X174505739Y-87843841D01*
X174493881Y-87844400D01*
X157367252Y-87844400D01*
X157299131Y-87824398D01*
X157278157Y-87807495D01*
X155117157Y-85646495D01*
X155083131Y-85584183D01*
X155088196Y-85513368D01*
X155130743Y-85456532D01*
X155197263Y-85431721D01*
X155206252Y-85431400D01*
X167479307Y-85431400D01*
X167502916Y-85433632D01*
X167503219Y-85433690D01*
X167503223Y-85433690D01*
X167511006Y-85435175D01*
X167567051Y-85431649D01*
X167574962Y-85431400D01*
X167590956Y-85431400D01*
X167606830Y-85429394D01*
X167614690Y-85428652D01*
X167642149Y-85426924D01*
X167662837Y-85425623D01*
X167662838Y-85425623D01*
X167670750Y-85425125D01*
X167678291Y-85422675D01*
X167678587Y-85422579D01*
X167701731Y-85417406D01*
X167702035Y-85417368D01*
X167702040Y-85417367D01*
X167709897Y-85416374D01*
X167717262Y-85413458D01*
X167717266Y-85413457D01*
X167762111Y-85395701D01*
X167769530Y-85393029D01*
X167822975Y-85375664D01*
X167829672Y-85371414D01*
X167829931Y-85371250D01*
X167851058Y-85360485D01*
X167851346Y-85360371D01*
X167851351Y-85360368D01*
X167858717Y-85357452D01*
X167865125Y-85352796D01*
X167865131Y-85352793D01*
X167904152Y-85324442D01*
X167910689Y-85319999D01*
X167958118Y-85289900D01*
X167963759Y-85283893D01*
X167981546Y-85268212D01*
X167981791Y-85268034D01*
X167981793Y-85268032D01*
X167988207Y-85263372D01*
X167993262Y-85257262D01*
X168024003Y-85220104D01*
X168029234Y-85214170D01*
X168062258Y-85179002D01*
X168062260Y-85178999D01*
X168067686Y-85173221D01*
X168071658Y-85165997D01*
X168084981Y-85146394D01*
X168085180Y-85146154D01*
X168085184Y-85146147D01*
X168090233Y-85140044D01*
X168108841Y-85100500D01*
X168114147Y-85089224D01*
X168117729Y-85082192D01*
X168144795Y-85032960D01*
X168146765Y-85025285D01*
X168146768Y-85025279D01*
X168146844Y-85024981D01*
X168154876Y-85002672D01*
X168155006Y-85002397D01*
X168155009Y-85002389D01*
X168158383Y-84995218D01*
X168168906Y-84940051D01*
X168170632Y-84932329D01*
X168170922Y-84931203D01*
X168184600Y-84877930D01*
X168184600Y-84869693D01*
X168186832Y-84846082D01*
X168188245Y-84838675D01*
X168220658Y-84775509D01*
X168237107Y-84761091D01*
X168241106Y-84758712D01*
X168402623Y-84617065D01*
X168432756Y-84578842D01*
X168497822Y-84496305D01*
X168535622Y-84448356D01*
X168540946Y-84438238D01*
X168612996Y-84301293D01*
X168635650Y-84258235D01*
X168699355Y-84053069D01*
X168699462Y-84052163D01*
X168732439Y-83991079D01*
X168794588Y-83956757D01*
X168865427Y-83961483D01*
X168922465Y-84003758D01*
X168943228Y-84045546D01*
X168995162Y-84229691D01*
X168997715Y-84234868D01*
X168997717Y-84234873D01*
X169036486Y-84313488D01*
X169090179Y-84422365D01*
X169218716Y-84594498D01*
X169222950Y-84598412D01*
X169222952Y-84598414D01*
X169314438Y-84682982D01*
X169376470Y-84740324D01*
X169558157Y-84854960D01*
X169757692Y-84934566D01*
X169763352Y-84935692D01*
X169763356Y-84935693D01*
X169962726Y-84975350D01*
X169962729Y-84975350D01*
X169968393Y-84976477D01*
X169974168Y-84976553D01*
X169974172Y-84976553D01*
X170081845Y-84977962D01*
X170183204Y-84979289D01*
X170188901Y-84978310D01*
X170188902Y-84978310D01*
X170389233Y-84943887D01*
X170389234Y-84943887D01*
X170394930Y-84942908D01*
X170596480Y-84868552D01*
X170781106Y-84758712D01*
X170785446Y-84754906D01*
X170785450Y-84754903D01*
X170938282Y-84620872D01*
X170942623Y-84617065D01*
X170972756Y-84578842D01*
X171037822Y-84496305D01*
X171075622Y-84448356D01*
X171080946Y-84438238D01*
X171152996Y-84301293D01*
X171175650Y-84258235D01*
X171239355Y-84053069D01*
X171239462Y-84052163D01*
X171272439Y-83991079D01*
X171334588Y-83956757D01*
X171405427Y-83961483D01*
X171462465Y-84003758D01*
X171483228Y-84045546D01*
X171535162Y-84229691D01*
X171537715Y-84234868D01*
X171537717Y-84234873D01*
X171576486Y-84313488D01*
X171630179Y-84422365D01*
X171758716Y-84594498D01*
X171762950Y-84598412D01*
X171762952Y-84598414D01*
X171854438Y-84682982D01*
X171916470Y-84740324D01*
X172098157Y-84854960D01*
X172297692Y-84934566D01*
X172303352Y-84935692D01*
X172303356Y-84935693D01*
X172502726Y-84975350D01*
X172502729Y-84975350D01*
X172508393Y-84976477D01*
X172514168Y-84976553D01*
X172514172Y-84976553D01*
X172621845Y-84977962D01*
X172723204Y-84979289D01*
X172728901Y-84978310D01*
X172728902Y-84978310D01*
X172929233Y-84943887D01*
X172929234Y-84943887D01*
X172934930Y-84942908D01*
X173136480Y-84868552D01*
X173321106Y-84758712D01*
X173325446Y-84754906D01*
X173325450Y-84754903D01*
X173478282Y-84620872D01*
X173482623Y-84617065D01*
X173512756Y-84578842D01*
X173577822Y-84496305D01*
X173615622Y-84448356D01*
X173620946Y-84438238D01*
X173692996Y-84301293D01*
X173715650Y-84258235D01*
X173779355Y-84053069D01*
X173779462Y-84052163D01*
X173812439Y-83991079D01*
X173874588Y-83956757D01*
X173945427Y-83961483D01*
X174002465Y-84003758D01*
X174023228Y-84045546D01*
X174075162Y-84229691D01*
X174077715Y-84234868D01*
X174077717Y-84234873D01*
X174116486Y-84313488D01*
X174170179Y-84422365D01*
X174298716Y-84594498D01*
X174302950Y-84598412D01*
X174302952Y-84598414D01*
X174394438Y-84682982D01*
X174456470Y-84740324D01*
X174638157Y-84854960D01*
X174837692Y-84934566D01*
X174843352Y-84935692D01*
X174843356Y-84935693D01*
X175042726Y-84975350D01*
X175042729Y-84975350D01*
X175048393Y-84976477D01*
X175054168Y-84976553D01*
X175054172Y-84976553D01*
X175161845Y-84977962D01*
X175263204Y-84979289D01*
X175268901Y-84978310D01*
X175268902Y-84978310D01*
X175469233Y-84943887D01*
X175469234Y-84943887D01*
X175474930Y-84942908D01*
X175676480Y-84868552D01*
X175861106Y-84758712D01*
X175865446Y-84754906D01*
X175865450Y-84754903D01*
X176018282Y-84620872D01*
X176022623Y-84617065D01*
X176052756Y-84578842D01*
X176117822Y-84496305D01*
X176155622Y-84448356D01*
X176160946Y-84438238D01*
X176232996Y-84301293D01*
X176255650Y-84258235D01*
X176319355Y-84053069D01*
X176319462Y-84052163D01*
X176352439Y-83991079D01*
X176414588Y-83956757D01*
X176485427Y-83961483D01*
X176542465Y-84003758D01*
X176563228Y-84045546D01*
X176615162Y-84229691D01*
X176617715Y-84234868D01*
X176617717Y-84234873D01*
X176656486Y-84313488D01*
X176710179Y-84422365D01*
X176838716Y-84594498D01*
X176842950Y-84598412D01*
X176842952Y-84598414D01*
X176934438Y-84682982D01*
X176996470Y-84740324D01*
X177178157Y-84854960D01*
X177377692Y-84934566D01*
X177383352Y-84935692D01*
X177383356Y-84935693D01*
X177582726Y-84975350D01*
X177582729Y-84975350D01*
X177588393Y-84976477D01*
X177594168Y-84976553D01*
X177594172Y-84976553D01*
X177701845Y-84977962D01*
X177803204Y-84979289D01*
X177808901Y-84978310D01*
X177808902Y-84978310D01*
X178009233Y-84943887D01*
X178009234Y-84943887D01*
X178014930Y-84942908D01*
X178216480Y-84868552D01*
X178401106Y-84758712D01*
X178405446Y-84754906D01*
X178405450Y-84754903D01*
X178558282Y-84620872D01*
X178562623Y-84617065D01*
X178592756Y-84578842D01*
X178657822Y-84496305D01*
X178695622Y-84448356D01*
X178700946Y-84438238D01*
X178772996Y-84301293D01*
X178795650Y-84258235D01*
X178859355Y-84053069D01*
X178862049Y-84030305D01*
X178879564Y-83882331D01*
X178879564Y-83882324D01*
X178880000Y-83878644D01*
X178880000Y-82433698D01*
X178865351Y-82274272D01*
X178863271Y-82266895D01*
X178826376Y-82136077D01*
X178807038Y-82067509D01*
X178804359Y-82062075D01*
X178714575Y-81880014D01*
X178712021Y-81874835D01*
X178583484Y-81702702D01*
X178425730Y-81556876D01*
X178244043Y-81442240D01*
X178044508Y-81362634D01*
X178038848Y-81361508D01*
X178038844Y-81361507D01*
X177839474Y-81321850D01*
X177839471Y-81321850D01*
X177833807Y-81320723D01*
X177828032Y-81320647D01*
X177828028Y-81320647D01*
X177720355Y-81319238D01*
X177618996Y-81317911D01*
X177613299Y-81318890D01*
X177613298Y-81318890D01*
X177603073Y-81320647D01*
X177407270Y-81354292D01*
X177205720Y-81428648D01*
X177021094Y-81538488D01*
X177016754Y-81542294D01*
X177016750Y-81542297D01*
X176863918Y-81676328D01*
X176859577Y-81680135D01*
X176726578Y-81848844D01*
X176723889Y-81853955D01*
X176723887Y-81853958D01*
X176674556Y-81947721D01*
X176626550Y-82038965D01*
X176583392Y-82177958D01*
X176568388Y-82226281D01*
X176562845Y-82244131D01*
X176562738Y-82245037D01*
X176529761Y-82306121D01*
X176467612Y-82340443D01*
X176396773Y-82335717D01*
X176339735Y-82293442D01*
X176318972Y-82251654D01*
X176300531Y-82186268D01*
X176267038Y-82067509D01*
X176264359Y-82062075D01*
X176174575Y-81880014D01*
X176172021Y-81874835D01*
X176043484Y-81702702D01*
X175885730Y-81556876D01*
X175704043Y-81442240D01*
X175504508Y-81362634D01*
X175498848Y-81361508D01*
X175498844Y-81361507D01*
X175299474Y-81321850D01*
X175299471Y-81321850D01*
X175293807Y-81320723D01*
X175288032Y-81320647D01*
X175288028Y-81320647D01*
X175180355Y-81319238D01*
X175078996Y-81317911D01*
X175073299Y-81318890D01*
X175073298Y-81318890D01*
X175063073Y-81320647D01*
X174867270Y-81354292D01*
X174665720Y-81428648D01*
X174660762Y-81431598D01*
X174660753Y-81431602D01*
X174550141Y-81497409D01*
X174481371Y-81515049D01*
X174413981Y-81492708D01*
X174396623Y-81478219D01*
X174145600Y-81227195D01*
X174111575Y-81164883D01*
X174116640Y-81094067D01*
X174159187Y-81037232D01*
X174225708Y-81012421D01*
X174234696Y-81012100D01*
X179616600Y-81012100D01*
X179684721Y-81032102D01*
G37*
G04 #@! TD.AperFunction*
G04 #@! TA.AperFunction,Conductor*
G36*
X123398741Y-81032102D02*
G01*
X123445234Y-81085758D01*
X123455338Y-81156032D01*
X123447071Y-81186217D01*
X123404994Y-81288050D01*
X123400729Y-81304193D01*
X123391590Y-81377048D01*
X123391100Y-81384893D01*
X123391100Y-81531485D01*
X123395575Y-81546724D01*
X123396965Y-81547929D01*
X123404648Y-81549600D01*
X125912984Y-81549600D01*
X125928223Y-81545125D01*
X125929428Y-81543735D01*
X125931099Y-81536052D01*
X125931099Y-81384927D01*
X125930599Y-81377008D01*
X125921261Y-81303336D01*
X125916964Y-81287172D01*
X125875128Y-81186419D01*
X125867478Y-81115836D01*
X125899202Y-81052322D01*
X125960228Y-81016041D01*
X125991495Y-81012100D01*
X127830080Y-81012100D01*
X127898201Y-81032102D01*
X127944694Y-81085758D01*
X127954798Y-81156032D01*
X127946533Y-81186211D01*
X127901289Y-81295709D01*
X127900240Y-81304069D01*
X127900240Y-81304070D01*
X127892894Y-81362634D01*
X127890600Y-81380917D01*
X127890600Y-81384854D01*
X127890599Y-81879600D01*
X127870597Y-81947721D01*
X127816941Y-81994214D01*
X127764599Y-82005600D01*
X127183215Y-82005600D01*
X127167976Y-82010075D01*
X127166771Y-82011465D01*
X127165100Y-82019148D01*
X127165100Y-84781485D01*
X127169575Y-84796724D01*
X127170965Y-84797929D01*
X127178648Y-84799600D01*
X128670984Y-84799600D01*
X128686223Y-84795125D01*
X128687428Y-84793735D01*
X128689099Y-84786052D01*
X128689099Y-83200100D01*
X128709101Y-83131979D01*
X128762757Y-83085486D01*
X128815099Y-83074100D01*
X129542129Y-83074101D01*
X129583781Y-83074101D01*
X129587714Y-83073602D01*
X129587721Y-83073602D01*
X129661492Y-83064250D01*
X129661494Y-83064249D01*
X129669859Y-83063189D01*
X129804381Y-83007331D01*
X129872191Y-82954637D01*
X130312138Y-82514689D01*
X130365288Y-82446109D01*
X130420911Y-82311491D01*
X130426278Y-82268708D01*
X130431110Y-82230191D01*
X130431110Y-82230187D01*
X130431600Y-82226283D01*
X130431601Y-81380919D01*
X130429555Y-81364774D01*
X130421750Y-81303208D01*
X130421749Y-81303206D01*
X130420689Y-81294841D01*
X130375669Y-81186419D01*
X130368019Y-81115836D01*
X130399743Y-81052321D01*
X130460770Y-81016041D01*
X130492036Y-81012100D01*
X140812506Y-81012100D01*
X140880627Y-81032102D01*
X140927120Y-81085758D01*
X140937224Y-81156032D01*
X140907730Y-81220612D01*
X140901617Y-81227179D01*
X140026742Y-82102053D01*
X139964432Y-82136077D01*
X139893616Y-82131012D01*
X139862086Y-82113784D01*
X139794305Y-82062985D01*
X139657916Y-82011855D01*
X139595734Y-82005100D01*
X138864466Y-82005100D01*
X138861069Y-82005469D01*
X138818669Y-82010075D01*
X138802284Y-82011855D01*
X138802073Y-82009909D01*
X138769127Y-82009909D01*
X138768916Y-82011855D01*
X138710131Y-82005469D01*
X138706734Y-82005100D01*
X137975466Y-82005100D01*
X137972069Y-82005469D01*
X137929669Y-82010075D01*
X137913284Y-82011855D01*
X137913073Y-82009909D01*
X137880127Y-82009909D01*
X137879916Y-82011855D01*
X137821131Y-82005469D01*
X137817734Y-82005100D01*
X137086466Y-82005100D01*
X137024284Y-82011855D01*
X136887895Y-82062985D01*
X136771339Y-82150339D01*
X136683985Y-82266895D01*
X136632855Y-82403284D01*
X136626100Y-82465466D01*
X136626100Y-83831734D01*
X136632855Y-83893916D01*
X136683985Y-84030305D01*
X136771339Y-84146861D01*
X136778519Y-84152242D01*
X136781695Y-84155418D01*
X136815721Y-84217730D01*
X136818600Y-84244513D01*
X136818600Y-84330500D01*
X136798598Y-84398621D01*
X136744942Y-84445114D01*
X136692600Y-84456500D01*
X134569394Y-84456500D01*
X134501273Y-84436498D01*
X134466181Y-84402771D01*
X134359357Y-84250211D01*
X134359355Y-84250208D01*
X134356198Y-84245700D01*
X134194300Y-84083802D01*
X134189792Y-84080645D01*
X134189789Y-84080643D01*
X134105891Y-84021897D01*
X134006749Y-83952477D01*
X134001767Y-83950154D01*
X134001762Y-83950151D01*
X133804225Y-83858039D01*
X133804224Y-83858039D01*
X133799243Y-83855716D01*
X133793935Y-83854294D01*
X133793933Y-83854293D01*
X133583402Y-83797881D01*
X133583400Y-83797881D01*
X133578087Y-83796457D01*
X133350000Y-83776502D01*
X133121913Y-83796457D01*
X133116600Y-83797881D01*
X133116598Y-83797881D01*
X132906067Y-83854293D01*
X132906065Y-83854294D01*
X132900757Y-83855716D01*
X132895776Y-83858039D01*
X132895775Y-83858039D01*
X132698238Y-83950151D01*
X132698233Y-83950154D01*
X132693251Y-83952477D01*
X132594109Y-84021897D01*
X132510211Y-84080643D01*
X132510208Y-84080645D01*
X132505700Y-84083802D01*
X132343802Y-84245700D01*
X132340645Y-84250208D01*
X132340643Y-84250211D01*
X132316042Y-84285345D01*
X132212477Y-84433251D01*
X132210154Y-84438233D01*
X132210151Y-84438238D01*
X132147118Y-84573414D01*
X132115716Y-84640757D01*
X132114294Y-84646065D01*
X132114293Y-84646067D01*
X132058320Y-84854960D01*
X132056457Y-84861913D01*
X132036502Y-85090000D01*
X132056457Y-85318087D01*
X132057881Y-85323400D01*
X132057881Y-85323402D01*
X132113821Y-85532169D01*
X132115716Y-85539243D01*
X132118039Y-85544224D01*
X132118039Y-85544225D01*
X132210151Y-85741762D01*
X132210154Y-85741767D01*
X132212477Y-85746749D01*
X132343802Y-85934300D01*
X132505700Y-86096198D01*
X132510208Y-86099355D01*
X132510211Y-86099357D01*
X132662771Y-86206181D01*
X132707099Y-86261638D01*
X132716500Y-86309394D01*
X132716500Y-92050805D01*
X132696498Y-92118926D01*
X132679595Y-92139900D01*
X132345039Y-92474456D01*
X132282727Y-92508482D01*
X132211912Y-92503417D01*
X132177938Y-92484311D01*
X132112911Y-92433048D01*
X132020856Y-92360478D01*
X132015745Y-92357789D01*
X132015742Y-92357787D01*
X131877170Y-92284881D01*
X131830735Y-92260450D01*
X131625569Y-92196745D01*
X131607026Y-92194550D01*
X131454831Y-92176536D01*
X131454824Y-92176536D01*
X131451144Y-92176100D01*
X130006198Y-92176100D01*
X129846772Y-92190749D01*
X129841210Y-92192318D01*
X129841208Y-92192318D01*
X129783256Y-92208662D01*
X129640009Y-92249062D01*
X129634832Y-92251615D01*
X129634827Y-92251617D01*
X129464681Y-92335525D01*
X129447335Y-92344079D01*
X129397542Y-92381261D01*
X129321815Y-92437809D01*
X129275202Y-92472616D01*
X129271288Y-92476850D01*
X129271286Y-92476852D01*
X129178991Y-92576697D01*
X129129376Y-92630370D01*
X129014740Y-92812057D01*
X128935134Y-93011592D01*
X128934008Y-93017252D01*
X128934007Y-93017256D01*
X128919875Y-93088305D01*
X128893223Y-93222293D01*
X128890411Y-93437104D01*
X128891390Y-93442801D01*
X128891390Y-93442802D01*
X128908937Y-93544919D01*
X128926792Y-93648830D01*
X129001148Y-93850380D01*
X129110988Y-94035006D01*
X129114794Y-94039346D01*
X129114797Y-94039350D01*
X129201707Y-94138451D01*
X129252635Y-94196523D01*
X129257170Y-94200098D01*
X129257171Y-94200099D01*
X129272810Y-94212428D01*
X129421344Y-94329522D01*
X129426455Y-94332211D01*
X129426458Y-94332213D01*
X129489464Y-94365362D01*
X129611465Y-94429550D01*
X129702910Y-94457944D01*
X129795089Y-94486566D01*
X129816631Y-94493255D01*
X129817537Y-94493362D01*
X129878621Y-94526339D01*
X129912943Y-94588488D01*
X129908217Y-94659327D01*
X129865942Y-94716365D01*
X129824154Y-94737128D01*
X129640009Y-94789062D01*
X129634832Y-94791615D01*
X129634827Y-94791617D01*
X129510709Y-94852826D01*
X129447335Y-94884079D01*
X129275202Y-95012616D01*
X129271288Y-95016850D01*
X129271286Y-95016852D01*
X129136042Y-95163159D01*
X129129376Y-95170370D01*
X129126296Y-95175251D01*
X129126294Y-95175254D01*
X129115265Y-95192735D01*
X129061999Y-95239673D01*
X129008703Y-95251500D01*
X124815813Y-95251500D01*
X124747692Y-95231498D01*
X124713994Y-95199671D01*
X124711212Y-95194994D01*
X124707403Y-95190650D01*
X124576993Y-95041947D01*
X124547116Y-94977543D01*
X124556802Y-94907210D01*
X124582630Y-94869774D01*
X127023377Y-92429028D01*
X129553353Y-89899052D01*
X129561639Y-89891512D01*
X129568118Y-89887400D01*
X129614744Y-89837748D01*
X129617498Y-89834907D01*
X129637235Y-89815170D01*
X129639715Y-89811973D01*
X129647420Y-89802951D01*
X129672259Y-89776500D01*
X129677686Y-89770721D01*
X129681505Y-89763775D01*
X129681507Y-89763772D01*
X129687448Y-89752966D01*
X129698299Y-89736447D01*
X129705858Y-89726701D01*
X129710714Y-89720441D01*
X129713859Y-89713172D01*
X129713862Y-89713168D01*
X129728274Y-89679863D01*
X129733491Y-89669213D01*
X129754795Y-89630460D01*
X129759833Y-89610837D01*
X129766237Y-89592134D01*
X129771133Y-89580821D01*
X129771134Y-89580817D01*
X129774281Y-89573545D01*
X129775521Y-89565719D01*
X129777611Y-89558524D01*
X129821294Y-89494188D01*
X129846971Y-89474235D01*
X129872191Y-89454637D01*
X130312138Y-89014689D01*
X130365288Y-88946109D01*
X130420911Y-88811491D01*
X130431600Y-88726283D01*
X130431601Y-87880919D01*
X130431067Y-87876701D01*
X130421750Y-87803208D01*
X130421749Y-87803206D01*
X130420689Y-87794841D01*
X130364831Y-87660319D01*
X130312137Y-87592509D01*
X129872189Y-87152562D01*
X129803609Y-87099412D01*
X129668991Y-87043789D01*
X129660631Y-87042740D01*
X129660630Y-87042740D01*
X129587691Y-87033590D01*
X129587687Y-87033590D01*
X129583783Y-87033100D01*
X129542499Y-87033100D01*
X128815100Y-87033099D01*
X128746979Y-87013097D01*
X128700486Y-86959441D01*
X128689100Y-86907099D01*
X128689100Y-85325715D01*
X128684625Y-85310476D01*
X128683235Y-85309271D01*
X128675552Y-85307600D01*
X127183215Y-85307600D01*
X127167976Y-85312075D01*
X127166771Y-85313465D01*
X127165100Y-85321148D01*
X127165100Y-88083484D01*
X127169575Y-88098723D01*
X127170965Y-88099928D01*
X127178648Y-88101599D01*
X127764600Y-88101599D01*
X127832721Y-88121601D01*
X127879214Y-88175257D01*
X127890600Y-88227597D01*
X127890599Y-88726281D01*
X127891098Y-88730214D01*
X127891098Y-88730221D01*
X127900325Y-88803007D01*
X127901511Y-88812359D01*
X127957369Y-88946881D01*
X127962536Y-88953530D01*
X127962537Y-88953532D01*
X127994362Y-88994486D01*
X128010063Y-89014691D01*
X128238889Y-89243517D01*
X128272915Y-89305829D01*
X128267850Y-89376644D01*
X128238889Y-89421707D01*
X124935575Y-92725020D01*
X124873263Y-92759046D01*
X124802447Y-92753981D01*
X124745612Y-92711434D01*
X124738195Y-92700348D01*
X124714168Y-92659961D01*
X124714163Y-92659954D01*
X124711212Y-92654994D01*
X124707409Y-92650658D01*
X124707405Y-92650652D01*
X124573372Y-92497818D01*
X124569565Y-92493477D01*
X124558999Y-92485147D01*
X124492911Y-92433048D01*
X124400856Y-92360478D01*
X124395745Y-92357789D01*
X124395742Y-92357787D01*
X124257170Y-92284881D01*
X124210735Y-92260450D01*
X124005569Y-92196745D01*
X123987026Y-92194550D01*
X123834831Y-92176536D01*
X123834824Y-92176536D01*
X123831144Y-92176100D01*
X122386198Y-92176100D01*
X122226772Y-92190749D01*
X122221210Y-92192318D01*
X122221208Y-92192318D01*
X122163256Y-92208662D01*
X122020009Y-92249062D01*
X122014832Y-92251615D01*
X122014827Y-92251617D01*
X121844681Y-92335525D01*
X121827335Y-92344079D01*
X121777542Y-92381261D01*
X121701815Y-92437809D01*
X121655202Y-92472616D01*
X121651288Y-92476850D01*
X121651286Y-92476852D01*
X121558991Y-92576697D01*
X121509376Y-92630370D01*
X121394740Y-92812057D01*
X121315134Y-93011592D01*
X121314008Y-93017252D01*
X121314007Y-93017256D01*
X121299875Y-93088305D01*
X121273223Y-93222293D01*
X121270411Y-93437104D01*
X121271390Y-93442801D01*
X121271390Y-93442802D01*
X121288937Y-93544919D01*
X121306792Y-93648830D01*
X121381148Y-93850380D01*
X121490988Y-94035006D01*
X121494794Y-94039346D01*
X121494797Y-94039350D01*
X121549116Y-94101288D01*
X121632635Y-94196523D01*
X121637173Y-94200101D01*
X121640486Y-94203244D01*
X121676134Y-94264642D01*
X121672929Y-94335566D01*
X121642854Y-94383741D01*
X121042047Y-94984548D01*
X121033761Y-94992088D01*
X121027282Y-94996200D01*
X121021857Y-95001977D01*
X120980657Y-95045851D01*
X120977902Y-95048693D01*
X120958165Y-95068430D01*
X120955685Y-95071627D01*
X120947982Y-95080647D01*
X120917714Y-95112879D01*
X120913895Y-95119825D01*
X120913893Y-95119828D01*
X120907952Y-95130634D01*
X120897101Y-95147153D01*
X120884686Y-95163159D01*
X120881541Y-95170428D01*
X120881538Y-95170432D01*
X120867126Y-95203737D01*
X120861909Y-95214387D01*
X120840605Y-95253140D01*
X120838634Y-95260815D01*
X120838634Y-95260816D01*
X120835567Y-95272762D01*
X120829163Y-95291466D01*
X120821119Y-95310055D01*
X120819880Y-95317878D01*
X120819877Y-95317888D01*
X120814201Y-95353724D01*
X120811795Y-95365344D01*
X120802772Y-95400489D01*
X120800800Y-95408170D01*
X120800800Y-95428424D01*
X120799249Y-95448134D01*
X120796080Y-95468143D01*
X120796826Y-95476035D01*
X120800241Y-95512161D01*
X120800800Y-95524019D01*
X120800800Y-106383133D01*
X120800273Y-106394316D01*
X120798598Y-106401809D01*
X120798847Y-106409735D01*
X120798847Y-106409736D01*
X120800738Y-106469886D01*
X120800800Y-106473845D01*
X120800800Y-106501756D01*
X120801297Y-106505690D01*
X120801297Y-106505691D01*
X120801305Y-106505756D01*
X120802238Y-106517593D01*
X120803627Y-106561789D01*
X120809278Y-106581239D01*
X120813287Y-106600600D01*
X120815826Y-106620697D01*
X120818745Y-106628068D01*
X120818745Y-106628070D01*
X120832104Y-106661812D01*
X120835949Y-106673042D01*
X120848282Y-106715493D01*
X120852315Y-106722312D01*
X120852317Y-106722317D01*
X120858593Y-106732928D01*
X120867288Y-106750676D01*
X120874748Y-106769517D01*
X120879410Y-106775933D01*
X120879410Y-106775934D01*
X120900736Y-106805287D01*
X120907252Y-106815207D01*
X120917527Y-106832580D01*
X120929758Y-106853262D01*
X120944079Y-106867583D01*
X120956919Y-106882616D01*
X120968828Y-106899007D01*
X120974934Y-106904058D01*
X121002905Y-106927198D01*
X121011684Y-106935188D01*
X121634216Y-107557720D01*
X121668242Y-107620032D01*
X121663177Y-107690847D01*
X121637646Y-107732344D01*
X121513693Y-107866436D01*
X121506692Y-107875561D01*
X121398269Y-108047401D01*
X121393048Y-108057649D01*
X121317757Y-108246367D01*
X121314488Y-108257403D01*
X121303383Y-108313230D01*
X121304535Y-108326106D01*
X121319691Y-108331000D01*
X123229100Y-108331000D01*
X123297221Y-108351002D01*
X123343714Y-108404658D01*
X123355100Y-108457000D01*
X123355100Y-109735285D01*
X123359575Y-109750524D01*
X123360965Y-109751729D01*
X123368648Y-109753400D01*
X123813081Y-109753400D01*
X123818870Y-109753134D01*
X123975336Y-109738757D01*
X123975484Y-109740366D01*
X124038559Y-109746841D01*
X124094053Y-109791124D01*
X124116900Y-109863480D01*
X124116900Y-110585500D01*
X124096898Y-110653621D01*
X124043242Y-110700114D01*
X123990900Y-110711500D01*
X122341866Y-110711500D01*
X122279684Y-110718255D01*
X122143295Y-110769385D01*
X122026739Y-110856739D01*
X121939385Y-110973295D01*
X121888255Y-111109684D01*
X121881500Y-111171866D01*
X121881500Y-112868134D01*
X121888255Y-112930316D01*
X121939385Y-113066705D01*
X122026739Y-113183261D01*
X122143295Y-113270615D01*
X122279684Y-113321745D01*
X122341866Y-113328500D01*
X123990900Y-113328500D01*
X124059021Y-113348502D01*
X124105514Y-113402158D01*
X124116900Y-113454500D01*
X124116900Y-113500500D01*
X124096898Y-113568621D01*
X124043242Y-113615114D01*
X123990900Y-113626500D01*
X122341866Y-113626500D01*
X122279684Y-113633255D01*
X122143295Y-113684385D01*
X122026739Y-113771739D01*
X121939385Y-113888295D01*
X121888255Y-114024684D01*
X121881500Y-114086866D01*
X121881500Y-115783134D01*
X121888255Y-115845316D01*
X121939385Y-115981705D01*
X122026739Y-116098261D01*
X122143295Y-116185615D01*
X122279684Y-116236745D01*
X122341866Y-116243500D01*
X122490452Y-116243500D01*
X122558573Y-116263502D01*
X122603932Y-116316920D01*
X122603982Y-116317093D01*
X122608019Y-116323919D01*
X122614293Y-116334528D01*
X122622988Y-116352276D01*
X122630448Y-116371117D01*
X122635110Y-116377533D01*
X122635110Y-116377534D01*
X122656436Y-116406887D01*
X122662952Y-116416807D01*
X122685458Y-116454862D01*
X122699779Y-116469183D01*
X122712619Y-116484216D01*
X122724528Y-116500607D01*
X122758605Y-116528798D01*
X122767374Y-116536778D01*
X123710697Y-117480102D01*
X123744721Y-117542412D01*
X123747600Y-117569195D01*
X123747600Y-119889000D01*
X123727598Y-119957121D01*
X123673942Y-120003614D01*
X123621600Y-120015000D01*
X120135600Y-120015000D01*
X120067479Y-119994998D01*
X120020986Y-119941342D01*
X120009600Y-119889000D01*
X120009600Y-108857722D01*
X121301954Y-108857722D01*
X121306298Y-108883003D01*
X121309278Y-108894123D01*
X121379603Y-109084748D01*
X121384553Y-109095126D01*
X121488439Y-109269743D01*
X121495205Y-109279055D01*
X121629174Y-109431818D01*
X121637517Y-109439735D01*
X121797078Y-109565523D01*
X121806735Y-109571794D01*
X121986540Y-109666394D01*
X121997174Y-109670799D01*
X122191218Y-109731051D01*
X122202472Y-109733443D01*
X122367398Y-109752964D01*
X122374801Y-109753400D01*
X122828985Y-109753400D01*
X122844224Y-109748925D01*
X122845429Y-109747535D01*
X122847100Y-109739852D01*
X122847100Y-108857115D01*
X122842625Y-108841876D01*
X122841235Y-108840671D01*
X122833552Y-108839000D01*
X121316852Y-108839000D01*
X121303890Y-108842806D01*
X121301954Y-108857722D01*
X120009600Y-108857722D01*
X120009600Y-101202223D01*
X120009602Y-101201453D01*
X120009900Y-101152702D01*
X120010076Y-101123879D01*
X120001950Y-101095447D01*
X119998372Y-101078685D01*
X119995452Y-101058298D01*
X119994180Y-101049413D01*
X119983551Y-101026036D01*
X119977104Y-101008513D01*
X119972516Y-100992462D01*
X119970049Y-100983829D01*
X119965256Y-100976232D01*
X119954270Y-100958820D01*
X119946130Y-100943735D01*
X119943664Y-100938311D01*
X119933892Y-100916818D01*
X119917130Y-100897365D01*
X119906027Y-100882361D01*
X119892324Y-100860642D01*
X119885599Y-100854703D01*
X119885596Y-100854699D01*
X119870162Y-100841068D01*
X119858118Y-100828876D01*
X119844673Y-100813273D01*
X119844670Y-100813271D01*
X119838813Y-100806473D01*
X119825109Y-100797590D01*
X119817265Y-100792506D01*
X119802391Y-100781215D01*
X119789883Y-100770169D01*
X119789882Y-100770168D01*
X119783149Y-100764222D01*
X119756387Y-100751657D01*
X119741409Y-100743337D01*
X119724117Y-100732129D01*
X119724112Y-100732127D01*
X119716585Y-100727248D01*
X119707992Y-100724678D01*
X119707987Y-100724676D01*
X119691980Y-100719889D01*
X119674536Y-100713228D01*
X119659424Y-100706133D01*
X119659422Y-100706132D01*
X119651300Y-100702319D01*
X119642433Y-100700938D01*
X119642432Y-100700938D01*
X119631578Y-100699248D01*
X119622083Y-100697770D01*
X119605368Y-100693987D01*
X119585634Y-100688085D01*
X119585628Y-100688084D01*
X119577034Y-100685514D01*
X119568063Y-100685459D01*
X119568062Y-100685459D01*
X119558003Y-100685398D01*
X119542594Y-100685304D01*
X119541811Y-100685271D01*
X119540714Y-100685100D01*
X119509723Y-100685100D01*
X119508953Y-100685098D01*
X119435315Y-100684648D01*
X119435314Y-100684648D01*
X119431379Y-100684624D01*
X119430035Y-100685008D01*
X119428690Y-100685100D01*
X117385600Y-100685100D01*
X117317479Y-100665098D01*
X117270986Y-100611442D01*
X117259600Y-100559100D01*
X117259600Y-88722273D01*
X123391101Y-88722273D01*
X123391601Y-88730192D01*
X123400939Y-88803864D01*
X123405235Y-88820025D01*
X123454573Y-88938843D01*
X123462973Y-88953276D01*
X123508029Y-89011257D01*
X123513224Y-89017144D01*
X123947516Y-89451436D01*
X123953490Y-89456701D01*
X124012176Y-89502182D01*
X124026648Y-89510576D01*
X124145550Y-89559706D01*
X124161693Y-89563971D01*
X124234548Y-89573110D01*
X124242393Y-89573600D01*
X124388985Y-89573600D01*
X124404224Y-89569125D01*
X124405429Y-89567735D01*
X124407100Y-89560052D01*
X124407100Y-89555484D01*
X124915100Y-89555484D01*
X124919575Y-89570723D01*
X124920965Y-89571928D01*
X124928648Y-89573599D01*
X125079773Y-89573599D01*
X125087692Y-89573099D01*
X125161364Y-89563761D01*
X125177525Y-89559465D01*
X125296343Y-89510127D01*
X125310776Y-89501727D01*
X125368757Y-89456671D01*
X125374644Y-89451476D01*
X125808936Y-89017184D01*
X125814201Y-89011210D01*
X125859682Y-88952524D01*
X125868076Y-88938052D01*
X125917206Y-88819150D01*
X125921471Y-88803007D01*
X125930610Y-88730152D01*
X125931100Y-88722307D01*
X125931100Y-88575715D01*
X125926625Y-88560476D01*
X125925235Y-88559271D01*
X125917552Y-88557600D01*
X124933215Y-88557600D01*
X124917976Y-88562075D01*
X124916771Y-88563465D01*
X124915100Y-88571148D01*
X124915100Y-89555484D01*
X124407100Y-89555484D01*
X124407100Y-88575715D01*
X124402625Y-88560476D01*
X124401235Y-88559271D01*
X124393552Y-88557600D01*
X123409216Y-88557600D01*
X123393977Y-88562075D01*
X123392772Y-88563465D01*
X123391101Y-88571148D01*
X123391101Y-88722273D01*
X117259600Y-88722273D01*
X117259600Y-88031485D01*
X123391100Y-88031485D01*
X123395575Y-88046724D01*
X123396965Y-88047929D01*
X123404648Y-88049600D01*
X124388985Y-88049600D01*
X124404224Y-88045125D01*
X124405429Y-88043735D01*
X124407100Y-88036052D01*
X124407100Y-88031485D01*
X124915100Y-88031485D01*
X124919575Y-88046724D01*
X124920965Y-88047929D01*
X124928648Y-88049600D01*
X125871887Y-88049600D01*
X125940008Y-88069602D01*
X125954400Y-88080376D01*
X125976965Y-88099929D01*
X125984648Y-88101600D01*
X126638985Y-88101600D01*
X126654224Y-88097125D01*
X126655429Y-88095735D01*
X126657100Y-88088052D01*
X126657100Y-85325715D01*
X126652625Y-85310476D01*
X126651235Y-85309271D01*
X126643552Y-85307600D01*
X125151216Y-85307600D01*
X125135977Y-85312075D01*
X125134772Y-85313465D01*
X125133101Y-85321148D01*
X125133101Y-86907600D01*
X125113099Y-86975721D01*
X125059443Y-87022214D01*
X125007101Y-87033600D01*
X124933215Y-87033600D01*
X124917976Y-87038075D01*
X124916771Y-87039465D01*
X124915100Y-87047148D01*
X124915100Y-88031485D01*
X124407100Y-88031485D01*
X124407100Y-87051716D01*
X124402625Y-87036477D01*
X124401235Y-87035272D01*
X124393552Y-87033601D01*
X124242427Y-87033601D01*
X124234508Y-87034101D01*
X124160836Y-87043439D01*
X124144675Y-87047735D01*
X124025857Y-87097073D01*
X124011424Y-87105473D01*
X123953443Y-87150529D01*
X123947556Y-87155724D01*
X123513264Y-87590016D01*
X123507999Y-87595990D01*
X123462518Y-87654676D01*
X123454124Y-87669148D01*
X123404994Y-87788050D01*
X123400729Y-87804193D01*
X123391590Y-87877048D01*
X123391100Y-87884893D01*
X123391100Y-88031485D01*
X117259600Y-88031485D01*
X117259600Y-82222273D01*
X123391101Y-82222273D01*
X123391601Y-82230192D01*
X123400939Y-82303864D01*
X123405235Y-82320025D01*
X123454573Y-82438843D01*
X123462973Y-82453276D01*
X123508029Y-82511257D01*
X123513224Y-82517144D01*
X123947516Y-82951436D01*
X123953490Y-82956701D01*
X124012176Y-83002182D01*
X124026648Y-83010576D01*
X124145550Y-83059706D01*
X124161693Y-83063971D01*
X124234548Y-83073110D01*
X124242393Y-83073600D01*
X124388985Y-83073600D01*
X124404224Y-83069125D01*
X124405429Y-83067735D01*
X124407100Y-83060052D01*
X124407100Y-83055484D01*
X124915100Y-83055484D01*
X124919575Y-83070723D01*
X124920965Y-83071928D01*
X124928648Y-83073599D01*
X125007100Y-83073599D01*
X125075221Y-83093601D01*
X125121714Y-83147257D01*
X125133100Y-83199599D01*
X125133100Y-84781485D01*
X125137575Y-84796724D01*
X125138965Y-84797929D01*
X125146648Y-84799600D01*
X126638985Y-84799600D01*
X126654224Y-84795125D01*
X126655429Y-84793735D01*
X126657100Y-84786052D01*
X126657100Y-82023716D01*
X126652625Y-82008477D01*
X126651235Y-82007272D01*
X126643552Y-82005601D01*
X125989215Y-82005601D01*
X125973977Y-82010075D01*
X125970479Y-82014112D01*
X125910754Y-82052496D01*
X125875254Y-82057600D01*
X124933215Y-82057600D01*
X124917976Y-82062075D01*
X124916771Y-82063465D01*
X124915100Y-82071148D01*
X124915100Y-83055484D01*
X124407100Y-83055484D01*
X124407100Y-82075715D01*
X124402625Y-82060476D01*
X124401235Y-82059271D01*
X124393552Y-82057600D01*
X123409216Y-82057600D01*
X123393977Y-82062075D01*
X123392772Y-82063465D01*
X123391101Y-82071148D01*
X123391101Y-82222273D01*
X117259600Y-82222273D01*
X117259600Y-81138100D01*
X117279602Y-81069979D01*
X117333258Y-81023486D01*
X117385600Y-81012100D01*
X123330620Y-81012100D01*
X123398741Y-81032102D01*
G37*
G04 #@! TD.AperFunction*
G04 #@! TA.AperFunction,Conductor*
G36*
X129074508Y-96538502D02*
G01*
X129108206Y-96570329D01*
X129110988Y-96575006D01*
X129114789Y-96579340D01*
X129114791Y-96579343D01*
X129196496Y-96672509D01*
X129252635Y-96736523D01*
X129421344Y-96869522D01*
X129426455Y-96872211D01*
X129426458Y-96872213D01*
X129500410Y-96911121D01*
X129611465Y-96969550D01*
X129816631Y-97033255D01*
X129817537Y-97033362D01*
X129878621Y-97066339D01*
X129912943Y-97128488D01*
X129908217Y-97199327D01*
X129865942Y-97256365D01*
X129824154Y-97277128D01*
X129640009Y-97329062D01*
X129634832Y-97331615D01*
X129634827Y-97331617D01*
X129459185Y-97418235D01*
X129447335Y-97424079D01*
X129275202Y-97552616D01*
X129271288Y-97556850D01*
X129271286Y-97556852D01*
X129251906Y-97577818D01*
X129129376Y-97710370D01*
X129014740Y-97892057D01*
X128935134Y-98091592D01*
X128934008Y-98097252D01*
X128934007Y-98097256D01*
X128917074Y-98182386D01*
X128893223Y-98302293D01*
X128893147Y-98308068D01*
X128893147Y-98308072D01*
X128891738Y-98415745D01*
X128890411Y-98517104D01*
X128891390Y-98522801D01*
X128891390Y-98522802D01*
X128915581Y-98663586D01*
X128926792Y-98728830D01*
X129001148Y-98930380D01*
X129110988Y-99115006D01*
X129114794Y-99119346D01*
X129114797Y-99119350D01*
X129229811Y-99250497D01*
X129252635Y-99276523D01*
X129421344Y-99409522D01*
X129426455Y-99412211D01*
X129426458Y-99412213D01*
X129492686Y-99447057D01*
X129611465Y-99509550D01*
X129751202Y-99552939D01*
X129777537Y-99561116D01*
X129816631Y-99573255D01*
X129817537Y-99573362D01*
X129878621Y-99606339D01*
X129912943Y-99668488D01*
X129908217Y-99739327D01*
X129865942Y-99796365D01*
X129824154Y-99817128D01*
X129640009Y-99869062D01*
X129634832Y-99871615D01*
X129634827Y-99871617D01*
X129517571Y-99929442D01*
X129447335Y-99964079D01*
X129402904Y-99997257D01*
X129311273Y-100065681D01*
X129275202Y-100092616D01*
X129271288Y-100096850D01*
X129271286Y-100096852D01*
X129251906Y-100117818D01*
X129129376Y-100250370D01*
X129126296Y-100255251D01*
X129126294Y-100255254D01*
X129115265Y-100272735D01*
X129061999Y-100319673D01*
X129008703Y-100331500D01*
X124815813Y-100331500D01*
X124747692Y-100311498D01*
X124713994Y-100279671D01*
X124711212Y-100274994D01*
X124707403Y-100270650D01*
X124573372Y-100117818D01*
X124569565Y-100113477D01*
X124534711Y-100086000D01*
X124493737Y-100053699D01*
X124400856Y-99980478D01*
X124395745Y-99977789D01*
X124395742Y-99977787D01*
X124260346Y-99906552D01*
X124210735Y-99880450D01*
X124005569Y-99816745D01*
X124003844Y-99816541D01*
X123942523Y-99783432D01*
X123908204Y-99721282D01*
X123912935Y-99650443D01*
X123955212Y-99593407D01*
X123996996Y-99572648D01*
X124176447Y-99522038D01*
X124187194Y-99517913D01*
X124369422Y-99428048D01*
X124379230Y-99422038D01*
X124542038Y-99300464D01*
X124550578Y-99292775D01*
X124688507Y-99143564D01*
X124695508Y-99134439D01*
X124803931Y-98962599D01*
X124809152Y-98952351D01*
X124884443Y-98763633D01*
X124887712Y-98752597D01*
X124898817Y-98696770D01*
X124897665Y-98683894D01*
X124882509Y-98679000D01*
X122973100Y-98679000D01*
X122904979Y-98658998D01*
X122858486Y-98605342D01*
X122847100Y-98553000D01*
X122847100Y-98297000D01*
X122867102Y-98228879D01*
X122920758Y-98182386D01*
X122973100Y-98171000D01*
X124885348Y-98171000D01*
X124898310Y-98167194D01*
X124900246Y-98152278D01*
X124895902Y-98126997D01*
X124892922Y-98115877D01*
X124822597Y-97925252D01*
X124817647Y-97914874D01*
X124713761Y-97740257D01*
X124706995Y-97730945D01*
X124573026Y-97578182D01*
X124564683Y-97570265D01*
X124405122Y-97444477D01*
X124395465Y-97438206D01*
X124215660Y-97343606D01*
X124205026Y-97339201D01*
X124010977Y-97278947D01*
X124005010Y-97277679D01*
X123942537Y-97243949D01*
X123908218Y-97181799D01*
X123912947Y-97110960D01*
X123955224Y-97053923D01*
X123997006Y-97033165D01*
X124182191Y-96980938D01*
X124187368Y-96978385D01*
X124187373Y-96978383D01*
X124369686Y-96888475D01*
X124374865Y-96885921D01*
X124546998Y-96757384D01*
X124566282Y-96736523D01*
X124688905Y-96603870D01*
X124688907Y-96603867D01*
X124692824Y-96599630D01*
X124695907Y-96594745D01*
X124706935Y-96577265D01*
X124760201Y-96530327D01*
X124813497Y-96518500D01*
X129006387Y-96518500D01*
X129074508Y-96538502D01*
G37*
G04 #@! TD.AperFunction*
M02*
