G04 #@! TF.GenerationSoftware,KiCad,Pcbnew,(6.0.5)*
G04 #@! TF.CreationDate,2022-12-14T22:57:53+01:00*
G04 #@! TF.ProjectId,MDCC_512k,4d444343-5f35-4313-926b-2e6b69636164,C*
G04 #@! TF.SameCoordinates,Original*
G04 #@! TF.FileFunction,Legend,Top*
G04 #@! TF.FilePolarity,Positive*
%FSLAX46Y46*%
G04 Gerber Fmt 4.6, Leading zero omitted, Abs format (unit mm)*
G04 Created by KiCad (PCBNEW (6.0.5)) date 2022-12-14 22:57:53*
%MOMM*%
%LPD*%
G01*
G04 APERTURE LIST*
G04 Aperture macros list*
%AMRoundRect*
0 Rectangle with rounded corners*
0 $1 Rounding radius*
0 $2 $3 $4 $5 $6 $7 $8 $9 X,Y pos of 4 corners*
0 Add a 4 corners polygon primitive as box body*
4,1,4,$2,$3,$4,$5,$6,$7,$8,$9,$2,$3,0*
0 Add four circle primitives for the rounded corners*
1,1,$1+$1,$2,$3*
1,1,$1+$1,$4,$5*
1,1,$1+$1,$6,$7*
1,1,$1+$1,$8,$9*
0 Add four rect primitives between the rounded corners*
20,1,$1+$1,$2,$3,$4,$5,0*
20,1,$1+$1,$4,$5,$6,$7,0*
20,1,$1+$1,$6,$7,$8,$9,0*
20,1,$1+$1,$8,$9,$2,$3,0*%
%AMFreePoly0*
4,1,17,0.435971,0.836021,0.836021,0.435971,0.850900,0.400050,0.850900,-0.400050,0.836021,-0.435971,0.435971,-0.836021,0.400050,-0.850900,-0.400050,-0.850900,-0.435971,-0.836021,-0.836021,-0.435971,-0.850900,-0.400050,-0.850900,0.400050,-0.836021,0.435971,-0.435971,0.836021,-0.400050,0.850900,0.400050,0.850900,0.435971,0.836021,0.435971,0.836021,$1*%
%AMFreePoly1*
4,1,17,0.416921,0.797921,0.797921,0.416921,0.812800,0.381000,0.812800,-0.381000,0.797921,-0.416921,0.416921,-0.797921,0.381000,-0.812800,-0.381000,-0.812800,-0.416921,-0.797921,-0.797921,-0.416921,-0.812800,-0.381000,-0.812800,0.381000,-0.797921,0.416921,-0.416921,0.797921,-0.381000,0.812800,0.381000,0.812800,0.416921,0.797921,0.416921,0.797921,$1*%
G04 Aperture macros list end*
%ADD10C,0.254000*%
%ADD11C,0.251460*%
%ADD12C,0.289560*%
%ADD13C,0.381000*%
%ADD14C,0.150000*%
%ADD15C,0.171450*%
%ADD16C,0.137160*%
%ADD17C,0.175260*%
%ADD18C,0.152400*%
%ADD19C,0.120000*%
%ADD20C,0.203200*%
%ADD21O,1.422400X2.743200*%
%ADD22C,5.000000*%
%ADD23RoundRect,0.431800X-0.381000X-2.794000X0.381000X-2.794000X0.381000X2.794000X-0.381000X2.794000X0*%
%ADD24R,1.600000X1.600000*%
%ADD25O,1.600000X1.600000*%
%ADD26RoundRect,0.050800X-1.270000X-2.540000X1.270000X-2.540000X1.270000X2.540000X-1.270000X2.540000X0*%
%ADD27O,2.743200X1.422400*%
%ADD28C,1.600000*%
%ADD29FreePoly0,0.000000*%
%ADD30FreePoly1,270.000000*%
G04 APERTURE END LIST*
D10*
X139611118Y-106643558D02*
G75*
G03*
X141516100Y-105373600I529182J1269958D01*
G01*
X141516100Y-105373600D02*
G75*
G03*
X140246100Y-104103600I-1270000J0D01*
G01*
X139611100Y-99023600D02*
X139611100Y-104103600D01*
X139611100Y-104103600D02*
X140246100Y-104103600D01*
X139611100Y-111723600D02*
X139611100Y-106643600D01*
D11*
X124841544Y-91413215D02*
X124366564Y-90734672D01*
X124027292Y-91413215D02*
X124027292Y-89988275D01*
X124570127Y-89988275D01*
X124705835Y-90056130D01*
X124773690Y-90123984D01*
X124841544Y-90259692D01*
X124841544Y-90463255D01*
X124773690Y-90598964D01*
X124705835Y-90666818D01*
X124570127Y-90734672D01*
X124027292Y-90734672D01*
X125452232Y-90666818D02*
X125927212Y-90666818D01*
X126130775Y-91413215D02*
X125452232Y-91413215D01*
X125452232Y-89988275D01*
X126130775Y-89988275D01*
X126673610Y-91345361D02*
X126877172Y-91413215D01*
X127216444Y-91413215D01*
X127352152Y-91345361D01*
X127420007Y-91277507D01*
X127487861Y-91141798D01*
X127487861Y-91006090D01*
X127420007Y-90870381D01*
X127352152Y-90802527D01*
X127216444Y-90734672D01*
X126945027Y-90666818D01*
X126809318Y-90598964D01*
X126741464Y-90531110D01*
X126673610Y-90395401D01*
X126673610Y-90259692D01*
X126741464Y-90123984D01*
X126809318Y-90056130D01*
X126945027Y-89988275D01*
X127284298Y-89988275D01*
X127487861Y-90056130D01*
X128098550Y-90666818D02*
X128573530Y-90666818D01*
X128777092Y-91413215D02*
X128098550Y-91413215D01*
X128098550Y-89988275D01*
X128777092Y-89988275D01*
X129184218Y-89988275D02*
X129998470Y-89988275D01*
X129591344Y-91413215D02*
X129591344Y-89988275D01*
D12*
X137014990Y-90774132D02*
X137014990Y-89133292D01*
X137561936Y-90305321D01*
X138108883Y-89133292D01*
X138108883Y-90774132D01*
X138812100Y-90305321D02*
X139593453Y-90305321D01*
X138655830Y-90774132D02*
X139202776Y-89133292D01*
X139749723Y-90774132D01*
X141156157Y-89211428D02*
X140999887Y-89133292D01*
X140765481Y-89133292D01*
X140531075Y-89211428D01*
X140374805Y-89367698D01*
X140296670Y-89523968D01*
X140218534Y-89836509D01*
X140218534Y-90070915D01*
X140296670Y-90383456D01*
X140374805Y-90539727D01*
X140531075Y-90695997D01*
X140765481Y-90774132D01*
X140921752Y-90774132D01*
X141156157Y-90695997D01*
X141234293Y-90617862D01*
X141234293Y-90070915D01*
X140921752Y-90070915D01*
X141937510Y-90774132D02*
X141937510Y-89133292D01*
X143656485Y-90617862D02*
X143578350Y-90695997D01*
X143343944Y-90774132D01*
X143187674Y-90774132D01*
X142953268Y-90695997D01*
X142796997Y-90539727D01*
X142718862Y-90383456D01*
X142640727Y-90070915D01*
X142640727Y-89836509D01*
X142718862Y-89523968D01*
X142796997Y-89367698D01*
X142953268Y-89211428D01*
X143187674Y-89133292D01*
X143343944Y-89133292D01*
X143578350Y-89211428D01*
X143656485Y-89289563D01*
X145609866Y-90774132D02*
X145609866Y-89133292D01*
X146000542Y-89133292D01*
X146234948Y-89211428D01*
X146391218Y-89367698D01*
X146469354Y-89523968D01*
X146547489Y-89836509D01*
X146547489Y-90070915D01*
X146469354Y-90383456D01*
X146391218Y-90539727D01*
X146234948Y-90695997D01*
X146000542Y-90774132D01*
X145609866Y-90774132D01*
X147250706Y-89914645D02*
X147797653Y-89914645D01*
X148032058Y-90774132D02*
X147250706Y-90774132D01*
X147250706Y-89133292D01*
X148032058Y-89133292D01*
X148657140Y-90695997D02*
X148891546Y-90774132D01*
X149282222Y-90774132D01*
X149438493Y-90695997D01*
X149516628Y-90617862D01*
X149594763Y-90461591D01*
X149594763Y-90305321D01*
X149516628Y-90149050D01*
X149438493Y-90070915D01*
X149282222Y-89992780D01*
X148969681Y-89914645D01*
X148813411Y-89836509D01*
X148735275Y-89758374D01*
X148657140Y-89602104D01*
X148657140Y-89445833D01*
X148735275Y-89289563D01*
X148813411Y-89211428D01*
X148969681Y-89133292D01*
X149360357Y-89133292D01*
X149594763Y-89211428D01*
X150297980Y-90774132D02*
X150297980Y-89133292D01*
X151235603Y-90774132D02*
X150532386Y-89836509D01*
X151235603Y-89133292D02*
X150297980Y-90070915D01*
X137952613Y-93259614D02*
X137874477Y-93337749D01*
X137640072Y-93415884D01*
X137483801Y-93415884D01*
X137249395Y-93337749D01*
X137093125Y-93181479D01*
X137014990Y-93025208D01*
X136936854Y-92712667D01*
X136936854Y-92478261D01*
X137014990Y-92165720D01*
X137093125Y-92009450D01*
X137249395Y-91853180D01*
X137483801Y-91775044D01*
X137640072Y-91775044D01*
X137874477Y-91853180D01*
X137952613Y-91931315D01*
X138968371Y-91775044D02*
X139280912Y-91775044D01*
X139437182Y-91853180D01*
X139593453Y-92009450D01*
X139671588Y-92321991D01*
X139671588Y-92868938D01*
X139593453Y-93181479D01*
X139437182Y-93337749D01*
X139280912Y-93415884D01*
X138968371Y-93415884D01*
X138812100Y-93337749D01*
X138655830Y-93181479D01*
X138577694Y-92868938D01*
X138577694Y-92321991D01*
X138655830Y-92009450D01*
X138812100Y-91853180D01*
X138968371Y-91775044D01*
X140374805Y-93415884D02*
X140374805Y-91775044D01*
X140921752Y-92947073D01*
X141468698Y-91775044D01*
X141468698Y-93415884D01*
X142250051Y-93415884D02*
X142250051Y-91775044D01*
X142875133Y-91775044D01*
X143031403Y-91853180D01*
X143109538Y-91931315D01*
X143187674Y-92087585D01*
X143187674Y-92321991D01*
X143109538Y-92478261D01*
X143031403Y-92556397D01*
X142875133Y-92634532D01*
X142250051Y-92634532D01*
X143812755Y-92947073D02*
X144594108Y-92947073D01*
X143656485Y-93415884D02*
X144203432Y-91775044D01*
X144750378Y-93415884D01*
X145062919Y-91775044D02*
X146000542Y-91775044D01*
X145531731Y-93415884D02*
X145531731Y-91775044D01*
X146547489Y-93415884D02*
X146547489Y-91775044D01*
X147875788Y-92556397D02*
X148110194Y-92634532D01*
X148188329Y-92712667D01*
X148266464Y-92868938D01*
X148266464Y-93103343D01*
X148188329Y-93259614D01*
X148110194Y-93337749D01*
X147953923Y-93415884D01*
X147328841Y-93415884D01*
X147328841Y-91775044D01*
X147875788Y-91775044D01*
X148032058Y-91853180D01*
X148110194Y-91931315D01*
X148188329Y-92087585D01*
X148188329Y-92243856D01*
X148110194Y-92400126D01*
X148032058Y-92478261D01*
X147875788Y-92556397D01*
X147328841Y-92556397D01*
X149751034Y-93415884D02*
X148969681Y-93415884D01*
X148969681Y-91775044D01*
X150297980Y-92556397D02*
X150844927Y-92556397D01*
X151079333Y-93415884D02*
X150297980Y-93415884D01*
X150297980Y-91775044D01*
X151079333Y-91775044D01*
X137952613Y-95901366D02*
X137874477Y-95979501D01*
X137640072Y-96057636D01*
X137483801Y-96057636D01*
X137249395Y-95979501D01*
X137093125Y-95823231D01*
X137014990Y-95666960D01*
X136936854Y-95354419D01*
X136936854Y-95120013D01*
X137014990Y-94807472D01*
X137093125Y-94651202D01*
X137249395Y-94494932D01*
X137483801Y-94416796D01*
X137640072Y-94416796D01*
X137874477Y-94494932D01*
X137952613Y-94573067D01*
X139515317Y-96057636D02*
X138577694Y-96057636D01*
X139046506Y-96057636D02*
X139046506Y-94416796D01*
X138890235Y-94651202D01*
X138733965Y-94807472D01*
X138577694Y-94885608D01*
X140140399Y-94573067D02*
X140218534Y-94494932D01*
X140374805Y-94416796D01*
X140765481Y-94416796D01*
X140921752Y-94494932D01*
X140999887Y-94573067D01*
X141078022Y-94729337D01*
X141078022Y-94885608D01*
X140999887Y-95120013D01*
X140062264Y-96057636D01*
X141078022Y-96057636D01*
X142015645Y-95120013D02*
X141859374Y-95041878D01*
X141781239Y-94963743D01*
X141703104Y-94807472D01*
X141703104Y-94729337D01*
X141781239Y-94573067D01*
X141859374Y-94494932D01*
X142015645Y-94416796D01*
X142328186Y-94416796D01*
X142484456Y-94494932D01*
X142562592Y-94573067D01*
X142640727Y-94729337D01*
X142640727Y-94807472D01*
X142562592Y-94963743D01*
X142484456Y-95041878D01*
X142328186Y-95120013D01*
X142015645Y-95120013D01*
X141859374Y-95198149D01*
X141781239Y-95276284D01*
X141703104Y-95432554D01*
X141703104Y-95745095D01*
X141781239Y-95901366D01*
X141859374Y-95979501D01*
X142015645Y-96057636D01*
X142328186Y-96057636D01*
X142484456Y-95979501D01*
X142562592Y-95901366D01*
X142640727Y-95745095D01*
X142640727Y-95432554D01*
X142562592Y-95276284D01*
X142484456Y-95198149D01*
X142328186Y-95120013D01*
X145531731Y-95901366D02*
X145453595Y-95979501D01*
X145219190Y-96057636D01*
X145062919Y-96057636D01*
X144828514Y-95979501D01*
X144672243Y-95823231D01*
X144594108Y-95666960D01*
X144515973Y-95354419D01*
X144515973Y-95120013D01*
X144594108Y-94807472D01*
X144672243Y-94651202D01*
X144828514Y-94494932D01*
X145062919Y-94416796D01*
X145219190Y-94416796D01*
X145453595Y-94494932D01*
X145531731Y-94573067D01*
X146156813Y-95588825D02*
X146938165Y-95588825D01*
X146000542Y-96057636D02*
X146547489Y-94416796D01*
X147094435Y-96057636D01*
X148579005Y-96057636D02*
X148032058Y-95276284D01*
X147641382Y-96057636D02*
X147641382Y-94416796D01*
X148266464Y-94416796D01*
X148422734Y-94494932D01*
X148500870Y-94573067D01*
X148579005Y-94729337D01*
X148579005Y-94963743D01*
X148500870Y-95120013D01*
X148422734Y-95198149D01*
X148266464Y-95276284D01*
X147641382Y-95276284D01*
X149047816Y-94416796D02*
X149985439Y-94416796D01*
X149516628Y-96057636D02*
X149516628Y-94416796D01*
X151470009Y-96057636D02*
X150923062Y-95276284D01*
X150532386Y-96057636D02*
X150532386Y-94416796D01*
X151157468Y-94416796D01*
X151313738Y-94494932D01*
X151391874Y-94573067D01*
X151470009Y-94729337D01*
X151470009Y-94963743D01*
X151391874Y-95120013D01*
X151313738Y-95198149D01*
X151157468Y-95276284D01*
X150532386Y-95276284D01*
X152173226Y-96057636D02*
X152173226Y-94416796D01*
X152954578Y-96057636D02*
X152954578Y-94416796D01*
X153345254Y-94416796D01*
X153579660Y-94494932D01*
X153735931Y-94651202D01*
X153814066Y-94807472D01*
X153892201Y-95120013D01*
X153892201Y-95354419D01*
X153814066Y-95666960D01*
X153735931Y-95823231D01*
X153579660Y-95979501D01*
X153345254Y-96057636D01*
X152954578Y-96057636D01*
X155454906Y-94494932D02*
X155298635Y-94416796D01*
X155064230Y-94416796D01*
X154829824Y-94494932D01*
X154673554Y-94651202D01*
X154595418Y-94807472D01*
X154517283Y-95120013D01*
X154517283Y-95354419D01*
X154595418Y-95666960D01*
X154673554Y-95823231D01*
X154829824Y-95979501D01*
X155064230Y-96057636D01*
X155220500Y-96057636D01*
X155454906Y-95979501D01*
X155533041Y-95901366D01*
X155533041Y-95354419D01*
X155220500Y-95354419D01*
X156236258Y-95198149D02*
X156783205Y-95198149D01*
X157017611Y-96057636D02*
X156236258Y-96057636D01*
X156236258Y-94416796D01*
X157017611Y-94416796D01*
D13*
X152852361Y-100285919D02*
X152955171Y-100183110D01*
X153160790Y-100080300D01*
X153674838Y-100080300D01*
X153880457Y-100183110D01*
X153983266Y-100285919D01*
X154086076Y-100491538D01*
X154086076Y-100697157D01*
X153983266Y-101005586D01*
X152749552Y-102239300D01*
X154086076Y-102239300D01*
X154805742Y-100080300D02*
X156245076Y-100080300D01*
X155319790Y-102239300D01*
X158301266Y-102033681D02*
X158198457Y-102136490D01*
X157890028Y-102239300D01*
X157684409Y-102239300D01*
X157375980Y-102136490D01*
X157170361Y-101930871D01*
X157067552Y-101725252D01*
X156964742Y-101314014D01*
X156964742Y-101005586D01*
X157067552Y-100594348D01*
X157170361Y-100388729D01*
X157375980Y-100183110D01*
X157684409Y-100080300D01*
X157890028Y-100080300D01*
X158198457Y-100183110D01*
X158301266Y-100285919D01*
X160254647Y-100080300D02*
X159226552Y-100080300D01*
X159123742Y-101108395D01*
X159226552Y-101005586D01*
X159432171Y-100902776D01*
X159946219Y-100902776D01*
X160151838Y-101005586D01*
X160254647Y-101108395D01*
X160357457Y-101314014D01*
X160357457Y-101828062D01*
X160254647Y-102033681D01*
X160151838Y-102136490D01*
X159946219Y-102239300D01*
X159432171Y-102239300D01*
X159226552Y-102136490D01*
X159123742Y-102033681D01*
X162413647Y-102239300D02*
X161179933Y-102239300D01*
X161796790Y-102239300D02*
X161796790Y-100080300D01*
X161591171Y-100388729D01*
X161385552Y-100594348D01*
X161179933Y-100697157D01*
X163236123Y-100285919D02*
X163338933Y-100183110D01*
X163544552Y-100080300D01*
X164058600Y-100080300D01*
X164264219Y-100183110D01*
X164367028Y-100285919D01*
X164469838Y-100491538D01*
X164469838Y-100697157D01*
X164367028Y-101005586D01*
X163133314Y-102239300D01*
X164469838Y-102239300D01*
X144421980Y-103761909D02*
X144524790Y-103659100D01*
X144730409Y-103556290D01*
X145244457Y-103556290D01*
X145450076Y-103659100D01*
X145552885Y-103761909D01*
X145655695Y-103967528D01*
X145655695Y-104173147D01*
X145552885Y-104481576D01*
X144319171Y-105715290D01*
X145655695Y-105715290D01*
X146375361Y-103556290D02*
X147814695Y-103556290D01*
X146889409Y-105715290D01*
X149870885Y-105509671D02*
X149768076Y-105612480D01*
X149459647Y-105715290D01*
X149254028Y-105715290D01*
X148945600Y-105612480D01*
X148739980Y-105406861D01*
X148637171Y-105201242D01*
X148534361Y-104790004D01*
X148534361Y-104481576D01*
X148637171Y-104070338D01*
X148739980Y-103864719D01*
X148945600Y-103659100D01*
X149254028Y-103556290D01*
X149459647Y-103556290D01*
X149768076Y-103659100D01*
X149870885Y-103761909D01*
X151207409Y-103556290D02*
X151413028Y-103556290D01*
X151618647Y-103659100D01*
X151721457Y-103761909D01*
X151824266Y-103967528D01*
X151927076Y-104378766D01*
X151927076Y-104892814D01*
X151824266Y-105304052D01*
X151721457Y-105509671D01*
X151618647Y-105612480D01*
X151413028Y-105715290D01*
X151207409Y-105715290D01*
X151001790Y-105612480D01*
X150898980Y-105509671D01*
X150796171Y-105304052D01*
X150693361Y-104892814D01*
X150693361Y-104378766D01*
X150796171Y-103967528D01*
X150898980Y-103761909D01*
X151001790Y-103659100D01*
X151207409Y-103556290D01*
X153983266Y-105715290D02*
X152749552Y-105715290D01*
X153366409Y-105715290D02*
X153366409Y-103556290D01*
X153160790Y-103864719D01*
X152955171Y-104070338D01*
X152749552Y-104173147D01*
X155319790Y-103556290D02*
X155525409Y-103556290D01*
X155731028Y-103659100D01*
X155833838Y-103761909D01*
X155936647Y-103967528D01*
X156039457Y-104378766D01*
X156039457Y-104892814D01*
X155936647Y-105304052D01*
X155833838Y-105509671D01*
X155731028Y-105612480D01*
X155525409Y-105715290D01*
X155319790Y-105715290D01*
X155114171Y-105612480D01*
X155011361Y-105509671D01*
X154908552Y-105304052D01*
X154805742Y-104892814D01*
X154805742Y-104378766D01*
X154908552Y-103967528D01*
X155011361Y-103761909D01*
X155114171Y-103659100D01*
X155319790Y-103556290D01*
X158506885Y-103453480D02*
X156656314Y-106229338D01*
X159637790Y-103556290D02*
X159843409Y-103556290D01*
X160049028Y-103659100D01*
X160151838Y-103761909D01*
X160254647Y-103967528D01*
X160357457Y-104378766D01*
X160357457Y-104892814D01*
X160254647Y-105304052D01*
X160151838Y-105509671D01*
X160049028Y-105612480D01*
X159843409Y-105715290D01*
X159637790Y-105715290D01*
X159432171Y-105612480D01*
X159329361Y-105509671D01*
X159226552Y-105304052D01*
X159123742Y-104892814D01*
X159123742Y-104378766D01*
X159226552Y-103967528D01*
X159329361Y-103761909D01*
X159432171Y-103659100D01*
X159637790Y-103556290D01*
X161179933Y-103761909D02*
X161282742Y-103659100D01*
X161488361Y-103556290D01*
X162002409Y-103556290D01*
X162208028Y-103659100D01*
X162310838Y-103761909D01*
X162413647Y-103967528D01*
X162413647Y-104173147D01*
X162310838Y-104481576D01*
X161077123Y-105715290D01*
X162413647Y-105715290D01*
X163750171Y-103556290D02*
X163955790Y-103556290D01*
X164161409Y-103659100D01*
X164264219Y-103761909D01*
X164367028Y-103967528D01*
X164469838Y-104378766D01*
X164469838Y-104892814D01*
X164367028Y-105304052D01*
X164264219Y-105509671D01*
X164161409Y-105612480D01*
X163955790Y-105715290D01*
X163750171Y-105715290D01*
X163544552Y-105612480D01*
X163441742Y-105509671D01*
X163338933Y-105304052D01*
X163236123Y-104892814D01*
X163236123Y-104378766D01*
X163338933Y-103967528D01*
X163441742Y-103761909D01*
X163544552Y-103659100D01*
X163750171Y-103556290D01*
X166937266Y-103453480D02*
X165086695Y-106229338D01*
X168068171Y-103556290D02*
X168273790Y-103556290D01*
X168479409Y-103659100D01*
X168582219Y-103761909D01*
X168685028Y-103967528D01*
X168787838Y-104378766D01*
X168787838Y-104892814D01*
X168685028Y-105304052D01*
X168582219Y-105509671D01*
X168479409Y-105612480D01*
X168273790Y-105715290D01*
X168068171Y-105715290D01*
X167862552Y-105612480D01*
X167759742Y-105509671D01*
X167656933Y-105304052D01*
X167554123Y-104892814D01*
X167554123Y-104378766D01*
X167656933Y-103967528D01*
X167759742Y-103761909D01*
X167862552Y-103659100D01*
X168068171Y-103556290D01*
X170638409Y-104275957D02*
X170638409Y-105715290D01*
X170124361Y-103453480D02*
X169610314Y-104995623D01*
X170946838Y-104995623D01*
X172180552Y-103556290D02*
X172386171Y-103556290D01*
X172591790Y-103659100D01*
X172694600Y-103761909D01*
X172797409Y-103967528D01*
X172900219Y-104378766D01*
X172900219Y-104892814D01*
X172797409Y-105304052D01*
X172694600Y-105509671D01*
X172591790Y-105612480D01*
X172386171Y-105715290D01*
X172180552Y-105715290D01*
X171974933Y-105612480D01*
X171872123Y-105509671D01*
X171769314Y-105304052D01*
X171666504Y-104892814D01*
X171666504Y-104378766D01*
X171769314Y-103967528D01*
X171872123Y-103761909D01*
X171974933Y-103659100D01*
X172180552Y-103556290D01*
X144576195Y-107237899D02*
X144679004Y-107135090D01*
X144884623Y-107032280D01*
X145398671Y-107032280D01*
X145604290Y-107135090D01*
X145707100Y-107237899D01*
X145809909Y-107443518D01*
X145809909Y-107649137D01*
X145707100Y-107957566D01*
X144473385Y-109191280D01*
X145809909Y-109191280D01*
X146838004Y-109191280D02*
X147249242Y-109191280D01*
X147454861Y-109088470D01*
X147557671Y-108985661D01*
X147763290Y-108677232D01*
X147866100Y-108265994D01*
X147866100Y-107443518D01*
X147763290Y-107237899D01*
X147660480Y-107135090D01*
X147454861Y-107032280D01*
X147043623Y-107032280D01*
X146838004Y-107135090D01*
X146735195Y-107237899D01*
X146632385Y-107443518D01*
X146632385Y-107957566D01*
X146735195Y-108163185D01*
X146838004Y-108265994D01*
X147043623Y-108368804D01*
X147454861Y-108368804D01*
X147660480Y-108265994D01*
X147763290Y-108163185D01*
X147866100Y-107957566D01*
X149511052Y-108060375D02*
X148791385Y-108060375D01*
X148791385Y-109191280D02*
X148791385Y-107032280D01*
X149819480Y-107032280D01*
X151053195Y-107032280D02*
X151258814Y-107032280D01*
X151464433Y-107135090D01*
X151567242Y-107237899D01*
X151670052Y-107443518D01*
X151772861Y-107854756D01*
X151772861Y-108368804D01*
X151670052Y-108780042D01*
X151567242Y-108985661D01*
X151464433Y-109088470D01*
X151258814Y-109191280D01*
X151053195Y-109191280D01*
X150847576Y-109088470D01*
X150744766Y-108985661D01*
X150641957Y-108780042D01*
X150539147Y-108368804D01*
X150539147Y-107854756D01*
X150641957Y-107443518D01*
X150744766Y-107237899D01*
X150847576Y-107135090D01*
X151053195Y-107032280D01*
X153829052Y-109191280D02*
X152595338Y-109191280D01*
X153212195Y-109191280D02*
X153212195Y-107032280D01*
X153006576Y-107340709D01*
X152800957Y-107546328D01*
X152595338Y-107649137D01*
X155165576Y-107032280D02*
X155371195Y-107032280D01*
X155576814Y-107135090D01*
X155679623Y-107237899D01*
X155782433Y-107443518D01*
X155885242Y-107854756D01*
X155885242Y-108368804D01*
X155782433Y-108780042D01*
X155679623Y-108985661D01*
X155576814Y-109088470D01*
X155371195Y-109191280D01*
X155165576Y-109191280D01*
X154959957Y-109088470D01*
X154857147Y-108985661D01*
X154754338Y-108780042D01*
X154651528Y-108368804D01*
X154651528Y-107854756D01*
X154754338Y-107443518D01*
X154857147Y-107237899D01*
X154959957Y-107135090D01*
X155165576Y-107032280D01*
X158352671Y-106929470D02*
X156502100Y-109705328D01*
X159483576Y-107032280D02*
X159689195Y-107032280D01*
X159894814Y-107135090D01*
X159997623Y-107237899D01*
X160100433Y-107443518D01*
X160203242Y-107854756D01*
X160203242Y-108368804D01*
X160100433Y-108780042D01*
X159997623Y-108985661D01*
X159894814Y-109088470D01*
X159689195Y-109191280D01*
X159483576Y-109191280D01*
X159277957Y-109088470D01*
X159175147Y-108985661D01*
X159072338Y-108780042D01*
X158969528Y-108368804D01*
X158969528Y-107854756D01*
X159072338Y-107443518D01*
X159175147Y-107237899D01*
X159277957Y-107135090D01*
X159483576Y-107032280D01*
X161025719Y-107237899D02*
X161128528Y-107135090D01*
X161334147Y-107032280D01*
X161848195Y-107032280D01*
X162053814Y-107135090D01*
X162156623Y-107237899D01*
X162259433Y-107443518D01*
X162259433Y-107649137D01*
X162156623Y-107957566D01*
X160922909Y-109191280D01*
X162259433Y-109191280D01*
X163595957Y-107032280D02*
X163801576Y-107032280D01*
X164007195Y-107135090D01*
X164110004Y-107237899D01*
X164212814Y-107443518D01*
X164315623Y-107854756D01*
X164315623Y-108368804D01*
X164212814Y-108780042D01*
X164110004Y-108985661D01*
X164007195Y-109088470D01*
X163801576Y-109191280D01*
X163595957Y-109191280D01*
X163390338Y-109088470D01*
X163287528Y-108985661D01*
X163184719Y-108780042D01*
X163081909Y-108368804D01*
X163081909Y-107854756D01*
X163184719Y-107443518D01*
X163287528Y-107237899D01*
X163390338Y-107135090D01*
X163595957Y-107032280D01*
X166783052Y-106929470D02*
X164932480Y-109705328D01*
X167913957Y-107032280D02*
X168119576Y-107032280D01*
X168325195Y-107135090D01*
X168428004Y-107237899D01*
X168530814Y-107443518D01*
X168633623Y-107854756D01*
X168633623Y-108368804D01*
X168530814Y-108780042D01*
X168428004Y-108985661D01*
X168325195Y-109088470D01*
X168119576Y-109191280D01*
X167913957Y-109191280D01*
X167708338Y-109088470D01*
X167605528Y-108985661D01*
X167502719Y-108780042D01*
X167399909Y-108368804D01*
X167399909Y-107854756D01*
X167502719Y-107443518D01*
X167605528Y-107237899D01*
X167708338Y-107135090D01*
X167913957Y-107032280D01*
X170484195Y-107751947D02*
X170484195Y-109191280D01*
X169970147Y-106929470D02*
X169456100Y-108471613D01*
X170792623Y-108471613D01*
X172026338Y-107032280D02*
X172231957Y-107032280D01*
X172437576Y-107135090D01*
X172540385Y-107237899D01*
X172643195Y-107443518D01*
X172746004Y-107854756D01*
X172746004Y-108368804D01*
X172643195Y-108780042D01*
X172540385Y-108985661D01*
X172437576Y-109088470D01*
X172231957Y-109191280D01*
X172026338Y-109191280D01*
X171820719Y-109088470D01*
X171717909Y-108985661D01*
X171615100Y-108780042D01*
X171512290Y-108368804D01*
X171512290Y-107854756D01*
X171615100Y-107443518D01*
X171717909Y-107237899D01*
X171820719Y-107135090D01*
X172026338Y-107032280D01*
D11*
X146912692Y-117768255D02*
X147184110Y-118718215D01*
X147455527Y-118039672D01*
X147726944Y-118718215D01*
X147998361Y-117768255D01*
X148405487Y-117768255D02*
X148676904Y-118718215D01*
X148948321Y-118039672D01*
X149219738Y-118718215D01*
X149491155Y-117768255D01*
X149898281Y-117768255D02*
X150169698Y-118718215D01*
X150441115Y-118039672D01*
X150712532Y-118718215D01*
X150983950Y-117768255D01*
X151526784Y-118582507D02*
X151594638Y-118650361D01*
X151526784Y-118718215D01*
X151458930Y-118650361D01*
X151526784Y-118582507D01*
X151526784Y-118718215D01*
X152408890Y-118718215D02*
X152273181Y-118650361D01*
X152205327Y-118582507D01*
X152137472Y-118446798D01*
X152137472Y-118039672D01*
X152205327Y-117903964D01*
X152273181Y-117836110D01*
X152408890Y-117768255D01*
X152612452Y-117768255D01*
X152748161Y-117836110D01*
X152816015Y-117903964D01*
X152883870Y-118039672D01*
X152883870Y-118446798D01*
X152816015Y-118582507D01*
X152748161Y-118650361D01*
X152612452Y-118718215D01*
X152408890Y-118718215D01*
X153494558Y-117768255D02*
X153494558Y-118718215D01*
X153494558Y-117903964D02*
X153562412Y-117836110D01*
X153698121Y-117768255D01*
X153901684Y-117768255D01*
X154037392Y-117836110D01*
X154105247Y-117971818D01*
X154105247Y-118718215D01*
X155394478Y-118650361D02*
X155258770Y-118718215D01*
X154987352Y-118718215D01*
X154851644Y-118650361D01*
X154783790Y-118582507D01*
X154715935Y-118446798D01*
X154715935Y-118039672D01*
X154783790Y-117903964D01*
X154851644Y-117836110D01*
X154987352Y-117768255D01*
X155258770Y-117768255D01*
X155394478Y-117836110D01*
X156548001Y-118650361D02*
X156412292Y-118718215D01*
X156140875Y-118718215D01*
X156005167Y-118650361D01*
X155937312Y-118514652D01*
X155937312Y-117971818D01*
X156005167Y-117836110D01*
X156140875Y-117768255D01*
X156412292Y-117768255D01*
X156548001Y-117836110D01*
X156615855Y-117971818D01*
X156615855Y-118107527D01*
X155937312Y-118243235D01*
X157837232Y-117768255D02*
X157837232Y-118718215D01*
X157226544Y-117768255D02*
X157226544Y-118514652D01*
X157294398Y-118650361D01*
X157430107Y-118718215D01*
X157633670Y-118718215D01*
X157769378Y-118650361D01*
X157837232Y-118582507D01*
X158515775Y-117768255D02*
X158515775Y-119193195D01*
X158515775Y-117836110D02*
X158651484Y-117768255D01*
X158922901Y-117768255D01*
X159058610Y-117836110D01*
X159126464Y-117903964D01*
X159194318Y-118039672D01*
X159194318Y-118446798D01*
X159126464Y-118582507D01*
X159058610Y-118650361D01*
X158922901Y-118718215D01*
X158651484Y-118718215D01*
X158515775Y-118650361D01*
X160008570Y-118718215D02*
X159872861Y-118650361D01*
X159805007Y-118582507D01*
X159737152Y-118446798D01*
X159737152Y-118039672D01*
X159805007Y-117903964D01*
X159872861Y-117836110D01*
X160008570Y-117768255D01*
X160212132Y-117768255D01*
X160347841Y-117836110D01*
X160415695Y-117903964D01*
X160483550Y-118039672D01*
X160483550Y-118446798D01*
X160415695Y-118582507D01*
X160347841Y-118650361D01*
X160212132Y-118718215D01*
X160008570Y-118718215D01*
X161094238Y-117768255D02*
X161094238Y-118718215D01*
X161094238Y-117903964D02*
X161162092Y-117836110D01*
X161297801Y-117768255D01*
X161501364Y-117768255D01*
X161637072Y-117836110D01*
X161704927Y-117971818D01*
X161704927Y-118718215D01*
X162994158Y-118718215D02*
X162994158Y-117971818D01*
X162926304Y-117836110D01*
X162790595Y-117768255D01*
X162519178Y-117768255D01*
X162383470Y-117836110D01*
X162994158Y-118650361D02*
X162858450Y-118718215D01*
X162519178Y-118718215D01*
X162383470Y-118650361D01*
X162315615Y-118514652D01*
X162315615Y-118378944D01*
X162383470Y-118243235D01*
X162519178Y-118175381D01*
X162858450Y-118175381D01*
X162994158Y-118107527D01*
X163672701Y-118718215D02*
X163672701Y-117293275D01*
X163672701Y-117836110D02*
X163808410Y-117768255D01*
X164079827Y-117768255D01*
X164215535Y-117836110D01*
X164283390Y-117903964D01*
X164351244Y-118039672D01*
X164351244Y-118446798D01*
X164283390Y-118582507D01*
X164215535Y-118650361D01*
X164079827Y-118718215D01*
X163808410Y-118718215D01*
X163672701Y-118650361D01*
X164826224Y-117768255D02*
X165165495Y-118718215D01*
X165504767Y-117768255D02*
X165165495Y-118718215D01*
X165029787Y-119057487D01*
X164961932Y-119125341D01*
X164826224Y-119193195D01*
X165844038Y-117768255D02*
X166386872Y-117768255D01*
X166047601Y-117293275D02*
X166047601Y-118514652D01*
X166115455Y-118650361D01*
X166251164Y-118718215D01*
X166386872Y-118718215D01*
X167404687Y-118650361D02*
X167268978Y-118718215D01*
X166997561Y-118718215D01*
X166861852Y-118650361D01*
X166793998Y-118514652D01*
X166793998Y-117971818D01*
X166861852Y-117836110D01*
X166997561Y-117768255D01*
X167268978Y-117768255D01*
X167404687Y-117836110D01*
X167472541Y-117971818D01*
X167472541Y-118107527D01*
X166793998Y-118243235D01*
X168083230Y-118582507D02*
X168151084Y-118650361D01*
X168083230Y-118718215D01*
X168015375Y-118650361D01*
X168083230Y-118582507D01*
X168083230Y-118718215D01*
X168965335Y-118718215D02*
X168829627Y-118650361D01*
X168761772Y-118582507D01*
X168693918Y-118446798D01*
X168693918Y-118039672D01*
X168761772Y-117903964D01*
X168829627Y-117836110D01*
X168965335Y-117768255D01*
X169168898Y-117768255D01*
X169304607Y-117836110D01*
X169372461Y-117903964D01*
X169440315Y-118039672D01*
X169440315Y-118446798D01*
X169372461Y-118582507D01*
X169304607Y-118650361D01*
X169168898Y-118718215D01*
X168965335Y-118718215D01*
X170051004Y-118718215D02*
X170051004Y-117768255D01*
X170051004Y-118039672D02*
X170118858Y-117903964D01*
X170186712Y-117836110D01*
X170322421Y-117768255D01*
X170458130Y-117768255D01*
X171543798Y-117768255D02*
X171543798Y-118921778D01*
X171475944Y-119057487D01*
X171408090Y-119125341D01*
X171272381Y-119193195D01*
X171068818Y-119193195D01*
X170933110Y-119125341D01*
X171543798Y-118650361D02*
X171408090Y-118718215D01*
X171136672Y-118718215D01*
X171000964Y-118650361D01*
X170933110Y-118582507D01*
X170865255Y-118446798D01*
X170865255Y-118039672D01*
X170933110Y-117903964D01*
X171000964Y-117836110D01*
X171136672Y-117768255D01*
X171408090Y-117768255D01*
X171543798Y-117836110D01*
X150237552Y-115863255D02*
X150508970Y-116813215D01*
X150780387Y-116134672D01*
X151051804Y-116813215D01*
X151323221Y-115863255D01*
X151730347Y-115863255D02*
X152001764Y-116813215D01*
X152273181Y-116134672D01*
X152544598Y-116813215D01*
X152816015Y-115863255D01*
X153223141Y-115863255D02*
X153494558Y-116813215D01*
X153765975Y-116134672D01*
X154037392Y-116813215D01*
X154308810Y-115863255D01*
X154851644Y-116677507D02*
X154919498Y-116745361D01*
X154851644Y-116813215D01*
X154783790Y-116745361D01*
X154851644Y-116677507D01*
X154851644Y-116813215D01*
X155733750Y-115998964D02*
X155598041Y-115931110D01*
X155530187Y-115863255D01*
X155462332Y-115727547D01*
X155462332Y-115659692D01*
X155530187Y-115523984D01*
X155598041Y-115456130D01*
X155733750Y-115388275D01*
X156005167Y-115388275D01*
X156140875Y-115456130D01*
X156208730Y-115523984D01*
X156276584Y-115659692D01*
X156276584Y-115727547D01*
X156208730Y-115863255D01*
X156140875Y-115931110D01*
X156005167Y-115998964D01*
X155733750Y-115998964D01*
X155598041Y-116066818D01*
X155530187Y-116134672D01*
X155462332Y-116270381D01*
X155462332Y-116541798D01*
X155530187Y-116677507D01*
X155598041Y-116745361D01*
X155733750Y-116813215D01*
X156005167Y-116813215D01*
X156140875Y-116745361D01*
X156208730Y-116677507D01*
X156276584Y-116541798D01*
X156276584Y-116270381D01*
X156208730Y-116134672D01*
X156140875Y-116066818D01*
X156005167Y-115998964D01*
X156887272Y-116813215D02*
X156887272Y-115388275D01*
X156887272Y-115931110D02*
X157022981Y-115863255D01*
X157294398Y-115863255D01*
X157430107Y-115931110D01*
X157497961Y-115998964D01*
X157565815Y-116134672D01*
X157565815Y-116541798D01*
X157497961Y-116677507D01*
X157430107Y-116745361D01*
X157294398Y-116813215D01*
X157022981Y-116813215D01*
X156887272Y-116745361D01*
X158176504Y-116813215D02*
X158176504Y-115863255D01*
X158176504Y-115388275D02*
X158108650Y-115456130D01*
X158176504Y-115523984D01*
X158244358Y-115456130D01*
X158176504Y-115388275D01*
X158176504Y-115523984D01*
X158651484Y-115863255D02*
X159194318Y-115863255D01*
X158855047Y-115388275D02*
X158855047Y-116609652D01*
X158922901Y-116745361D01*
X159058610Y-116813215D01*
X159194318Y-116813215D01*
X160279987Y-116745361D02*
X160144278Y-116813215D01*
X159872861Y-116813215D01*
X159737152Y-116745361D01*
X159669298Y-116677507D01*
X159601444Y-116541798D01*
X159601444Y-116134672D01*
X159669298Y-115998964D01*
X159737152Y-115931110D01*
X159872861Y-115863255D01*
X160144278Y-115863255D01*
X160279987Y-115931110D01*
X160890675Y-116813215D02*
X160890675Y-115388275D01*
X161501364Y-116813215D02*
X161501364Y-116066818D01*
X161433510Y-115931110D01*
X161297801Y-115863255D01*
X161094238Y-115863255D01*
X160958530Y-115931110D01*
X160890675Y-115998964D01*
X162179907Y-116813215D02*
X162179907Y-115863255D01*
X162179907Y-115388275D02*
X162112052Y-115456130D01*
X162179907Y-115523984D01*
X162247761Y-115456130D01*
X162179907Y-115388275D01*
X162179907Y-115523984D01*
X162858450Y-115863255D02*
X162858450Y-117288195D01*
X162858450Y-115931110D02*
X162994158Y-115863255D01*
X163265575Y-115863255D01*
X163401284Y-115931110D01*
X163469138Y-115998964D01*
X163536992Y-116134672D01*
X163536992Y-116541798D01*
X163469138Y-116677507D01*
X163401284Y-116745361D01*
X163265575Y-116813215D01*
X162994158Y-116813215D01*
X162858450Y-116745361D01*
X164147681Y-116677507D02*
X164215535Y-116745361D01*
X164147681Y-116813215D01*
X164079827Y-116745361D01*
X164147681Y-116677507D01*
X164147681Y-116813215D01*
X164826224Y-116813215D02*
X164826224Y-115863255D01*
X164826224Y-115388275D02*
X164758370Y-115456130D01*
X164826224Y-115523984D01*
X164894078Y-115456130D01*
X164826224Y-115388275D01*
X164826224Y-115523984D01*
X165504767Y-115863255D02*
X165504767Y-116813215D01*
X165504767Y-115998964D02*
X165572621Y-115931110D01*
X165708330Y-115863255D01*
X165911892Y-115863255D01*
X166047601Y-115931110D01*
X166115455Y-116066818D01*
X166115455Y-116813215D01*
X166590435Y-115863255D02*
X167133270Y-115863255D01*
X166793998Y-116813215D02*
X166793998Y-115591838D01*
X166861852Y-115456130D01*
X166997561Y-115388275D01*
X167133270Y-115388275D01*
X167811812Y-116813215D02*
X167676104Y-116745361D01*
X167608250Y-116677507D01*
X167540395Y-116541798D01*
X167540395Y-116134672D01*
X167608250Y-115998964D01*
X167676104Y-115931110D01*
X167811812Y-115863255D01*
X168015375Y-115863255D01*
X168151084Y-115931110D01*
X168218938Y-115998964D01*
X168286792Y-116134672D01*
X168286792Y-116541798D01*
X168218938Y-116677507D01*
X168151084Y-116745361D01*
X168015375Y-116813215D01*
X167811812Y-116813215D01*
D14*
X126261904Y-115387380D02*
X126261904Y-114387380D01*
X126500000Y-114387380D01*
X126642857Y-114435000D01*
X126738095Y-114530238D01*
X126785714Y-114625476D01*
X126833333Y-114815952D01*
X126833333Y-114958809D01*
X126785714Y-115149285D01*
X126738095Y-115244523D01*
X126642857Y-115339761D01*
X126500000Y-115387380D01*
X126261904Y-115387380D01*
X127214285Y-114482619D02*
X127261904Y-114435000D01*
X127357142Y-114387380D01*
X127595238Y-114387380D01*
X127690476Y-114435000D01*
X127738095Y-114482619D01*
X127785714Y-114577857D01*
X127785714Y-114673095D01*
X127738095Y-114815952D01*
X127166666Y-115387380D01*
X127785714Y-115387380D01*
X124857142Y-117507380D02*
X124285714Y-117507380D01*
X124571428Y-117507380D02*
X124571428Y-116507380D01*
X124476190Y-116650238D01*
X124380952Y-116745476D01*
X124285714Y-116793095D01*
X125285714Y-117507380D02*
X125285714Y-116507380D01*
X125857142Y-117507380D01*
X125857142Y-116507380D01*
X126761904Y-116840714D02*
X126761904Y-117507380D01*
X126523809Y-116459761D02*
X126285714Y-117174047D01*
X126904761Y-117174047D01*
X127809523Y-117507380D02*
X127238095Y-117507380D01*
X127523809Y-117507380D02*
X127523809Y-116507380D01*
X127428571Y-116650238D01*
X127333333Y-116745476D01*
X127238095Y-116793095D01*
X128666666Y-116840714D02*
X128666666Y-117507380D01*
X128428571Y-116459761D02*
X128190476Y-117174047D01*
X128809523Y-117174047D01*
X129333333Y-116935952D02*
X129238095Y-116888333D01*
X129190476Y-116840714D01*
X129142857Y-116745476D01*
X129142857Y-116697857D01*
X129190476Y-116602619D01*
X129238095Y-116555000D01*
X129333333Y-116507380D01*
X129523809Y-116507380D01*
X129619047Y-116555000D01*
X129666666Y-116602619D01*
X129714285Y-116697857D01*
X129714285Y-116745476D01*
X129666666Y-116840714D01*
X129619047Y-116888333D01*
X129523809Y-116935952D01*
X129333333Y-116935952D01*
X129238095Y-116983571D01*
X129190476Y-117031190D01*
X129142857Y-117126428D01*
X129142857Y-117316904D01*
X129190476Y-117412142D01*
X129238095Y-117459761D01*
X129333333Y-117507380D01*
X129523809Y-117507380D01*
X129619047Y-117459761D01*
X129666666Y-117412142D01*
X129714285Y-117316904D01*
X129714285Y-117126428D01*
X129666666Y-117031190D01*
X129619047Y-116983571D01*
X129523809Y-116935952D01*
X121023095Y-115387380D02*
X121023095Y-114387380D01*
X121594523Y-115387380D02*
X121165952Y-114815952D01*
X121594523Y-114387380D02*
X121023095Y-114958809D01*
X126261904Y-112212380D02*
X126261904Y-111212380D01*
X126500000Y-111212380D01*
X126642857Y-111260000D01*
X126738095Y-111355238D01*
X126785714Y-111450476D01*
X126833333Y-111640952D01*
X126833333Y-111783809D01*
X126785714Y-111974285D01*
X126738095Y-112069523D01*
X126642857Y-112164761D01*
X126500000Y-112212380D01*
X126261904Y-112212380D01*
X127785714Y-112212380D02*
X127214285Y-112212380D01*
X127500000Y-112212380D02*
X127500000Y-111212380D01*
X127404761Y-111355238D01*
X127309523Y-111450476D01*
X127214285Y-111498095D01*
X121023095Y-112212380D02*
X121023095Y-111212380D01*
X121594523Y-112212380D02*
X121165952Y-111640952D01*
X121594523Y-111212380D02*
X121023095Y-111783809D01*
D15*
X125702936Y-107584285D02*
X125702936Y-106005252D01*
X128071486Y-107020344D01*
X126492453Y-104087854D02*
X128071486Y-104087854D01*
X125590148Y-104651794D02*
X127281970Y-105215735D01*
X127281970Y-103749490D01*
X128071486Y-101719304D02*
X128071486Y-102847185D01*
X125702936Y-102847185D01*
X127958698Y-101042575D02*
X128071486Y-100704211D01*
X128071486Y-100140271D01*
X127958698Y-99914694D01*
X127845910Y-99801906D01*
X127620334Y-99689118D01*
X127394758Y-99689118D01*
X127169182Y-99801906D01*
X127056394Y-99914694D01*
X126943605Y-100140271D01*
X126830817Y-100591423D01*
X126718029Y-100816999D01*
X126605241Y-100929787D01*
X126379665Y-101042575D01*
X126154089Y-101042575D01*
X125928513Y-100929787D01*
X125815725Y-100816999D01*
X125702936Y-100591423D01*
X125702936Y-100027482D01*
X125815725Y-99689118D01*
X125702936Y-98222873D02*
X125702936Y-97997297D01*
X125815725Y-97771721D01*
X125928513Y-97658932D01*
X126154089Y-97546144D01*
X126605241Y-97433356D01*
X127169182Y-97433356D01*
X127620334Y-97546144D01*
X127845910Y-97658932D01*
X127958698Y-97771721D01*
X128071486Y-97997297D01*
X128071486Y-98222873D01*
X127958698Y-98448449D01*
X127845910Y-98561237D01*
X127620334Y-98674025D01*
X127169182Y-98786813D01*
X126605241Y-98786813D01*
X126154089Y-98674025D01*
X125928513Y-98561237D01*
X125815725Y-98448449D01*
X125702936Y-98222873D01*
X125928513Y-96531052D02*
X125815725Y-96418263D01*
X125702936Y-96192687D01*
X125702936Y-95628747D01*
X125815725Y-95403171D01*
X125928513Y-95290382D01*
X126154089Y-95177594D01*
X126379665Y-95177594D01*
X126718029Y-95290382D01*
X128071486Y-96643840D01*
X128071486Y-95177594D01*
D14*
X138263333Y-83172380D02*
X137930000Y-82696190D01*
X137691904Y-83172380D02*
X137691904Y-82172380D01*
X138072857Y-82172380D01*
X138168095Y-82220000D01*
X138215714Y-82267619D01*
X138263333Y-82362857D01*
X138263333Y-82505714D01*
X138215714Y-82600952D01*
X138168095Y-82648571D01*
X138072857Y-82696190D01*
X137691904Y-82696190D01*
X139215714Y-83172380D02*
X138644285Y-83172380D01*
X138930000Y-83172380D02*
X138930000Y-82172380D01*
X138834761Y-82315238D01*
X138739523Y-82410476D01*
X138644285Y-82458095D01*
X137739523Y-85542380D02*
X137168095Y-85542380D01*
X137453809Y-85542380D02*
X137453809Y-84542380D01*
X137358571Y-84685238D01*
X137263333Y-84780476D01*
X137168095Y-84828095D01*
X138358571Y-84542380D02*
X138453809Y-84542380D01*
X138549047Y-84590000D01*
X138596666Y-84637619D01*
X138644285Y-84732857D01*
X138691904Y-84923333D01*
X138691904Y-85161428D01*
X138644285Y-85351904D01*
X138596666Y-85447142D01*
X138549047Y-85494761D01*
X138453809Y-85542380D01*
X138358571Y-85542380D01*
X138263333Y-85494761D01*
X138215714Y-85447142D01*
X138168095Y-85351904D01*
X138120476Y-85161428D01*
X138120476Y-84923333D01*
X138168095Y-84732857D01*
X138215714Y-84637619D01*
X138263333Y-84590000D01*
X138358571Y-84542380D01*
X139120476Y-85542380D02*
X139120476Y-84542380D01*
X139691904Y-85542380D02*
X139263333Y-84970952D01*
X139691904Y-84542380D02*
X139120476Y-85113809D01*
D16*
X161837200Y-93549900D02*
X161805027Y-93582073D01*
X161708507Y-93614246D01*
X161644160Y-93614246D01*
X161547640Y-93582073D01*
X161483294Y-93517726D01*
X161451120Y-93453380D01*
X161418947Y-93324686D01*
X161418947Y-93228166D01*
X161451120Y-93099473D01*
X161483294Y-93035126D01*
X161547640Y-92970780D01*
X161644160Y-92938606D01*
X161708507Y-92938606D01*
X161805027Y-92970780D01*
X161837200Y-93002953D01*
X162126760Y-93260340D02*
X162351974Y-93260340D01*
X162448494Y-93614246D02*
X162126760Y-93614246D01*
X162126760Y-92938606D01*
X162448494Y-92938606D01*
X162705880Y-93002953D02*
X162738054Y-92970780D01*
X162802400Y-92938606D01*
X162963267Y-92938606D01*
X163027614Y-92970780D01*
X163059787Y-93002953D01*
X163091960Y-93067300D01*
X163091960Y-93131646D01*
X163059787Y-93228166D01*
X162673707Y-93614246D01*
X163091960Y-93614246D01*
D17*
X160471739Y-85700023D02*
X162048232Y-85700023D01*
X161034772Y-88064763D01*
X163962545Y-86488270D02*
X163962545Y-88064763D01*
X163399512Y-85587416D02*
X162836479Y-87276516D01*
X164300365Y-87276516D01*
X166327285Y-88064763D02*
X165201219Y-88064763D01*
X165201219Y-85700023D01*
X167002925Y-87952156D02*
X167340745Y-88064763D01*
X167903779Y-88064763D01*
X168128992Y-87952156D01*
X168241599Y-87839550D01*
X168354205Y-87614336D01*
X168354205Y-87389123D01*
X168241599Y-87163910D01*
X168128992Y-87051303D01*
X167903779Y-86938696D01*
X167453352Y-86826090D01*
X167228139Y-86713483D01*
X167115532Y-86600876D01*
X167002925Y-86375663D01*
X167002925Y-86150450D01*
X167115532Y-85925236D01*
X167228139Y-85812630D01*
X167453352Y-85700023D01*
X168016385Y-85700023D01*
X168354205Y-85812630D01*
X169255059Y-85925236D02*
X169367665Y-85812630D01*
X169592879Y-85700023D01*
X170155912Y-85700023D01*
X170381125Y-85812630D01*
X170493732Y-85925236D01*
X170606339Y-86150450D01*
X170606339Y-86375663D01*
X170493732Y-86713483D01*
X169142452Y-88064763D01*
X170606339Y-88064763D01*
X171394585Y-85700023D02*
X172971079Y-85700023D01*
X171957619Y-88064763D01*
X173646719Y-85700023D02*
X175110605Y-85700023D01*
X174322359Y-86600876D01*
X174660179Y-86600876D01*
X174885392Y-86713483D01*
X174997999Y-86826090D01*
X175110605Y-87051303D01*
X175110605Y-87614336D01*
X174997999Y-87839550D01*
X174885392Y-87952156D01*
X174660179Y-88064763D01*
X173984539Y-88064763D01*
X173759325Y-87952156D01*
X173646719Y-87839550D01*
D18*
X134150100Y-111977600D02*
X175552100Y-111977600D01*
X134150100Y-106643600D02*
X134150100Y-111977600D01*
X134150100Y-98769600D02*
X134150100Y-104103600D01*
X134150100Y-98769600D02*
X175552100Y-98769600D01*
X175552100Y-111977600D02*
X175552100Y-98769600D01*
X134150100Y-106643600D02*
G75*
G03*
X134150100Y-104103600I0J1270000D01*
G01*
D19*
X125600000Y-113815000D02*
X125600000Y-116055000D01*
X129120000Y-116055000D02*
X129120000Y-113815000D01*
X125720000Y-113815000D02*
X125720000Y-116055000D01*
X129120000Y-113815000D02*
X124880000Y-113815000D01*
X124880000Y-113815000D02*
X124880000Y-116055000D01*
X124880000Y-116055000D02*
X129120000Y-116055000D01*
X125480000Y-113815000D02*
X125480000Y-116055000D01*
X129770000Y-114935000D02*
X129120000Y-114935000D01*
X124230000Y-114935000D02*
X124880000Y-114935000D01*
X129120000Y-113140000D02*
X129120000Y-110900000D01*
X125720000Y-110900000D02*
X125720000Y-113140000D01*
X129770000Y-112020000D02*
X129120000Y-112020000D01*
X124880000Y-110900000D02*
X124880000Y-113140000D01*
X125600000Y-110900000D02*
X125600000Y-113140000D01*
X124880000Y-113140000D02*
X129120000Y-113140000D01*
X129120000Y-110900000D02*
X124880000Y-110900000D01*
X125480000Y-110900000D02*
X125480000Y-113140000D01*
X124230000Y-112020000D02*
X124880000Y-112020000D01*
D18*
X123990100Y-92075000D02*
X123990100Y-109855000D01*
X123990100Y-92075000D02*
X125895100Y-92075000D01*
X129832100Y-109855000D02*
X123990100Y-109855000D01*
X129832100Y-109855000D02*
X129832100Y-92075000D01*
X129832100Y-92075000D02*
X127927100Y-92075000D01*
X125895100Y-92075000D02*
G75*
G03*
X127927100Y-92075000I1016000J0D01*
G01*
D19*
X142470000Y-85090000D02*
X141700000Y-85090000D01*
X135160000Y-86460000D02*
X141700000Y-86460000D01*
X134390000Y-85090000D02*
X135160000Y-85090000D01*
X141700000Y-86460000D02*
X141700000Y-83720000D01*
X141700000Y-83720000D02*
X135160000Y-83720000D01*
X135160000Y-83720000D02*
X135160000Y-86460000D01*
D18*
X161963100Y-95975600D02*
X161963100Y-95721600D01*
X160693100Y-94451600D02*
X160439100Y-94451600D01*
X161963100Y-94705600D02*
X161963100Y-94451600D01*
X160439100Y-95975600D02*
X160693100Y-95975600D01*
X161709100Y-95975600D02*
X161963100Y-95975600D01*
X161963100Y-94451600D02*
X161709100Y-94451600D01*
X160439100Y-94451600D02*
X160439100Y-94705600D01*
X160439100Y-95721600D02*
X160439100Y-95975600D01*
X153581100Y-89879600D02*
X178981100Y-89879600D01*
X178981100Y-84037600D02*
X178981100Y-89879600D01*
X178981100Y-84037600D02*
X153581100Y-84037600D01*
X153581100Y-89879600D02*
X153581100Y-87974600D01*
X153581100Y-84037600D02*
X153581100Y-85942600D01*
X153581100Y-87974600D02*
G75*
G03*
X153581100Y-85942600I0J1016000D01*
G01*
D20*
X130011100Y-86553600D02*
X130011100Y-83553600D01*
X125911100Y-88153600D02*
X127911100Y-88153600D01*
X125911100Y-81953600D02*
X127911100Y-81953600D01*
X123811100Y-86553600D02*
X123811100Y-83553600D01*
X128661100Y-85053600D02*
G75*
G03*
X128661100Y-85053600I-1750000J0D01*
G01*
%LPC*%
D21*
X135801100Y-112993600D03*
X138341100Y-112993600D03*
X140881100Y-112993600D03*
X143421100Y-112993600D03*
X145961100Y-112993600D03*
X148501100Y-112993600D03*
X151041100Y-112993600D03*
X153581100Y-112993600D03*
X156121100Y-112993600D03*
X158661100Y-112993600D03*
X161201100Y-112993600D03*
X163741100Y-112993600D03*
X166281100Y-112993600D03*
X168821100Y-112993600D03*
X171361100Y-112993600D03*
X173901100Y-112993600D03*
X173901100Y-97753600D03*
X171361100Y-97753600D03*
X168821100Y-97753600D03*
X166281100Y-97753600D03*
X163741100Y-97753600D03*
X161201100Y-97753600D03*
X158661100Y-97753600D03*
X156121100Y-97753600D03*
X153581100Y-97753600D03*
X151041100Y-97753600D03*
X148501100Y-97753600D03*
X145961100Y-97753600D03*
X143421100Y-97753600D03*
X140881100Y-97753600D03*
X138341100Y-97753600D03*
X135801100Y-97753600D03*
D22*
X148501100Y-86003600D03*
D23*
X121841100Y-125828600D03*
X124381100Y-125828600D03*
X126921100Y-125828600D03*
X129461100Y-125828600D03*
X132001100Y-125828600D03*
X134541100Y-125828600D03*
X137081100Y-125828600D03*
X139621100Y-125828600D03*
X142161100Y-125828600D03*
X144701100Y-125828600D03*
X147241100Y-125828600D03*
X149781100Y-125828600D03*
X152321100Y-125828600D03*
X154861100Y-125828600D03*
X157401100Y-125828600D03*
X159941100Y-125828600D03*
X162481100Y-125828600D03*
X165021100Y-125828600D03*
X167561100Y-125828600D03*
X170101100Y-125828600D03*
X172641100Y-125828600D03*
X175181100Y-125828600D03*
D24*
X123190000Y-114935000D03*
D25*
X130810000Y-114935000D03*
D24*
X123190000Y-112020000D03*
D25*
X130810000Y-112020000D03*
D26*
X126911100Y-85053600D03*
D27*
X123101100Y-93345000D03*
X123101100Y-95885000D03*
X123101100Y-98425000D03*
X123101100Y-100965000D03*
X123101100Y-103505000D03*
X123101100Y-106045000D03*
X123101100Y-108585000D03*
X130721100Y-108585000D03*
X130721100Y-106045000D03*
X130721100Y-103505000D03*
X130721100Y-100965000D03*
X130721100Y-98425000D03*
X130721100Y-95885000D03*
X130721100Y-93345000D03*
D28*
X133350000Y-85090000D03*
D25*
X143510000Y-85090000D03*
D29*
X161201100Y-95213600D03*
D21*
X154851100Y-90768600D03*
X157391100Y-90768600D03*
X159931100Y-90768600D03*
X162471100Y-90768600D03*
X165011100Y-90768600D03*
X167551100Y-90768600D03*
X170091100Y-90768600D03*
X172631100Y-90768600D03*
X175171100Y-90768600D03*
X177711100Y-90768600D03*
X177711100Y-83148600D03*
X175171100Y-83148600D03*
X172631100Y-83148600D03*
X170091100Y-83148600D03*
X167551100Y-83148600D03*
X165011100Y-83148600D03*
X162471100Y-83148600D03*
X159931100Y-83148600D03*
X157391100Y-83148600D03*
X154851100Y-83148600D03*
D30*
X129161100Y-81803600D03*
X129161100Y-88303600D03*
X124661100Y-81803600D03*
X124661100Y-88303600D03*
M02*
