G04 #@! TF.GenerationSoftware,KiCad,Pcbnew,(6.0.5)*
G04 #@! TF.CreationDate,2022-12-14T22:57:53+01:00*
G04 #@! TF.ProjectId,MDCC_512k,4d444343-5f35-4313-926b-2e6b69636164,C*
G04 #@! TF.SameCoordinates,Original*
G04 #@! TF.FileFunction,Copper,L1,Top*
G04 #@! TF.FilePolarity,Positive*
%FSLAX46Y46*%
G04 Gerber Fmt 4.6, Leading zero omitted, Abs format (unit mm)*
G04 Created by KiCad (PCBNEW (6.0.5)) date 2022-12-14 22:57:53*
%MOMM*%
%LPD*%
G01*
G04 APERTURE LIST*
G04 Aperture macros list*
%AMRoundRect*
0 Rectangle with rounded corners*
0 $1 Rounding radius*
0 $2 $3 $4 $5 $6 $7 $8 $9 X,Y pos of 4 corners*
0 Add a 4 corners polygon primitive as box body*
4,1,4,$2,$3,$4,$5,$6,$7,$8,$9,$2,$3,0*
0 Add four circle primitives for the rounded corners*
1,1,$1+$1,$2,$3*
1,1,$1+$1,$4,$5*
1,1,$1+$1,$6,$7*
1,1,$1+$1,$8,$9*
0 Add four rect primitives between the rounded corners*
20,1,$1+$1,$2,$3,$4,$5,0*
20,1,$1+$1,$4,$5,$6,$7,0*
20,1,$1+$1,$6,$7,$8,$9,0*
20,1,$1+$1,$8,$9,$2,$3,0*%
%AMOutline5P*
0 Free polygon, 5 corners , with rotation*
0 The origin of the aperture is its center*
0 number of corners: always 5*
0 $1 to $10 corner X, Y*
0 $11 Rotation angle, in degrees counterclockwise*
0 create outline with 5 corners*
4,1,5,$1,$2,$3,$4,$5,$6,$7,$8,$9,$10,$1,$2,$11*%
%AMOutline6P*
0 Free polygon, 6 corners , with rotation*
0 The origin of the aperture is its center*
0 number of corners: always 6*
0 $1 to $12 corner X, Y*
0 $13 Rotation angle, in degrees counterclockwise*
0 create outline with 6 corners*
4,1,6,$1,$2,$3,$4,$5,$6,$7,$8,$9,$10,$11,$12,$1,$2,$13*%
%AMOutline7P*
0 Free polygon, 7 corners , with rotation*
0 The origin of the aperture is its center*
0 number of corners: always 7*
0 $1 to $14 corner X, Y*
0 $15 Rotation angle, in degrees counterclockwise*
0 create outline with 7 corners*
4,1,7,$1,$2,$3,$4,$5,$6,$7,$8,$9,$10,$11,$12,$13,$14,$1,$2,$15*%
%AMOutline8P*
0 Free polygon, 8 corners , with rotation*
0 The origin of the aperture is its center*
0 number of corners: always 8*
0 $1 to $16 corner X, Y*
0 $17 Rotation angle, in degrees counterclockwise*
0 create outline with 8 corners*
4,1,8,$1,$2,$3,$4,$5,$6,$7,$8,$9,$10,$11,$12,$13,$14,$15,$16,$1,$2,$17*%
G04 Aperture macros list end*
G04 #@! TA.AperFunction,ComponentPad*
%ADD10O,1.320800X2.641600*%
G04 #@! TD*
G04 #@! TA.AperFunction,SMDPad,CuDef*
%ADD11RoundRect,0.381000X-0.381000X-2.794000X0.381000X-2.794000X0.381000X2.794000X-0.381000X2.794000X0*%
G04 #@! TD*
G04 #@! TA.AperFunction,ComponentPad*
%ADD12R,1.600000X1.600000*%
G04 #@! TD*
G04 #@! TA.AperFunction,ComponentPad*
%ADD13O,1.600000X1.600000*%
G04 #@! TD*
G04 #@! TA.AperFunction,SMDPad,CuDef*
%ADD14R,2.540000X5.080000*%
G04 #@! TD*
G04 #@! TA.AperFunction,ComponentPad*
%ADD15O,2.641600X1.320800*%
G04 #@! TD*
G04 #@! TA.AperFunction,ComponentPad*
%ADD16C,1.600000*%
G04 #@! TD*
G04 #@! TA.AperFunction,ComponentPad*
%ADD17Outline8P,-0.800100X0.400050X-0.400050X0.800100X0.400050X0.800100X0.800100X0.400050X0.800100X-0.400050X0.400050X-0.800100X-0.400050X-0.800100X-0.800100X-0.400050X0.000000*%
G04 #@! TD*
G04 #@! TA.AperFunction,ComponentPad*
%ADD18Outline8P,-0.762000X0.381000X-0.381000X0.762000X0.381000X0.762000X0.762000X0.381000X0.762000X-0.381000X0.381000X-0.762000X-0.381000X-0.762000X-0.762000X-0.381000X270.000000*%
G04 #@! TD*
G04 #@! TA.AperFunction,ViaPad*
%ADD19C,0.800000*%
G04 #@! TD*
G04 #@! TA.AperFunction,Conductor*
%ADD20C,0.250000*%
G04 #@! TD*
G04 APERTURE END LIST*
D10*
X135801100Y-112993600D03*
X138341100Y-112993600D03*
X140881100Y-112993600D03*
X143421100Y-112993600D03*
X145961100Y-112993600D03*
X148501100Y-112993600D03*
X151041100Y-112993600D03*
X153581100Y-112993600D03*
X156121100Y-112993600D03*
X158661100Y-112993600D03*
X161201100Y-112993600D03*
X163741100Y-112993600D03*
X166281100Y-112993600D03*
X168821100Y-112993600D03*
X171361100Y-112993600D03*
X173901100Y-112993600D03*
X173901100Y-97753600D03*
X171361100Y-97753600D03*
X168821100Y-97753600D03*
X166281100Y-97753600D03*
X163741100Y-97753600D03*
X161201100Y-97753600D03*
X158661100Y-97753600D03*
X156121100Y-97753600D03*
X153581100Y-97753600D03*
X151041100Y-97753600D03*
X148501100Y-97753600D03*
X145961100Y-97753600D03*
X143421100Y-97753600D03*
X140881100Y-97753600D03*
X138341100Y-97753600D03*
X135801100Y-97753600D03*
D11*
X121841100Y-125828600D03*
X124381100Y-125828600D03*
X126921100Y-125828600D03*
X129461100Y-125828600D03*
X132001100Y-125828600D03*
X134541100Y-125828600D03*
X137081100Y-125828600D03*
X139621100Y-125828600D03*
X142161100Y-125828600D03*
X144701100Y-125828600D03*
X147241100Y-125828600D03*
X149781100Y-125828600D03*
X152321100Y-125828600D03*
X154861100Y-125828600D03*
X157401100Y-125828600D03*
X159941100Y-125828600D03*
X162481100Y-125828600D03*
X165021100Y-125828600D03*
X167561100Y-125828600D03*
X170101100Y-125828600D03*
X172641100Y-125828600D03*
X175181100Y-125828600D03*
D12*
X123190000Y-114935000D03*
D13*
X130810000Y-114935000D03*
D12*
X123190000Y-112020000D03*
D13*
X130810000Y-112020000D03*
D14*
X126911100Y-85053600D03*
D15*
X123101100Y-93345000D03*
X123101100Y-95885000D03*
X123101100Y-98425000D03*
X123101100Y-100965000D03*
X123101100Y-103505000D03*
X123101100Y-106045000D03*
X123101100Y-108585000D03*
X130721100Y-108585000D03*
X130721100Y-106045000D03*
X130721100Y-103505000D03*
X130721100Y-100965000D03*
X130721100Y-98425000D03*
X130721100Y-95885000D03*
X130721100Y-93345000D03*
D16*
X133350000Y-85090000D03*
D13*
X143510000Y-85090000D03*
D17*
X161201100Y-95213600D03*
D10*
X154851100Y-90768600D03*
X157391100Y-90768600D03*
X159931100Y-90768600D03*
X162471100Y-90768600D03*
X165011100Y-90768600D03*
X167551100Y-90768600D03*
X170091100Y-90768600D03*
X172631100Y-90768600D03*
X175171100Y-90768600D03*
X177711100Y-90768600D03*
X177711100Y-83148600D03*
X175171100Y-83148600D03*
X172631100Y-83148600D03*
X170091100Y-83148600D03*
X167551100Y-83148600D03*
X165011100Y-83148600D03*
X162471100Y-83148600D03*
X159931100Y-83148600D03*
X157391100Y-83148600D03*
X154851100Y-83148600D03*
D18*
X129161100Y-81803600D03*
X129161100Y-88303600D03*
X124661100Y-81803600D03*
X124661100Y-88303600D03*
D19*
X151019000Y-120015000D03*
X149611500Y-119336900D03*
X138558700Y-93314900D03*
D20*
X120650000Y-97623200D02*
X121451800Y-98425000D01*
X120650000Y-90805000D02*
X120650000Y-97623200D01*
X123151400Y-88303600D02*
X120650000Y-90805000D01*
X124661100Y-88303600D02*
X123151400Y-88303600D01*
X121870100Y-109855000D02*
X121870100Y-125799600D01*
X120650000Y-108634900D02*
X121870100Y-109855000D01*
X121870100Y-125799600D02*
X121841100Y-125828600D01*
X120650000Y-108585000D02*
X121870100Y-108585000D01*
X120650000Y-99226800D02*
X120650000Y-108585000D01*
X121451800Y-98425000D02*
X120650000Y-99226800D01*
X175181100Y-115922900D02*
X175181100Y-125828600D01*
X123101100Y-108585000D02*
X121870100Y-108585000D01*
X173901100Y-114642900D02*
X175181100Y-115922900D01*
X121565200Y-98425000D02*
X121451800Y-98425000D01*
X123101100Y-98425000D02*
X121565200Y-98425000D01*
X173901100Y-112993600D02*
X173901100Y-114642900D01*
X129070600Y-94995500D02*
X129070600Y-98850100D01*
X124479700Y-125730000D02*
X124381100Y-125828600D01*
X125228800Y-119881200D02*
X127501200Y-119881200D01*
X154851100Y-83148600D02*
X152982500Y-81280000D01*
X135801100Y-99402900D02*
X134812200Y-100391800D01*
X129070600Y-98850100D02*
X129871100Y-99650600D01*
X134812200Y-112570200D02*
X127501200Y-119881200D01*
X129871100Y-99650600D02*
X134071000Y-99650600D01*
X126921100Y-119960100D02*
X126921100Y-125828600D01*
X134812200Y-100391800D02*
X134812200Y-112570200D01*
X127000000Y-119881200D02*
X126921100Y-119960100D01*
X124381100Y-120728900D02*
X125228800Y-119881200D01*
X126921100Y-125828600D02*
X126822500Y-125730000D01*
X134071000Y-99650600D02*
X134812200Y-100391800D01*
X124460000Y-125749700D02*
X124381100Y-125828600D01*
X130721100Y-93345000D02*
X129070600Y-94995500D01*
X135801100Y-97753600D02*
X135801100Y-99402900D01*
X137160000Y-81280000D02*
X133350000Y-85090000D01*
X124381100Y-125828600D02*
X124381100Y-120728900D01*
X152982500Y-81280000D02*
X137160000Y-81280000D01*
X130721100Y-103505000D02*
X129071800Y-103505000D01*
X139500500Y-91863100D02*
X129498700Y-91863100D01*
X161201100Y-95213600D02*
X160071000Y-95213600D01*
X160071000Y-95213600D02*
X142851000Y-95213600D01*
X129498700Y-91863100D02*
X128135700Y-93226100D01*
X128135700Y-102568900D02*
X129071800Y-103505000D01*
X128135700Y-93226100D02*
X128135700Y-102568900D01*
X142851000Y-95213600D02*
X139500500Y-91863100D01*
X147241100Y-119936100D02*
X147241100Y-125828600D01*
X128803400Y-107535100D02*
X131317000Y-107535100D01*
X143421100Y-97753600D02*
X143421100Y-99402900D01*
X128617100Y-100988200D02*
X128617100Y-93386200D01*
X144410000Y-117105000D02*
X147241100Y-119936100D01*
X143421100Y-96928900D02*
X143421100Y-97753600D01*
X129863900Y-102235000D02*
X128617100Y-100988200D01*
X144410000Y-100391800D02*
X144410000Y-117105000D01*
X124318500Y-112020000D02*
X128803400Y-107535100D01*
X132397200Y-106454900D02*
X132397200Y-103072500D01*
X131317000Y-107535100D02*
X132397200Y-106454900D01*
X143421100Y-99402900D02*
X144410000Y-100391800D01*
X139026500Y-92351100D02*
X142779700Y-96104300D01*
X131559700Y-102235000D02*
X129863900Y-102235000D01*
X129652200Y-92351100D02*
X139026500Y-92351100D01*
X142779700Y-96104300D02*
X143421100Y-96104300D01*
X123190000Y-112020000D02*
X124318500Y-112020000D01*
X128617100Y-93386200D02*
X129652200Y-92351100D01*
X132397200Y-103072500D02*
X131559700Y-102235000D01*
X143421100Y-96928900D02*
X143421100Y-96104300D01*
X137081100Y-96968300D02*
X137081100Y-125828600D01*
X130721100Y-98425000D02*
X132370400Y-98425000D01*
X134741200Y-96054200D02*
X136167000Y-96054200D01*
X132370400Y-98425000D02*
X134741200Y-96054200D01*
X136167000Y-96054200D02*
X137081100Y-96968300D01*
X127682100Y-93020300D02*
X129292900Y-91409500D01*
X162336400Y-94679500D02*
X162336400Y-96618300D01*
X161732500Y-94075600D02*
X162336400Y-94679500D01*
X158879000Y-82078800D02*
X158879000Y-92024800D01*
X158002200Y-92901600D02*
X158879000Y-92024800D01*
X162336400Y-96618300D02*
X161201100Y-97753600D01*
X129071800Y-106045000D02*
X127682100Y-104655300D01*
X140292500Y-91409500D02*
X141784600Y-92901600D01*
X158879000Y-92024800D02*
X160929800Y-94075600D01*
X160929800Y-94075600D02*
X161732500Y-94075600D01*
X141784600Y-92901600D02*
X158002200Y-92901600D01*
X130721100Y-106045000D02*
X129071800Y-106045000D01*
X165011100Y-81499300D02*
X159458500Y-81499300D01*
X129292900Y-91409500D02*
X140292500Y-91409500D01*
X127682100Y-104655300D02*
X127682100Y-93020300D01*
X159458500Y-81499300D02*
X158879000Y-82078800D01*
X165011100Y-83148600D02*
X165011100Y-81499300D01*
X159280000Y-81019000D02*
X158425400Y-81873600D01*
X177711100Y-81499300D02*
X177230800Y-81019000D01*
X156121100Y-88108600D02*
X156121100Y-91587700D01*
X158425400Y-81873600D02*
X158425400Y-85804300D01*
X158425400Y-85804300D02*
X156121100Y-88108600D01*
X152346500Y-90932400D02*
X127163000Y-90932400D01*
X127163000Y-90932400D02*
X124750400Y-93345000D01*
X177230800Y-81019000D02*
X159280000Y-81019000D01*
X155260800Y-92448000D02*
X153862100Y-92448000D01*
X123101100Y-93345000D02*
X124750400Y-93345000D01*
X156121100Y-91587700D02*
X155260800Y-92448000D01*
X177711100Y-83148600D02*
X177711100Y-81499300D01*
X153862100Y-92448000D02*
X152346500Y-90932400D01*
X149265211Y-120064611D02*
X148875100Y-119674500D01*
X149490000Y-100391800D02*
X148501100Y-99402900D01*
X148501100Y-99402900D02*
X148501100Y-97753600D01*
X148875100Y-119674500D02*
X148875100Y-115561000D01*
X150969389Y-120064611D02*
X149265211Y-120064611D01*
X148875100Y-115561000D02*
X149490000Y-114946100D01*
X149490000Y-114946100D02*
X149490000Y-100391800D01*
X151019000Y-120015000D02*
X150969389Y-120064611D01*
X151041100Y-97753600D02*
X151041100Y-99402900D01*
X149611500Y-119336900D02*
X150052200Y-118896200D01*
X150052200Y-100391800D02*
X151041100Y-99402900D01*
X150052200Y-118896200D02*
X150052200Y-100391800D01*
X163741100Y-97352600D02*
X163741100Y-96104300D01*
X163741100Y-88607900D02*
X159931100Y-84797900D01*
X154861100Y-108282900D02*
X154861100Y-125828600D01*
X163741100Y-96104300D02*
X163741100Y-88607900D01*
X159931100Y-83148600D02*
X159931100Y-84797900D01*
X163741100Y-99402900D02*
X154861100Y-108282900D01*
X163741100Y-97753600D02*
X163741100Y-99402900D01*
X163741100Y-97352600D02*
X163741100Y-97753600D01*
X166281100Y-97468500D02*
X166281100Y-97753600D01*
X157401100Y-108282900D02*
X157401100Y-125828600D01*
X162471100Y-83148600D02*
X162471100Y-84797900D01*
X166281100Y-99402900D02*
X157401100Y-108282900D01*
X162471100Y-84797900D02*
X166281100Y-88607900D01*
X166281100Y-97468500D02*
X166281100Y-96104300D01*
X166281100Y-88607900D02*
X166281100Y-96104300D01*
X166281100Y-97753600D02*
X166281100Y-99402900D01*
X170091100Y-83148600D02*
X170091100Y-84797900D01*
X171080100Y-85786900D02*
X171080100Y-93845300D01*
X171080100Y-93845300D02*
X168821100Y-96104300D01*
X168821100Y-97753600D02*
X168821100Y-96104300D01*
X159941100Y-108282900D02*
X168821100Y-99402900D01*
X168821100Y-97753600D02*
X168821100Y-99402900D01*
X159941100Y-125828600D02*
X159941100Y-108282900D01*
X170091100Y-84797900D02*
X171080100Y-85786900D01*
X171642200Y-95823200D02*
X171361100Y-96104300D01*
X171361100Y-97753600D02*
X171361100Y-99402900D01*
X172631100Y-84797900D02*
X171642200Y-85786800D01*
X171361100Y-97753600D02*
X171361100Y-96104300D01*
X172631100Y-83148600D02*
X172631100Y-84797900D01*
X162481100Y-108282900D02*
X171361100Y-99402900D01*
X162481100Y-125828600D02*
X162481100Y-108282900D01*
X171642200Y-85786800D02*
X171642200Y-95823200D01*
X172631100Y-90768600D02*
X172631100Y-94834300D01*
X164816400Y-125623900D02*
X165021100Y-125828600D01*
X173901100Y-99402900D02*
X164816400Y-108487600D01*
X164816400Y-108487600D02*
X164816400Y-125623900D01*
X172631100Y-94834300D02*
X173901100Y-96104300D01*
X173901100Y-97753600D02*
X173901100Y-99402900D01*
X173901100Y-97753600D02*
X173901100Y-96104300D01*
X166265700Y-110890700D02*
X165270000Y-111886400D01*
X171361100Y-111344300D02*
X170907500Y-110890700D01*
X170907500Y-110890700D02*
X166265700Y-110890700D01*
X167561100Y-119936100D02*
X167561100Y-125828600D01*
X165270000Y-111886400D02*
X165270000Y-117645000D01*
X171361100Y-112993600D02*
X171361100Y-111344300D01*
X165270000Y-117645000D02*
X167561100Y-119936100D01*
X168821100Y-112993600D02*
X168821100Y-118656100D01*
X168821100Y-118656100D02*
X170101100Y-119936100D01*
X170101100Y-119936100D02*
X170101100Y-125828600D01*
X169930700Y-117356300D02*
X172641100Y-120066700D01*
X169236200Y-111344300D02*
X169930700Y-112038800D01*
X169930700Y-112038800D02*
X169930700Y-117356300D01*
X166281100Y-112993600D02*
X167930400Y-111344300D01*
X172641100Y-120066700D02*
X172641100Y-125828600D01*
X167930400Y-111344300D02*
X169236200Y-111344300D01*
X139376700Y-110308700D02*
X138341100Y-111344300D01*
X139376700Y-94132900D02*
X139376700Y-110308700D01*
X138341100Y-112993600D02*
X138341100Y-111344300D01*
X138558700Y-93314900D02*
X139376700Y-94132900D01*
X129161100Y-88303600D02*
X128779600Y-87922100D01*
X126911100Y-85053600D02*
X126911100Y-87922100D01*
X128779600Y-82185100D02*
X126911100Y-82185100D01*
X154851100Y-90768600D02*
X154851100Y-89119300D01*
X154851100Y-89119300D02*
X129976800Y-89119300D01*
X129161100Y-81803600D02*
X128779600Y-82185100D01*
X126911100Y-85053600D02*
X126911100Y-82185100D01*
X128779600Y-87922100D02*
X126911100Y-87922100D01*
X129976800Y-89119300D02*
X129161100Y-88303600D01*
G04 #@! TA.AperFunction,Conductor*
G36*
X123398741Y-81032102D02*
G01*
X123445234Y-81085758D01*
X123455338Y-81156032D01*
X123447071Y-81186217D01*
X123404994Y-81288050D01*
X123400729Y-81304193D01*
X123391590Y-81377048D01*
X123391100Y-81384893D01*
X123391100Y-81531485D01*
X123395575Y-81546724D01*
X123396965Y-81547929D01*
X123404648Y-81549600D01*
X125912984Y-81549600D01*
X125928223Y-81545125D01*
X125929428Y-81543735D01*
X125931099Y-81536052D01*
X125931099Y-81384927D01*
X125930599Y-81377008D01*
X125921261Y-81303336D01*
X125916964Y-81287172D01*
X125875128Y-81186419D01*
X125867478Y-81115836D01*
X125899202Y-81052322D01*
X125960228Y-81016041D01*
X125991495Y-81012100D01*
X127830080Y-81012100D01*
X127898201Y-81032102D01*
X127944694Y-81085758D01*
X127954798Y-81156032D01*
X127946533Y-81186211D01*
X127901289Y-81295709D01*
X127900240Y-81304069D01*
X127900240Y-81304070D01*
X127891193Y-81376193D01*
X127890600Y-81380917D01*
X127890600Y-81425600D01*
X127870598Y-81493721D01*
X127816942Y-81540214D01*
X127764600Y-81551600D01*
X126982893Y-81551600D01*
X126959284Y-81549368D01*
X126958981Y-81549310D01*
X126958977Y-81549310D01*
X126951194Y-81547825D01*
X126895149Y-81551351D01*
X126887238Y-81551600D01*
X126871244Y-81551600D01*
X126855370Y-81553606D01*
X126847510Y-81554348D01*
X126820051Y-81556076D01*
X126799363Y-81557377D01*
X126799362Y-81557377D01*
X126791450Y-81557875D01*
X126783909Y-81560325D01*
X126783613Y-81560421D01*
X126760469Y-81565594D01*
X126760165Y-81565632D01*
X126760160Y-81565633D01*
X126752303Y-81566626D01*
X126744938Y-81569542D01*
X126744934Y-81569543D01*
X126700089Y-81587299D01*
X126692670Y-81589971D01*
X126639225Y-81607336D01*
X126632529Y-81611586D01*
X126632528Y-81611586D01*
X126632269Y-81611750D01*
X126611142Y-81622515D01*
X126610854Y-81622629D01*
X126610849Y-81622632D01*
X126603483Y-81625548D01*
X126597075Y-81630204D01*
X126597069Y-81630207D01*
X126558048Y-81658558D01*
X126551511Y-81663001D01*
X126504082Y-81693100D01*
X126498656Y-81698878D01*
X126498655Y-81698879D01*
X126498441Y-81699107D01*
X126480654Y-81714788D01*
X126480409Y-81714966D01*
X126480407Y-81714968D01*
X126473993Y-81719628D01*
X126468939Y-81725737D01*
X126468938Y-81725738D01*
X126438197Y-81762896D01*
X126432966Y-81768830D01*
X126399942Y-81803998D01*
X126399940Y-81804001D01*
X126394514Y-81809779D01*
X126390545Y-81816999D01*
X126377219Y-81836606D01*
X126377020Y-81836846D01*
X126377016Y-81836853D01*
X126371967Y-81842956D01*
X126366794Y-81853949D01*
X126348053Y-81893776D01*
X126344471Y-81900808D01*
X126323033Y-81939803D01*
X126272689Y-81989860D01*
X126212620Y-82005100D01*
X125592966Y-82005100D01*
X125589569Y-82005469D01*
X125538634Y-82011002D01*
X125538632Y-82011002D01*
X125530784Y-82011855D01*
X125523391Y-82014627D01*
X125523389Y-82014627D01*
X125430147Y-82049582D01*
X125385918Y-82057600D01*
X124933215Y-82057600D01*
X124917976Y-82062075D01*
X124916771Y-82063465D01*
X124915100Y-82071148D01*
X124915100Y-83055484D01*
X124919575Y-83070723D01*
X124920965Y-83071928D01*
X124928648Y-83073599D01*
X125006600Y-83073599D01*
X125074721Y-83093601D01*
X125121214Y-83147257D01*
X125132600Y-83199599D01*
X125132600Y-86907600D01*
X125112598Y-86975721D01*
X125058942Y-87022214D01*
X125006600Y-87033600D01*
X124933215Y-87033600D01*
X124917976Y-87038075D01*
X124916771Y-87039465D01*
X124915100Y-87047148D01*
X124915100Y-88031485D01*
X124919575Y-88046724D01*
X124920965Y-88047929D01*
X124928648Y-88049600D01*
X125385918Y-88049600D01*
X125430147Y-88057618D01*
X125523389Y-88092573D01*
X125523391Y-88092573D01*
X125530784Y-88095345D01*
X125538632Y-88096198D01*
X125538634Y-88096198D01*
X125589569Y-88101731D01*
X125592966Y-88102100D01*
X126211940Y-88102100D01*
X126280061Y-88122102D01*
X126326554Y-88175758D01*
X126329870Y-88184275D01*
X126330885Y-88186433D01*
X126333336Y-88193975D01*
X126337586Y-88200671D01*
X126337586Y-88200672D01*
X126337750Y-88200931D01*
X126348515Y-88222058D01*
X126348629Y-88222346D01*
X126348632Y-88222351D01*
X126351548Y-88229717D01*
X126356204Y-88236125D01*
X126356207Y-88236131D01*
X126384558Y-88275152D01*
X126389001Y-88281689D01*
X126419100Y-88329118D01*
X126424878Y-88334544D01*
X126424879Y-88334545D01*
X126425107Y-88334759D01*
X126440788Y-88352546D01*
X126445628Y-88359207D01*
X126451737Y-88364261D01*
X126451738Y-88364262D01*
X126488896Y-88395003D01*
X126494830Y-88400234D01*
X126529998Y-88433258D01*
X126530001Y-88433260D01*
X126535779Y-88438686D01*
X126543003Y-88442658D01*
X126562606Y-88455981D01*
X126562846Y-88456180D01*
X126562853Y-88456184D01*
X126568956Y-88461233D01*
X126605043Y-88478214D01*
X126619776Y-88485147D01*
X126626808Y-88488729D01*
X126676040Y-88515795D01*
X126683715Y-88517765D01*
X126683721Y-88517768D01*
X126684019Y-88517844D01*
X126706328Y-88525876D01*
X126706603Y-88526006D01*
X126706611Y-88526009D01*
X126713782Y-88529383D01*
X126768949Y-88539906D01*
X126776658Y-88541629D01*
X126810651Y-88550357D01*
X126823393Y-88553629D01*
X126823394Y-88553629D01*
X126831070Y-88555600D01*
X126839307Y-88555600D01*
X126862916Y-88557832D01*
X126863219Y-88557890D01*
X126863223Y-88557890D01*
X126871006Y-88559375D01*
X126927051Y-88555849D01*
X126934962Y-88555600D01*
X127764599Y-88555600D01*
X127832720Y-88575602D01*
X127879213Y-88629258D01*
X127890599Y-88681600D01*
X127890599Y-88726281D01*
X127901511Y-88812359D01*
X127957369Y-88946881D01*
X127962536Y-88953530D01*
X127962537Y-88953532D01*
X127980601Y-88976778D01*
X128010063Y-89014691D01*
X128450011Y-89454638D01*
X128518591Y-89507788D01*
X128653209Y-89563411D01*
X128661569Y-89564460D01*
X128661570Y-89564460D01*
X128734509Y-89573610D01*
X128734513Y-89573610D01*
X128738417Y-89574100D01*
X128796734Y-89574100D01*
X129485797Y-89574101D01*
X129553918Y-89594103D01*
X129572049Y-89608250D01*
X129595699Y-89630459D01*
X129595703Y-89630462D01*
X129601479Y-89635886D01*
X129608425Y-89639705D01*
X129608428Y-89639707D01*
X129619234Y-89645648D01*
X129635753Y-89656499D01*
X129651759Y-89668914D01*
X129659028Y-89672059D01*
X129659032Y-89672062D01*
X129692337Y-89686474D01*
X129702987Y-89691691D01*
X129741740Y-89712995D01*
X129749415Y-89714966D01*
X129749416Y-89714966D01*
X129761362Y-89718033D01*
X129780067Y-89724437D01*
X129798655Y-89732481D01*
X129806478Y-89733720D01*
X129806488Y-89733723D01*
X129842324Y-89739399D01*
X129853944Y-89741805D01*
X129889089Y-89750828D01*
X129896770Y-89752800D01*
X129917024Y-89752800D01*
X129936734Y-89754351D01*
X129956743Y-89757520D01*
X129964635Y-89756774D01*
X130000761Y-89753359D01*
X130012619Y-89752800D01*
X153574229Y-89752800D01*
X153642350Y-89772802D01*
X153688843Y-89826458D01*
X153699356Y-89893610D01*
X153691323Y-89961482D01*
X153682200Y-90038556D01*
X153682200Y-91068005D01*
X153662198Y-91136126D01*
X153608542Y-91182619D01*
X153538268Y-91192723D01*
X153473688Y-91163229D01*
X153467104Y-91157100D01*
X152850147Y-90540142D01*
X152842613Y-90531863D01*
X152838500Y-90525382D01*
X152788848Y-90478756D01*
X152786007Y-90476002D01*
X152766270Y-90456265D01*
X152763073Y-90453785D01*
X152754051Y-90446080D01*
X152749897Y-90442179D01*
X152721821Y-90415814D01*
X152714875Y-90411995D01*
X152714872Y-90411993D01*
X152704066Y-90406052D01*
X152687547Y-90395201D01*
X152687083Y-90394841D01*
X152671541Y-90382786D01*
X152664272Y-90379641D01*
X152664268Y-90379638D01*
X152630963Y-90365226D01*
X152620313Y-90360009D01*
X152581560Y-90338705D01*
X152561937Y-90333667D01*
X152543234Y-90327263D01*
X152531920Y-90322367D01*
X152531919Y-90322367D01*
X152524645Y-90319219D01*
X152516822Y-90317980D01*
X152516812Y-90317977D01*
X152480976Y-90312301D01*
X152469356Y-90309895D01*
X152434211Y-90300872D01*
X152434210Y-90300872D01*
X152426530Y-90298900D01*
X152406276Y-90298900D01*
X152386565Y-90297349D01*
X152374386Y-90295420D01*
X152366557Y-90294180D01*
X152337286Y-90296947D01*
X152322539Y-90298341D01*
X152310681Y-90298900D01*
X127241768Y-90298900D01*
X127230585Y-90298373D01*
X127223092Y-90296698D01*
X127215166Y-90296947D01*
X127215165Y-90296947D01*
X127155002Y-90298838D01*
X127151044Y-90298900D01*
X127123144Y-90298900D01*
X127119154Y-90299404D01*
X127107320Y-90300336D01*
X127063111Y-90301726D01*
X127055495Y-90303939D01*
X127055493Y-90303939D01*
X127043652Y-90307379D01*
X127024293Y-90311388D01*
X127022983Y-90311554D01*
X127004203Y-90313926D01*
X126996837Y-90316842D01*
X126996831Y-90316844D01*
X126963098Y-90330200D01*
X126951868Y-90334045D01*
X126935828Y-90338705D01*
X126909407Y-90346381D01*
X126902584Y-90350416D01*
X126891966Y-90356695D01*
X126874213Y-90365392D01*
X126866568Y-90368419D01*
X126855383Y-90372848D01*
X126841705Y-90382786D01*
X126819612Y-90398837D01*
X126809695Y-90405351D01*
X126771638Y-90427858D01*
X126757317Y-90442179D01*
X126742284Y-90455019D01*
X126725893Y-90466928D01*
X126717217Y-90477416D01*
X126697702Y-90501005D01*
X126689712Y-90509784D01*
X124725039Y-92474456D01*
X124662727Y-92508482D01*
X124591911Y-92503417D01*
X124557938Y-92484311D01*
X124538723Y-92469163D01*
X124400856Y-92360478D01*
X124395745Y-92357789D01*
X124395742Y-92357787D01*
X124224665Y-92267779D01*
X124210735Y-92260450D01*
X124005569Y-92196745D01*
X123987026Y-92194550D01*
X123834831Y-92176536D01*
X123834824Y-92176536D01*
X123831144Y-92176100D01*
X122386198Y-92176100D01*
X122226772Y-92190749D01*
X122221210Y-92192318D01*
X122221208Y-92192318D01*
X122163256Y-92208662D01*
X122020009Y-92249062D01*
X122014832Y-92251615D01*
X122014827Y-92251617D01*
X121839185Y-92338235D01*
X121827335Y-92344079D01*
X121655202Y-92472616D01*
X121651288Y-92476850D01*
X121651286Y-92476852D01*
X121518071Y-92620964D01*
X121509376Y-92630370D01*
X121394740Y-92812057D01*
X121315134Y-93011592D01*
X121314008Y-93017252D01*
X121314007Y-93017256D01*
X121274350Y-93216626D01*
X121273223Y-93222293D01*
X121273147Y-93228068D01*
X121273147Y-93228072D01*
X121272097Y-93308335D01*
X121270411Y-93437104D01*
X121271390Y-93442801D01*
X121271390Y-93442802D01*
X121286518Y-93530842D01*
X121306792Y-93648830D01*
X121381148Y-93850380D01*
X121490988Y-94035006D01*
X121494794Y-94039346D01*
X121494797Y-94039350D01*
X121621384Y-94183694D01*
X121632635Y-94196523D01*
X121801344Y-94329522D01*
X121806455Y-94332211D01*
X121806458Y-94332213D01*
X121903028Y-94383021D01*
X121991465Y-94429550D01*
X122142243Y-94476367D01*
X122175221Y-94486607D01*
X122196631Y-94493255D01*
X122197537Y-94493362D01*
X122258621Y-94526339D01*
X122292943Y-94588488D01*
X122288217Y-94659327D01*
X122245942Y-94716365D01*
X122204154Y-94737128D01*
X122020009Y-94789062D01*
X122014832Y-94791615D01*
X122014827Y-94791617D01*
X121839185Y-94878235D01*
X121827335Y-94884079D01*
X121655202Y-95012616D01*
X121651288Y-95016850D01*
X121651286Y-95016852D01*
X121628701Y-95041285D01*
X121509376Y-95170370D01*
X121394740Y-95352057D01*
X121315134Y-95551592D01*
X121314008Y-95557252D01*
X121314007Y-95557256D01*
X121274350Y-95756626D01*
X121273223Y-95762293D01*
X121273147Y-95768068D01*
X121273147Y-95768072D01*
X121272398Y-95825289D01*
X121270411Y-95977104D01*
X121271390Y-95982801D01*
X121271390Y-95982802D01*
X121299818Y-96148242D01*
X121306792Y-96188830D01*
X121381148Y-96390380D01*
X121490988Y-96575006D01*
X121494794Y-96579346D01*
X121494797Y-96579350D01*
X121576496Y-96672509D01*
X121632635Y-96736523D01*
X121801344Y-96869522D01*
X121806455Y-96872211D01*
X121806458Y-96872213D01*
X121880410Y-96911121D01*
X121991465Y-96969550D01*
X122196631Y-97033255D01*
X122198356Y-97033459D01*
X122259677Y-97066568D01*
X122293996Y-97128718D01*
X122289265Y-97199557D01*
X122246988Y-97256593D01*
X122205204Y-97277352D01*
X122025753Y-97327962D01*
X122015006Y-97332087D01*
X121832778Y-97421952D01*
X121822970Y-97427962D01*
X121660162Y-97549536D01*
X121651622Y-97557225D01*
X121513693Y-97706436D01*
X121506692Y-97715561D01*
X121398269Y-97887401D01*
X121393048Y-97897649D01*
X121317757Y-98086367D01*
X121314488Y-98097403D01*
X121303383Y-98153230D01*
X121304535Y-98166106D01*
X121319691Y-98171000D01*
X124885348Y-98171000D01*
X124898310Y-98167194D01*
X124900246Y-98152278D01*
X124895902Y-98126997D01*
X124892922Y-98115877D01*
X124822597Y-97925252D01*
X124817647Y-97914874D01*
X124713761Y-97740257D01*
X124706995Y-97730945D01*
X124573026Y-97578182D01*
X124564683Y-97570265D01*
X124405122Y-97444477D01*
X124395465Y-97438206D01*
X124215660Y-97343606D01*
X124205026Y-97339201D01*
X124010977Y-97278947D01*
X124005010Y-97277679D01*
X123942537Y-97243949D01*
X123908218Y-97181799D01*
X123912947Y-97110960D01*
X123955224Y-97053923D01*
X123997006Y-97033165D01*
X124182191Y-96980938D01*
X124187368Y-96978385D01*
X124187373Y-96978383D01*
X124369686Y-96888475D01*
X124374865Y-96885921D01*
X124546998Y-96757384D01*
X124566282Y-96736523D01*
X124688905Y-96603870D01*
X124688907Y-96603867D01*
X124692824Y-96599630D01*
X124807460Y-96417943D01*
X124887066Y-96218408D01*
X124892325Y-96191972D01*
X124927850Y-96013374D01*
X124927850Y-96013371D01*
X124928977Y-96007707D01*
X124929061Y-96001345D01*
X124930880Y-95862299D01*
X124931789Y-95792896D01*
X124930696Y-95786532D01*
X124896387Y-95586867D01*
X124896387Y-95586866D01*
X124895408Y-95581170D01*
X124821052Y-95379620D01*
X124711212Y-95194994D01*
X124707406Y-95190654D01*
X124707403Y-95190650D01*
X124573372Y-95037818D01*
X124569565Y-95033477D01*
X124400856Y-94900478D01*
X124395745Y-94897789D01*
X124395742Y-94897787D01*
X124299172Y-94846979D01*
X124210735Y-94800450D01*
X124005569Y-94736745D01*
X124004663Y-94736638D01*
X123943579Y-94703661D01*
X123909257Y-94641512D01*
X123913983Y-94570673D01*
X123956258Y-94513635D01*
X123998046Y-94492872D01*
X123998968Y-94492612D01*
X124182191Y-94440938D01*
X124187368Y-94438385D01*
X124187373Y-94438383D01*
X124369686Y-94348475D01*
X124374865Y-94345921D01*
X124504917Y-94248807D01*
X124542374Y-94220837D01*
X124542375Y-94220836D01*
X124546998Y-94217384D01*
X124566282Y-94196523D01*
X124688905Y-94063870D01*
X124688907Y-94063867D01*
X124692824Y-94059630D01*
X124707970Y-94035625D01*
X124761237Y-93988686D01*
X124810571Y-93976922D01*
X124842370Y-93975922D01*
X124850289Y-93975673D01*
X124869743Y-93970021D01*
X124889100Y-93966013D01*
X124901330Y-93964468D01*
X124901331Y-93964468D01*
X124909197Y-93963474D01*
X124916568Y-93960555D01*
X124916570Y-93960555D01*
X124950312Y-93947196D01*
X124961542Y-93943351D01*
X124996383Y-93933229D01*
X124996384Y-93933229D01*
X125003993Y-93931018D01*
X125010812Y-93926985D01*
X125010817Y-93926983D01*
X125021428Y-93920707D01*
X125039176Y-93912012D01*
X125058017Y-93904552D01*
X125093787Y-93878564D01*
X125103707Y-93872048D01*
X125134935Y-93853580D01*
X125134938Y-93853578D01*
X125141762Y-93849542D01*
X125156083Y-93835221D01*
X125171117Y-93822380D01*
X125181094Y-93815131D01*
X125187507Y-93810472D01*
X125215698Y-93776395D01*
X125223688Y-93767616D01*
X127388499Y-91602805D01*
X127450811Y-91568779D01*
X127477594Y-91565900D01*
X127936405Y-91565900D01*
X128004526Y-91585902D01*
X128051019Y-91639558D01*
X128061123Y-91709832D01*
X128031629Y-91774412D01*
X128025500Y-91780995D01*
X127289847Y-92516648D01*
X127281561Y-92524188D01*
X127275082Y-92528300D01*
X127269657Y-92534077D01*
X127228457Y-92577951D01*
X127225702Y-92580793D01*
X127205965Y-92600530D01*
X127203485Y-92603727D01*
X127195782Y-92612747D01*
X127165514Y-92644979D01*
X127161695Y-92651925D01*
X127161693Y-92651928D01*
X127155752Y-92662734D01*
X127144901Y-92679253D01*
X127132486Y-92695259D01*
X127129341Y-92702528D01*
X127129338Y-92702532D01*
X127114926Y-92735837D01*
X127109709Y-92746487D01*
X127088405Y-92785240D01*
X127086434Y-92792915D01*
X127086434Y-92792916D01*
X127083367Y-92804862D01*
X127076963Y-92823566D01*
X127068919Y-92842155D01*
X127067680Y-92849978D01*
X127067677Y-92849988D01*
X127062001Y-92885824D01*
X127059595Y-92897444D01*
X127050572Y-92932589D01*
X127048600Y-92940270D01*
X127048600Y-92960524D01*
X127047049Y-92980234D01*
X127043880Y-93000243D01*
X127044626Y-93008135D01*
X127048041Y-93044261D01*
X127048600Y-93056119D01*
X127048600Y-104576533D01*
X127048073Y-104587716D01*
X127046398Y-104595209D01*
X127046647Y-104603135D01*
X127046647Y-104603136D01*
X127048538Y-104663286D01*
X127048600Y-104667245D01*
X127048600Y-104695156D01*
X127049097Y-104699090D01*
X127049097Y-104699091D01*
X127049105Y-104699156D01*
X127050038Y-104710993D01*
X127051427Y-104755189D01*
X127057078Y-104774639D01*
X127061087Y-104794000D01*
X127063626Y-104814097D01*
X127066545Y-104821468D01*
X127066545Y-104821470D01*
X127079904Y-104855212D01*
X127083749Y-104866442D01*
X127093050Y-104898457D01*
X127096082Y-104908893D01*
X127100115Y-104915712D01*
X127100117Y-104915717D01*
X127106393Y-104926328D01*
X127115088Y-104944076D01*
X127122548Y-104962917D01*
X127127210Y-104969333D01*
X127127210Y-104969334D01*
X127148536Y-104998687D01*
X127155052Y-105008607D01*
X127177558Y-105046662D01*
X127191879Y-105060983D01*
X127204719Y-105076016D01*
X127216628Y-105092407D01*
X127222734Y-105097458D01*
X127250705Y-105120598D01*
X127259484Y-105128588D01*
X128568143Y-106437247D01*
X128575687Y-106445537D01*
X128579800Y-106452018D01*
X128585577Y-106457443D01*
X128629467Y-106498658D01*
X128632309Y-106501413D01*
X128652031Y-106521135D01*
X128655155Y-106523558D01*
X128655159Y-106523562D01*
X128655224Y-106523612D01*
X128664245Y-106531317D01*
X128696479Y-106561586D01*
X128703427Y-106565405D01*
X128703429Y-106565407D01*
X128714232Y-106571346D01*
X128730759Y-106582202D01*
X128740498Y-106589757D01*
X128740500Y-106589758D01*
X128746760Y-106594614D01*
X128787340Y-106612174D01*
X128797988Y-106617391D01*
X128826463Y-106633045D01*
X128836740Y-106638695D01*
X128844416Y-106640666D01*
X128844419Y-106640667D01*
X128856362Y-106643733D01*
X128875066Y-106650137D01*
X128893655Y-106658181D01*
X128892297Y-106661319D01*
X128939000Y-106691107D01*
X128968715Y-106755586D01*
X128958853Y-106825894D01*
X128912546Y-106879710D01*
X128848019Y-106899885D01*
X128802359Y-106901320D01*
X128795431Y-106901538D01*
X128791475Y-106901600D01*
X128763544Y-106901600D01*
X128759629Y-106902095D01*
X128759625Y-106902095D01*
X128759567Y-106902103D01*
X128759538Y-106902106D01*
X128747696Y-106903039D01*
X128703510Y-106904427D01*
X128686144Y-106909472D01*
X128684058Y-106910078D01*
X128664706Y-106914086D01*
X128652468Y-106915632D01*
X128652466Y-106915633D01*
X128644603Y-106916626D01*
X128603486Y-106932906D01*
X128592285Y-106936741D01*
X128549806Y-106949082D01*
X128542987Y-106953115D01*
X128542982Y-106953117D01*
X128532371Y-106959393D01*
X128514621Y-106968090D01*
X128495783Y-106975548D01*
X128489367Y-106980209D01*
X128489366Y-106980210D01*
X128460025Y-107001528D01*
X128450101Y-107008047D01*
X128418860Y-107026522D01*
X128418855Y-107026526D01*
X128412037Y-107030558D01*
X128397713Y-107044882D01*
X128382681Y-107057721D01*
X128366293Y-107069628D01*
X128338112Y-107103693D01*
X128330122Y-107112473D01*
X124555667Y-110886928D01*
X124493355Y-110920954D01*
X124422540Y-110915889D01*
X124365745Y-110873397D01*
X124363966Y-110871022D01*
X124353261Y-110856739D01*
X124236705Y-110769385D01*
X124100316Y-110718255D01*
X124038134Y-110711500D01*
X122341866Y-110711500D01*
X122279684Y-110718255D01*
X122143295Y-110769385D01*
X122026739Y-110856739D01*
X121939385Y-110973295D01*
X121888255Y-111109684D01*
X121881500Y-111171866D01*
X121881500Y-112868134D01*
X121888255Y-112930316D01*
X121939385Y-113066705D01*
X122026739Y-113183261D01*
X122143295Y-113270615D01*
X122279684Y-113321745D01*
X122341866Y-113328500D01*
X124038134Y-113328500D01*
X124100316Y-113321745D01*
X124236705Y-113270615D01*
X124353261Y-113183261D01*
X124440615Y-113066705D01*
X124491745Y-112930316D01*
X124498500Y-112868134D01*
X124498500Y-112719548D01*
X124518502Y-112651427D01*
X124571920Y-112606068D01*
X124572093Y-112606018D01*
X124589528Y-112595707D01*
X124607276Y-112587012D01*
X124626117Y-112579552D01*
X124661887Y-112553564D01*
X124671807Y-112547048D01*
X124703035Y-112528580D01*
X124703038Y-112528578D01*
X124709862Y-112524542D01*
X124724183Y-112510221D01*
X124739217Y-112497380D01*
X124749194Y-112490131D01*
X124755607Y-112485472D01*
X124783798Y-112451395D01*
X124791788Y-112442616D01*
X125214404Y-112020000D01*
X129496502Y-112020000D01*
X129516457Y-112248087D01*
X129517881Y-112253400D01*
X129517881Y-112253402D01*
X129570934Y-112451395D01*
X129575716Y-112469243D01*
X129578039Y-112474224D01*
X129578039Y-112474225D01*
X129670151Y-112671762D01*
X129670154Y-112671767D01*
X129672477Y-112676749D01*
X129803802Y-112864300D01*
X129965700Y-113026198D01*
X129970208Y-113029355D01*
X129970211Y-113029357D01*
X130011542Y-113058297D01*
X130153251Y-113157523D01*
X130158233Y-113159846D01*
X130158238Y-113159849D01*
X130355775Y-113251961D01*
X130360757Y-113254284D01*
X130366065Y-113255706D01*
X130366067Y-113255707D01*
X130576598Y-113312119D01*
X130576600Y-113312119D01*
X130581913Y-113313543D01*
X130810000Y-113333498D01*
X131038087Y-113313543D01*
X131043400Y-113312119D01*
X131043402Y-113312119D01*
X131253933Y-113255707D01*
X131253935Y-113255706D01*
X131259243Y-113254284D01*
X131264225Y-113251961D01*
X131461762Y-113159849D01*
X131461767Y-113159846D01*
X131466749Y-113157523D01*
X131608458Y-113058297D01*
X131649789Y-113029357D01*
X131649792Y-113029355D01*
X131654300Y-113026198D01*
X131816198Y-112864300D01*
X131947523Y-112676749D01*
X131949846Y-112671767D01*
X131949849Y-112671762D01*
X132041961Y-112474225D01*
X132041961Y-112474224D01*
X132044284Y-112469243D01*
X132049067Y-112451395D01*
X132102119Y-112253402D01*
X132102119Y-112253400D01*
X132103543Y-112248087D01*
X132123498Y-112020000D01*
X132103543Y-111791913D01*
X132085688Y-111725278D01*
X132045707Y-111576067D01*
X132045706Y-111576065D01*
X132044284Y-111570757D01*
X132035690Y-111552326D01*
X131949849Y-111368238D01*
X131949846Y-111368233D01*
X131947523Y-111363251D01*
X131858981Y-111236800D01*
X131819357Y-111180211D01*
X131819355Y-111180208D01*
X131816198Y-111175700D01*
X131654300Y-111013802D01*
X131649792Y-111010645D01*
X131649789Y-111010643D01*
X131536902Y-110931599D01*
X131466749Y-110882477D01*
X131461767Y-110880154D01*
X131461762Y-110880151D01*
X131264225Y-110788039D01*
X131264224Y-110788039D01*
X131259243Y-110785716D01*
X131253935Y-110784294D01*
X131253933Y-110784293D01*
X131043402Y-110727881D01*
X131043400Y-110727881D01*
X131038087Y-110726457D01*
X130810000Y-110706502D01*
X130581913Y-110726457D01*
X130576600Y-110727881D01*
X130576598Y-110727881D01*
X130366067Y-110784293D01*
X130366065Y-110784294D01*
X130360757Y-110785716D01*
X130355776Y-110788039D01*
X130355775Y-110788039D01*
X130158238Y-110880151D01*
X130158233Y-110880154D01*
X130153251Y-110882477D01*
X130083098Y-110931599D01*
X129970211Y-111010643D01*
X129970208Y-111010645D01*
X129965700Y-111013802D01*
X129803802Y-111175700D01*
X129800645Y-111180208D01*
X129800643Y-111180211D01*
X129761019Y-111236800D01*
X129672477Y-111363251D01*
X129670154Y-111368233D01*
X129670151Y-111368238D01*
X129584310Y-111552326D01*
X129575716Y-111570757D01*
X129574294Y-111576065D01*
X129574293Y-111576067D01*
X129534312Y-111725278D01*
X129516457Y-111791913D01*
X129496502Y-112020000D01*
X125214404Y-112020000D01*
X128675689Y-108558715D01*
X128738001Y-108524689D01*
X128808816Y-108529754D01*
X128865652Y-108572301D01*
X128890463Y-108638821D01*
X128890773Y-108649457D01*
X128890411Y-108677104D01*
X128891390Y-108682801D01*
X128891390Y-108682802D01*
X128896596Y-108713099D01*
X128926792Y-108888830D01*
X129001148Y-109090380D01*
X129110988Y-109275006D01*
X129114794Y-109279346D01*
X129114797Y-109279350D01*
X129136301Y-109303870D01*
X129252635Y-109436523D01*
X129421344Y-109569522D01*
X129426455Y-109572211D01*
X129426458Y-109572213D01*
X129523028Y-109623021D01*
X129611465Y-109669550D01*
X129816631Y-109733255D01*
X129822368Y-109733934D01*
X129987369Y-109753464D01*
X129987376Y-109753464D01*
X129991056Y-109753900D01*
X131436002Y-109753900D01*
X131595428Y-109739251D01*
X131600990Y-109737682D01*
X131600992Y-109737682D01*
X131658944Y-109721338D01*
X131802191Y-109680938D01*
X131807368Y-109678385D01*
X131807373Y-109678383D01*
X131989686Y-109588475D01*
X131994865Y-109585921D01*
X132166998Y-109457384D01*
X132186282Y-109436523D01*
X132308905Y-109303870D01*
X132308907Y-109303867D01*
X132312824Y-109299630D01*
X132427460Y-109117943D01*
X132507066Y-108918408D01*
X132512950Y-108888830D01*
X132547850Y-108713374D01*
X132547850Y-108713371D01*
X132548977Y-108707707D01*
X132549454Y-108671323D01*
X132550462Y-108594255D01*
X132551789Y-108492896D01*
X132546531Y-108462293D01*
X132516387Y-108286867D01*
X132516387Y-108286866D01*
X132515408Y-108281170D01*
X132441052Y-108079620D01*
X132331212Y-107894994D01*
X132327406Y-107890654D01*
X132327403Y-107890650D01*
X132193367Y-107737812D01*
X132193365Y-107737810D01*
X132189565Y-107733477D01*
X132190366Y-107732774D01*
X132157556Y-107676247D01*
X132160770Y-107605323D01*
X132190840Y-107557164D01*
X132789447Y-106958557D01*
X132797737Y-106951013D01*
X132804218Y-106946900D01*
X132850859Y-106897232D01*
X132853613Y-106894391D01*
X132873334Y-106874670D01*
X132875812Y-106871475D01*
X132883518Y-106862453D01*
X132908358Y-106836001D01*
X132913786Y-106830221D01*
X132923546Y-106812468D01*
X132934399Y-106795945D01*
X132941953Y-106786206D01*
X132946813Y-106779941D01*
X132964379Y-106739350D01*
X132969583Y-106728727D01*
X132990895Y-106689960D01*
X132992866Y-106682283D01*
X132992868Y-106682278D01*
X132995932Y-106670342D01*
X133002338Y-106651630D01*
X133004689Y-106646199D01*
X133010381Y-106633045D01*
X133012861Y-106617391D01*
X133017297Y-106589381D01*
X133019704Y-106577760D01*
X133028728Y-106542611D01*
X133028728Y-106542610D01*
X133030700Y-106534930D01*
X133030700Y-106514669D01*
X133032251Y-106494958D01*
X133034179Y-106482785D01*
X133035419Y-106474957D01*
X133031259Y-106430946D01*
X133030700Y-106419089D01*
X133030700Y-103151267D01*
X133031227Y-103140084D01*
X133032902Y-103132591D01*
X133030762Y-103064500D01*
X133030700Y-103060543D01*
X133030700Y-103032644D01*
X133030196Y-103028653D01*
X133029263Y-103016811D01*
X133028123Y-102980536D01*
X133027874Y-102972611D01*
X133025662Y-102964997D01*
X133025661Y-102964992D01*
X133022223Y-102953159D01*
X133018212Y-102933795D01*
X133016667Y-102921564D01*
X133015674Y-102913703D01*
X133012757Y-102906336D01*
X133012756Y-102906331D01*
X132999398Y-102872592D01*
X132995554Y-102861365D01*
X132985430Y-102826522D01*
X132983218Y-102818907D01*
X132972907Y-102801472D01*
X132964212Y-102783724D01*
X132956752Y-102764883D01*
X132930764Y-102729113D01*
X132924248Y-102719193D01*
X132905780Y-102687965D01*
X132905778Y-102687962D01*
X132901742Y-102681138D01*
X132887421Y-102666817D01*
X132874580Y-102651783D01*
X132867331Y-102641806D01*
X132862672Y-102635393D01*
X132856567Y-102630342D01*
X132856562Y-102630337D01*
X132828602Y-102607206D01*
X132819824Y-102599219D01*
X132527100Y-102306495D01*
X132200299Y-101979695D01*
X132166274Y-101917382D01*
X132171338Y-101846567D01*
X132196869Y-101805070D01*
X132308905Y-101683870D01*
X132308907Y-101683867D01*
X132312824Y-101679630D01*
X132427460Y-101497943D01*
X132507066Y-101298408D01*
X132512810Y-101269534D01*
X132547850Y-101093374D01*
X132547850Y-101093371D01*
X132548977Y-101087707D01*
X132549064Y-101081104D01*
X132551107Y-100924991D01*
X132551789Y-100872896D01*
X132547524Y-100848072D01*
X132516387Y-100666867D01*
X132516387Y-100666866D01*
X132515408Y-100661170D01*
X132441052Y-100459620D01*
X132441911Y-100459303D01*
X132431445Y-100394258D01*
X132459853Y-100329193D01*
X132518928Y-100289815D01*
X132556445Y-100284100D01*
X133756405Y-100284100D01*
X133824526Y-100304102D01*
X133845501Y-100321005D01*
X134141796Y-100617301D01*
X134175821Y-100679613D01*
X134178700Y-100706396D01*
X134178700Y-112255605D01*
X134158698Y-112323726D01*
X134141795Y-112344700D01*
X132157678Y-114328817D01*
X132095366Y-114362843D01*
X132024551Y-114357778D01*
X131967715Y-114315231D01*
X131954390Y-114292975D01*
X131949853Y-114283245D01*
X131949846Y-114283234D01*
X131947523Y-114278251D01*
X131874098Y-114173389D01*
X131819357Y-114095211D01*
X131819355Y-114095208D01*
X131816198Y-114090700D01*
X131654300Y-113928802D01*
X131649792Y-113925645D01*
X131649789Y-113925643D01*
X131567363Y-113867928D01*
X131466749Y-113797477D01*
X131461767Y-113795154D01*
X131461762Y-113795151D01*
X131264225Y-113703039D01*
X131264224Y-113703039D01*
X131259243Y-113700716D01*
X131253935Y-113699294D01*
X131253933Y-113699293D01*
X131043402Y-113642881D01*
X131043400Y-113642881D01*
X131038087Y-113641457D01*
X130810000Y-113621502D01*
X130581913Y-113641457D01*
X130576600Y-113642881D01*
X130576598Y-113642881D01*
X130366067Y-113699293D01*
X130366065Y-113699294D01*
X130360757Y-113700716D01*
X130355776Y-113703039D01*
X130355775Y-113703039D01*
X130158238Y-113795151D01*
X130158233Y-113795154D01*
X130153251Y-113797477D01*
X130052637Y-113867928D01*
X129970211Y-113925643D01*
X129970208Y-113925645D01*
X129965700Y-113928802D01*
X129803802Y-114090700D01*
X129800645Y-114095208D01*
X129800643Y-114095211D01*
X129745902Y-114173389D01*
X129672477Y-114278251D01*
X129670154Y-114283233D01*
X129670151Y-114283238D01*
X129599443Y-114434874D01*
X129575716Y-114485757D01*
X129574294Y-114491065D01*
X129574293Y-114491067D01*
X129518320Y-114699960D01*
X129516457Y-114706913D01*
X129496502Y-114935000D01*
X129516457Y-115163087D01*
X129517881Y-115168400D01*
X129517881Y-115168402D01*
X129560094Y-115325940D01*
X129575716Y-115384243D01*
X129578039Y-115389224D01*
X129578039Y-115389225D01*
X129670151Y-115586762D01*
X129670154Y-115586767D01*
X129672477Y-115591749D01*
X129803802Y-115779300D01*
X129965700Y-115941198D01*
X129970208Y-115944355D01*
X129970211Y-115944357D01*
X130011542Y-115973297D01*
X130153251Y-116072523D01*
X130158234Y-116074846D01*
X130158245Y-116074853D01*
X130167975Y-116079390D01*
X130221259Y-116126308D01*
X130240718Y-116194586D01*
X130220174Y-116262545D01*
X130203817Y-116282678D01*
X127275700Y-119210795D01*
X127213388Y-119244821D01*
X127186605Y-119247700D01*
X127078763Y-119247700D01*
X127067579Y-119247173D01*
X127060091Y-119245499D01*
X127052168Y-119245748D01*
X126992033Y-119247638D01*
X126988075Y-119247700D01*
X125307567Y-119247700D01*
X125296384Y-119247173D01*
X125288891Y-119245498D01*
X125280965Y-119245747D01*
X125280964Y-119245747D01*
X125220801Y-119247638D01*
X125216843Y-119247700D01*
X125188944Y-119247700D01*
X125184954Y-119248204D01*
X125173120Y-119249136D01*
X125128911Y-119250526D01*
X125121297Y-119252738D01*
X125121292Y-119252739D01*
X125109459Y-119256177D01*
X125090096Y-119260188D01*
X125070003Y-119262726D01*
X125062636Y-119265643D01*
X125062631Y-119265644D01*
X125028892Y-119279002D01*
X125017665Y-119282846D01*
X124975207Y-119295182D01*
X124968381Y-119299219D01*
X124957772Y-119305493D01*
X124940024Y-119314188D01*
X124921183Y-119321648D01*
X124914767Y-119326310D01*
X124914766Y-119326310D01*
X124885413Y-119347636D01*
X124875493Y-119354152D01*
X124844265Y-119372620D01*
X124844262Y-119372622D01*
X124837438Y-119376658D01*
X124823117Y-119390979D01*
X124808084Y-119403819D01*
X124791693Y-119415728D01*
X124786642Y-119421833D01*
X124786637Y-119421838D01*
X124763501Y-119449804D01*
X124755513Y-119458582D01*
X124236000Y-119978095D01*
X124173688Y-120012121D01*
X124146905Y-120015000D01*
X120135600Y-120015000D01*
X120067479Y-119994998D01*
X120020986Y-119941342D01*
X120009600Y-119889000D01*
X120009600Y-115783134D01*
X121881500Y-115783134D01*
X121888255Y-115845316D01*
X121939385Y-115981705D01*
X122026739Y-116098261D01*
X122143295Y-116185615D01*
X122279684Y-116236745D01*
X122341866Y-116243500D01*
X124038134Y-116243500D01*
X124100316Y-116236745D01*
X124236705Y-116185615D01*
X124353261Y-116098261D01*
X124440615Y-115981705D01*
X124491745Y-115845316D01*
X124498500Y-115783134D01*
X124498500Y-114086866D01*
X124491745Y-114024684D01*
X124440615Y-113888295D01*
X124353261Y-113771739D01*
X124236705Y-113684385D01*
X124100316Y-113633255D01*
X124038134Y-113626500D01*
X122341866Y-113626500D01*
X122279684Y-113633255D01*
X122143295Y-113684385D01*
X122026739Y-113771739D01*
X121939385Y-113888295D01*
X121888255Y-114024684D01*
X121881500Y-114086866D01*
X121881500Y-115783134D01*
X120009600Y-115783134D01*
X120009600Y-108857722D01*
X121301954Y-108857722D01*
X121306298Y-108883003D01*
X121309278Y-108894123D01*
X121379603Y-109084748D01*
X121384553Y-109095126D01*
X121488439Y-109269743D01*
X121495205Y-109279055D01*
X121629174Y-109431818D01*
X121637517Y-109439735D01*
X121797078Y-109565523D01*
X121806735Y-109571794D01*
X121986540Y-109666394D01*
X121997174Y-109670799D01*
X122191218Y-109731051D01*
X122202472Y-109733443D01*
X122367398Y-109752964D01*
X122374801Y-109753400D01*
X122828985Y-109753400D01*
X122844224Y-109748925D01*
X122845429Y-109747535D01*
X122847100Y-109739852D01*
X122847100Y-109735285D01*
X123355100Y-109735285D01*
X123359575Y-109750524D01*
X123360965Y-109751729D01*
X123368648Y-109753400D01*
X123813081Y-109753400D01*
X123818870Y-109753134D01*
X123969579Y-109739286D01*
X123980900Y-109737188D01*
X124176447Y-109682038D01*
X124187194Y-109677913D01*
X124369422Y-109588048D01*
X124379230Y-109582038D01*
X124542038Y-109460464D01*
X124550578Y-109452775D01*
X124688507Y-109303564D01*
X124695508Y-109294439D01*
X124803931Y-109122599D01*
X124809152Y-109112351D01*
X124884443Y-108923633D01*
X124887712Y-108912597D01*
X124898817Y-108856770D01*
X124897665Y-108843894D01*
X124882509Y-108839000D01*
X123373215Y-108839000D01*
X123357976Y-108843475D01*
X123356771Y-108844865D01*
X123355100Y-108852548D01*
X123355100Y-109735285D01*
X122847100Y-109735285D01*
X122847100Y-108857115D01*
X122842625Y-108841876D01*
X122841235Y-108840671D01*
X122833552Y-108839000D01*
X121316852Y-108839000D01*
X121303890Y-108842806D01*
X121301954Y-108857722D01*
X120009600Y-108857722D01*
X120009600Y-106137104D01*
X121270411Y-106137104D01*
X121271390Y-106142801D01*
X121271390Y-106142802D01*
X121276643Y-106173374D01*
X121306792Y-106348830D01*
X121381148Y-106550380D01*
X121490988Y-106735006D01*
X121494794Y-106739346D01*
X121494797Y-106739350D01*
X121613470Y-106874670D01*
X121632635Y-106896523D01*
X121637170Y-106900098D01*
X121637171Y-106900099D01*
X121642345Y-106904178D01*
X121801344Y-107029522D01*
X121806455Y-107032211D01*
X121806458Y-107032213D01*
X121889184Y-107075737D01*
X121991465Y-107129550D01*
X122196631Y-107193255D01*
X122198356Y-107193459D01*
X122259677Y-107226568D01*
X122293996Y-107288718D01*
X122289265Y-107359557D01*
X122246988Y-107416593D01*
X122205204Y-107437352D01*
X122025753Y-107487962D01*
X122015006Y-107492087D01*
X121832778Y-107581952D01*
X121822970Y-107587962D01*
X121660162Y-107709536D01*
X121651622Y-107717225D01*
X121513693Y-107866436D01*
X121506692Y-107875561D01*
X121398269Y-108047401D01*
X121393048Y-108057649D01*
X121317757Y-108246367D01*
X121314488Y-108257403D01*
X121303383Y-108313230D01*
X121304535Y-108326106D01*
X121319691Y-108331000D01*
X124885348Y-108331000D01*
X124898310Y-108327194D01*
X124900246Y-108312278D01*
X124895902Y-108286997D01*
X124892922Y-108275877D01*
X124822597Y-108085252D01*
X124817647Y-108074874D01*
X124713761Y-107900257D01*
X124706995Y-107890945D01*
X124573026Y-107738182D01*
X124564683Y-107730265D01*
X124405122Y-107604477D01*
X124395465Y-107598206D01*
X124215660Y-107503606D01*
X124205026Y-107499201D01*
X124010977Y-107438947D01*
X124005010Y-107437679D01*
X123942537Y-107403949D01*
X123908218Y-107341799D01*
X123912947Y-107270960D01*
X123955224Y-107213923D01*
X123997006Y-107193165D01*
X124182191Y-107140938D01*
X124187368Y-107138385D01*
X124187373Y-107138383D01*
X124369686Y-107048475D01*
X124374865Y-107045921D01*
X124499145Y-106953117D01*
X124542374Y-106920837D01*
X124542375Y-106920836D01*
X124546998Y-106917384D01*
X124556930Y-106906640D01*
X124688905Y-106763870D01*
X124688907Y-106763867D01*
X124692824Y-106759630D01*
X124807460Y-106577943D01*
X124887066Y-106378408D01*
X124892950Y-106348830D01*
X124927850Y-106173374D01*
X124927850Y-106173371D01*
X124928977Y-106167707D01*
X124929454Y-106131322D01*
X124931713Y-105958678D01*
X124931789Y-105952896D01*
X124927524Y-105928072D01*
X124896387Y-105746867D01*
X124896387Y-105746866D01*
X124895408Y-105741170D01*
X124821052Y-105539620D01*
X124711212Y-105354994D01*
X124707406Y-105350654D01*
X124707403Y-105350650D01*
X124573372Y-105197818D01*
X124569565Y-105193477D01*
X124400856Y-105060478D01*
X124395745Y-105057789D01*
X124395742Y-105057787D01*
X124283411Y-104998687D01*
X124210735Y-104960450D01*
X124059957Y-104913633D01*
X124011083Y-104898457D01*
X124011082Y-104898457D01*
X124005569Y-104896745D01*
X124004663Y-104896638D01*
X123943579Y-104863661D01*
X123909257Y-104801512D01*
X123913983Y-104730673D01*
X123956258Y-104673635D01*
X123998046Y-104652872D01*
X123998968Y-104652612D01*
X124182191Y-104600938D01*
X124187368Y-104598385D01*
X124187373Y-104598383D01*
X124369686Y-104508475D01*
X124374865Y-104505921D01*
X124546998Y-104377384D01*
X124566282Y-104356523D01*
X124688905Y-104223870D01*
X124688907Y-104223867D01*
X124692824Y-104219630D01*
X124807460Y-104037943D01*
X124887066Y-103838408D01*
X124892950Y-103808830D01*
X124927850Y-103633374D01*
X124927850Y-103633371D01*
X124928977Y-103627707D01*
X124929454Y-103591322D01*
X124931713Y-103418678D01*
X124931789Y-103412896D01*
X124927524Y-103388072D01*
X124896387Y-103206867D01*
X124896387Y-103206866D01*
X124895408Y-103201170D01*
X124821052Y-102999620D01*
X124711212Y-102814994D01*
X124707406Y-102810654D01*
X124707403Y-102810650D01*
X124573372Y-102657818D01*
X124569565Y-102653477D01*
X124546626Y-102635393D01*
X124405393Y-102524055D01*
X124400856Y-102520478D01*
X124395745Y-102517789D01*
X124395742Y-102517787D01*
X124299172Y-102466979D01*
X124210735Y-102420450D01*
X124005569Y-102356745D01*
X124004663Y-102356638D01*
X123943579Y-102323661D01*
X123909257Y-102261512D01*
X123913983Y-102190673D01*
X123956258Y-102133635D01*
X123998046Y-102112872D01*
X123998968Y-102112612D01*
X124182191Y-102060938D01*
X124187368Y-102058385D01*
X124187373Y-102058383D01*
X124369686Y-101968475D01*
X124374865Y-101965921D01*
X124484590Y-101883986D01*
X124542374Y-101840837D01*
X124542375Y-101840836D01*
X124546998Y-101837384D01*
X124566282Y-101816523D01*
X124688905Y-101683870D01*
X124688907Y-101683867D01*
X124692824Y-101679630D01*
X124807460Y-101497943D01*
X124887066Y-101298408D01*
X124892810Y-101269534D01*
X124927850Y-101093374D01*
X124927850Y-101093371D01*
X124928977Y-101087707D01*
X124929064Y-101081104D01*
X124931107Y-100924991D01*
X124931789Y-100872896D01*
X124927524Y-100848072D01*
X124896387Y-100666867D01*
X124896387Y-100666866D01*
X124895408Y-100661170D01*
X124821052Y-100459620D01*
X124711212Y-100274994D01*
X124707406Y-100270654D01*
X124707403Y-100270650D01*
X124573372Y-100117818D01*
X124569565Y-100113477D01*
X124556292Y-100103013D01*
X124474448Y-100038493D01*
X124400856Y-99980478D01*
X124395745Y-99977789D01*
X124395742Y-99977787D01*
X124260337Y-99906547D01*
X124210735Y-99880450D01*
X124005569Y-99816745D01*
X124003844Y-99816541D01*
X123942523Y-99783432D01*
X123908204Y-99721282D01*
X123912935Y-99650443D01*
X123955212Y-99593407D01*
X123996996Y-99572648D01*
X124176447Y-99522038D01*
X124187194Y-99517913D01*
X124369422Y-99428048D01*
X124379230Y-99422038D01*
X124542038Y-99300464D01*
X124550578Y-99292775D01*
X124688507Y-99143564D01*
X124695508Y-99134439D01*
X124803931Y-98962599D01*
X124809152Y-98952351D01*
X124884443Y-98763633D01*
X124887712Y-98752597D01*
X124898817Y-98696770D01*
X124897665Y-98683894D01*
X124882509Y-98679000D01*
X121316852Y-98679000D01*
X121303890Y-98682806D01*
X121301954Y-98697722D01*
X121306298Y-98723003D01*
X121309278Y-98734123D01*
X121379603Y-98924748D01*
X121384553Y-98935126D01*
X121488439Y-99109743D01*
X121495205Y-99119055D01*
X121629174Y-99271818D01*
X121637517Y-99279735D01*
X121797078Y-99405523D01*
X121806735Y-99411794D01*
X121986540Y-99506394D01*
X121997174Y-99510799D01*
X122191223Y-99571053D01*
X122197190Y-99572321D01*
X122259663Y-99606051D01*
X122293982Y-99668201D01*
X122289253Y-99739040D01*
X122246976Y-99796077D01*
X122205194Y-99816835D01*
X122020009Y-99869062D01*
X122014832Y-99871615D01*
X122014827Y-99871617D01*
X121903523Y-99926507D01*
X121827335Y-99964079D01*
X121655202Y-100092616D01*
X121651288Y-100096850D01*
X121651286Y-100096852D01*
X121525430Y-100233003D01*
X121509376Y-100250370D01*
X121394740Y-100432057D01*
X121392600Y-100437421D01*
X121320836Y-100617301D01*
X121315134Y-100631592D01*
X121314008Y-100637252D01*
X121314007Y-100637256D01*
X121274359Y-100836582D01*
X121273223Y-100842293D01*
X121273147Y-100848068D01*
X121273147Y-100848072D01*
X121272336Y-100910016D01*
X121270411Y-101057104D01*
X121271390Y-101062801D01*
X121271390Y-101062802D01*
X121295271Y-101201780D01*
X121306792Y-101268830D01*
X121381148Y-101470380D01*
X121490988Y-101655006D01*
X121494794Y-101659346D01*
X121494797Y-101659350D01*
X121622591Y-101805070D01*
X121632635Y-101816523D01*
X121801344Y-101949522D01*
X121806455Y-101952211D01*
X121806458Y-101952213D01*
X121858693Y-101979695D01*
X121991465Y-102049550D01*
X122196631Y-102113255D01*
X122197537Y-102113362D01*
X122258621Y-102146339D01*
X122292943Y-102208488D01*
X122288217Y-102279327D01*
X122245942Y-102336365D01*
X122204154Y-102357128D01*
X122020009Y-102409062D01*
X122014832Y-102411615D01*
X122014827Y-102411617D01*
X121839185Y-102498235D01*
X121827335Y-102504079D01*
X121655202Y-102632616D01*
X121651288Y-102636850D01*
X121651286Y-102636852D01*
X121515530Y-102783713D01*
X121509376Y-102790370D01*
X121394740Y-102972057D01*
X121315134Y-103171592D01*
X121314008Y-103177252D01*
X121314007Y-103177256D01*
X121308117Y-103206867D01*
X121273223Y-103382293D01*
X121273147Y-103388068D01*
X121273147Y-103388072D01*
X121271738Y-103495745D01*
X121270411Y-103597104D01*
X121271390Y-103602801D01*
X121271390Y-103602802D01*
X121276643Y-103633374D01*
X121306792Y-103808830D01*
X121381148Y-104010380D01*
X121384100Y-104015342D01*
X121387815Y-104021586D01*
X121490988Y-104195006D01*
X121494794Y-104199346D01*
X121494797Y-104199350D01*
X121516301Y-104223870D01*
X121632635Y-104356523D01*
X121801344Y-104489522D01*
X121806455Y-104492211D01*
X121806458Y-104492213D01*
X121903028Y-104543021D01*
X121991465Y-104589550D01*
X122196631Y-104653255D01*
X122197537Y-104653362D01*
X122258621Y-104686339D01*
X122292943Y-104748488D01*
X122288217Y-104819327D01*
X122245942Y-104876365D01*
X122204154Y-104897128D01*
X122020009Y-104949062D01*
X122014832Y-104951615D01*
X122014827Y-104951617D01*
X121839185Y-105038235D01*
X121827335Y-105044079D01*
X121822707Y-105047535D01*
X121659832Y-105169159D01*
X121655202Y-105172616D01*
X121651288Y-105176850D01*
X121651286Y-105176852D01*
X121568795Y-105266091D01*
X121509376Y-105330370D01*
X121394740Y-105512057D01*
X121315134Y-105711592D01*
X121314008Y-105717252D01*
X121314007Y-105717256D01*
X121308117Y-105746867D01*
X121273223Y-105922293D01*
X121273147Y-105928068D01*
X121273147Y-105928072D01*
X121271738Y-106035745D01*
X121270411Y-106137104D01*
X120009600Y-106137104D01*
X120009600Y-101202223D01*
X120009602Y-101201453D01*
X120009900Y-101152702D01*
X120010076Y-101123879D01*
X120001950Y-101095447D01*
X119998372Y-101078685D01*
X119995452Y-101058298D01*
X119994180Y-101049413D01*
X119983551Y-101026036D01*
X119977104Y-101008513D01*
X119972516Y-100992462D01*
X119970049Y-100983829D01*
X119965256Y-100976232D01*
X119954270Y-100958820D01*
X119946130Y-100943735D01*
X119943664Y-100938311D01*
X119933892Y-100916818D01*
X119917130Y-100897365D01*
X119906027Y-100882361D01*
X119892324Y-100860642D01*
X119885599Y-100854703D01*
X119885596Y-100854699D01*
X119870162Y-100841068D01*
X119858118Y-100828876D01*
X119844673Y-100813273D01*
X119844670Y-100813271D01*
X119838813Y-100806473D01*
X119825109Y-100797590D01*
X119817265Y-100792506D01*
X119802391Y-100781215D01*
X119789883Y-100770169D01*
X119789882Y-100770168D01*
X119783149Y-100764222D01*
X119756387Y-100751657D01*
X119741409Y-100743337D01*
X119724117Y-100732129D01*
X119724112Y-100732127D01*
X119716585Y-100727248D01*
X119707992Y-100724678D01*
X119707987Y-100724676D01*
X119691980Y-100719889D01*
X119674536Y-100713228D01*
X119659424Y-100706133D01*
X119659422Y-100706132D01*
X119651300Y-100702319D01*
X119642433Y-100700938D01*
X119642432Y-100700938D01*
X119631578Y-100699248D01*
X119622083Y-100697770D01*
X119605368Y-100693987D01*
X119585634Y-100688085D01*
X119585628Y-100688084D01*
X119577034Y-100685514D01*
X119568063Y-100685459D01*
X119568062Y-100685459D01*
X119558003Y-100685398D01*
X119542594Y-100685304D01*
X119541811Y-100685271D01*
X119540714Y-100685100D01*
X119509723Y-100685100D01*
X119508953Y-100685098D01*
X119435315Y-100684648D01*
X119435314Y-100684648D01*
X119431379Y-100684624D01*
X119430035Y-100685008D01*
X119428690Y-100685100D01*
X117385600Y-100685100D01*
X117317479Y-100665098D01*
X117270986Y-100611442D01*
X117259600Y-100559100D01*
X117259600Y-88722273D01*
X123391101Y-88722273D01*
X123391601Y-88730192D01*
X123400939Y-88803864D01*
X123405235Y-88820025D01*
X123454573Y-88938843D01*
X123462973Y-88953276D01*
X123508029Y-89011257D01*
X123513224Y-89017144D01*
X123947516Y-89451436D01*
X123953490Y-89456701D01*
X124012176Y-89502182D01*
X124026648Y-89510576D01*
X124145550Y-89559706D01*
X124161693Y-89563971D01*
X124234548Y-89573110D01*
X124242393Y-89573600D01*
X124388985Y-89573600D01*
X124404224Y-89569125D01*
X124405429Y-89567735D01*
X124407100Y-89560052D01*
X124407100Y-89555484D01*
X124915100Y-89555484D01*
X124919575Y-89570723D01*
X124920965Y-89571928D01*
X124928648Y-89573599D01*
X125079773Y-89573599D01*
X125087692Y-89573099D01*
X125161364Y-89563761D01*
X125177525Y-89559465D01*
X125296343Y-89510127D01*
X125310776Y-89501727D01*
X125368757Y-89456671D01*
X125374644Y-89451476D01*
X125808936Y-89017184D01*
X125814201Y-89011210D01*
X125859682Y-88952524D01*
X125868076Y-88938052D01*
X125917206Y-88819150D01*
X125921471Y-88803007D01*
X125930610Y-88730152D01*
X125931100Y-88722307D01*
X125931100Y-88575715D01*
X125926625Y-88560476D01*
X125925235Y-88559271D01*
X125917552Y-88557600D01*
X124933215Y-88557600D01*
X124917976Y-88562075D01*
X124916771Y-88563465D01*
X124915100Y-88571148D01*
X124915100Y-89555484D01*
X124407100Y-89555484D01*
X124407100Y-88575715D01*
X124402625Y-88560476D01*
X124401235Y-88559271D01*
X124393552Y-88557600D01*
X123409216Y-88557600D01*
X123393977Y-88562075D01*
X123392772Y-88563465D01*
X123391101Y-88571148D01*
X123391101Y-88722273D01*
X117259600Y-88722273D01*
X117259600Y-88031485D01*
X123391100Y-88031485D01*
X123395575Y-88046724D01*
X123396965Y-88047929D01*
X123404648Y-88049600D01*
X124388985Y-88049600D01*
X124404224Y-88045125D01*
X124405429Y-88043735D01*
X124407100Y-88036052D01*
X124407100Y-87051716D01*
X124402625Y-87036477D01*
X124401235Y-87035272D01*
X124393552Y-87033601D01*
X124242427Y-87033601D01*
X124234508Y-87034101D01*
X124160836Y-87043439D01*
X124144675Y-87047735D01*
X124025857Y-87097073D01*
X124011424Y-87105473D01*
X123953443Y-87150529D01*
X123947556Y-87155724D01*
X123513264Y-87590016D01*
X123507999Y-87595990D01*
X123462518Y-87654676D01*
X123454124Y-87669148D01*
X123404994Y-87788050D01*
X123400729Y-87804193D01*
X123391590Y-87877048D01*
X123391100Y-87884893D01*
X123391100Y-88031485D01*
X117259600Y-88031485D01*
X117259600Y-82222273D01*
X123391101Y-82222273D01*
X123391601Y-82230192D01*
X123400939Y-82303864D01*
X123405235Y-82320025D01*
X123454573Y-82438843D01*
X123462973Y-82453276D01*
X123508029Y-82511257D01*
X123513224Y-82517144D01*
X123947516Y-82951436D01*
X123953490Y-82956701D01*
X124012176Y-83002182D01*
X124026648Y-83010576D01*
X124145550Y-83059706D01*
X124161693Y-83063971D01*
X124234548Y-83073110D01*
X124242393Y-83073600D01*
X124388985Y-83073600D01*
X124404224Y-83069125D01*
X124405429Y-83067735D01*
X124407100Y-83060052D01*
X124407100Y-82075715D01*
X124402625Y-82060476D01*
X124401235Y-82059271D01*
X124393552Y-82057600D01*
X123409216Y-82057600D01*
X123393977Y-82062075D01*
X123392772Y-82063465D01*
X123391101Y-82071148D01*
X123391101Y-82222273D01*
X117259600Y-82222273D01*
X117259600Y-81138100D01*
X117279602Y-81069979D01*
X117333258Y-81023486D01*
X117385600Y-81012100D01*
X123330620Y-81012100D01*
X123398741Y-81032102D01*
G37*
G04 #@! TD.AperFunction*
G04 #@! TA.AperFunction,Conductor*
G36*
X179684721Y-81032102D02*
G01*
X179731214Y-81085758D01*
X179742600Y-81138100D01*
X179742600Y-100559100D01*
X179722598Y-100627221D01*
X179668942Y-100673714D01*
X179616600Y-100685100D01*
X177509723Y-100685100D01*
X177508953Y-100685098D01*
X177508137Y-100685093D01*
X177431379Y-100684624D01*
X177409018Y-100691015D01*
X177402947Y-100692750D01*
X177386185Y-100696328D01*
X177356913Y-100700520D01*
X177348745Y-100704234D01*
X177348744Y-100704234D01*
X177333538Y-100711148D01*
X177316014Y-100717596D01*
X177291329Y-100724651D01*
X177283735Y-100729443D01*
X177283732Y-100729444D01*
X177266320Y-100740430D01*
X177251237Y-100748569D01*
X177224318Y-100760808D01*
X177217516Y-100766669D01*
X177204865Y-100777570D01*
X177189861Y-100788673D01*
X177168142Y-100802376D01*
X177162203Y-100809101D01*
X177162199Y-100809104D01*
X177148568Y-100824538D01*
X177136376Y-100836582D01*
X177120773Y-100850027D01*
X177120771Y-100850030D01*
X177113973Y-100855887D01*
X177109093Y-100863416D01*
X177109092Y-100863417D01*
X177100006Y-100877435D01*
X177088715Y-100892309D01*
X177077669Y-100904817D01*
X177071722Y-100911551D01*
X177065412Y-100924991D01*
X177059158Y-100938311D01*
X177050837Y-100953291D01*
X177039629Y-100970583D01*
X177039627Y-100970588D01*
X177034748Y-100978115D01*
X177032178Y-100986708D01*
X177032176Y-100986713D01*
X177027389Y-101002720D01*
X177020728Y-101020164D01*
X177013633Y-101035276D01*
X177009819Y-101043400D01*
X177008438Y-101052267D01*
X177008438Y-101052268D01*
X177005270Y-101072615D01*
X177001487Y-101089332D01*
X176995585Y-101109066D01*
X176995584Y-101109072D01*
X176993014Y-101117666D01*
X176992959Y-101126637D01*
X176992959Y-101126638D01*
X176992804Y-101152097D01*
X176992771Y-101152889D01*
X176992600Y-101153986D01*
X176992600Y-101184977D01*
X176992598Y-101185747D01*
X176992124Y-101263321D01*
X176992508Y-101264665D01*
X176992600Y-101266010D01*
X176992600Y-119889000D01*
X176972598Y-119957121D01*
X176918942Y-120003614D01*
X176866600Y-120015000D01*
X173383782Y-120015000D01*
X173315661Y-119994998D01*
X173269168Y-119941342D01*
X173261741Y-119920338D01*
X173260568Y-119915770D01*
X173259574Y-119907903D01*
X173243294Y-119866786D01*
X173239459Y-119855585D01*
X173227118Y-119813106D01*
X173223085Y-119806287D01*
X173223083Y-119806282D01*
X173216807Y-119795671D01*
X173208110Y-119777921D01*
X173200652Y-119759083D01*
X173174671Y-119723323D01*
X173168153Y-119713401D01*
X173149678Y-119682160D01*
X173149674Y-119682155D01*
X173145642Y-119675337D01*
X173131318Y-119661013D01*
X173118476Y-119645978D01*
X173112477Y-119637721D01*
X173106572Y-119629593D01*
X173072506Y-119601411D01*
X173063727Y-119593422D01*
X170601105Y-117130800D01*
X170567079Y-117068488D01*
X170564200Y-117041705D01*
X170564200Y-114761900D01*
X170584202Y-114693779D01*
X170637858Y-114647286D01*
X170708132Y-114637182D01*
X170757435Y-114655338D01*
X170823273Y-114696879D01*
X170823278Y-114696881D01*
X170828157Y-114699960D01*
X171027692Y-114779566D01*
X171033352Y-114780692D01*
X171033356Y-114780693D01*
X171232726Y-114820350D01*
X171232729Y-114820350D01*
X171238393Y-114821477D01*
X171244168Y-114821553D01*
X171244172Y-114821553D01*
X171351845Y-114822962D01*
X171453204Y-114824289D01*
X171458901Y-114823310D01*
X171458902Y-114823310D01*
X171659233Y-114788887D01*
X171659234Y-114788887D01*
X171664930Y-114787908D01*
X171866480Y-114713552D01*
X172051106Y-114603712D01*
X172055446Y-114599906D01*
X172055450Y-114599903D01*
X172208282Y-114465872D01*
X172212623Y-114462065D01*
X172234324Y-114434538D01*
X172249380Y-114415438D01*
X172345622Y-114293356D01*
X172348459Y-114287965D01*
X172442958Y-114108351D01*
X172445650Y-114103235D01*
X172509355Y-113898069D01*
X172509559Y-113896344D01*
X172542668Y-113835023D01*
X172604818Y-113800704D01*
X172675657Y-113805435D01*
X172732693Y-113847712D01*
X172753452Y-113889496D01*
X172804062Y-114068947D01*
X172808187Y-114079694D01*
X172898052Y-114261922D01*
X172904062Y-114271730D01*
X173025636Y-114434538D01*
X173033325Y-114443078D01*
X173182536Y-114581007D01*
X173191661Y-114588008D01*
X173363501Y-114696431D01*
X173373749Y-114701652D01*
X173562467Y-114776943D01*
X173573503Y-114780212D01*
X173629330Y-114791317D01*
X173642206Y-114790165D01*
X173646183Y-114777848D01*
X174155100Y-114777848D01*
X174158906Y-114790810D01*
X174173822Y-114792746D01*
X174199103Y-114788402D01*
X174210223Y-114785422D01*
X174400848Y-114715097D01*
X174411226Y-114710147D01*
X174585843Y-114606261D01*
X174595155Y-114599495D01*
X174747918Y-114465526D01*
X174755835Y-114457183D01*
X174881623Y-114297622D01*
X174887894Y-114287965D01*
X174982494Y-114108160D01*
X174986899Y-114097526D01*
X175047151Y-113903482D01*
X175049543Y-113892228D01*
X175069064Y-113727302D01*
X175069500Y-113719899D01*
X175069500Y-113265715D01*
X175065025Y-113250476D01*
X175063635Y-113249271D01*
X175055952Y-113247600D01*
X174173215Y-113247600D01*
X174157976Y-113252075D01*
X174156771Y-113253465D01*
X174155100Y-113261148D01*
X174155100Y-114777848D01*
X173646183Y-114777848D01*
X173647100Y-114775009D01*
X173647100Y-112721485D01*
X174155100Y-112721485D01*
X174159575Y-112736724D01*
X174160965Y-112737929D01*
X174168648Y-112739600D01*
X175051385Y-112739600D01*
X175066624Y-112735125D01*
X175067829Y-112733735D01*
X175069500Y-112726052D01*
X175069500Y-112281619D01*
X175069234Y-112275830D01*
X175055386Y-112125121D01*
X175053288Y-112113800D01*
X174998138Y-111918253D01*
X174994013Y-111907506D01*
X174904148Y-111725278D01*
X174898138Y-111715470D01*
X174776564Y-111552662D01*
X174768875Y-111544122D01*
X174619664Y-111406193D01*
X174610539Y-111399192D01*
X174438699Y-111290769D01*
X174428451Y-111285548D01*
X174239733Y-111210257D01*
X174228697Y-111206988D01*
X174172870Y-111195883D01*
X174159994Y-111197035D01*
X174155100Y-111212191D01*
X174155100Y-112721485D01*
X173647100Y-112721485D01*
X173647100Y-111209352D01*
X173643294Y-111196390D01*
X173628378Y-111194454D01*
X173603097Y-111198798D01*
X173591977Y-111201778D01*
X173401352Y-111272103D01*
X173390974Y-111277053D01*
X173216357Y-111380939D01*
X173207045Y-111387705D01*
X173054282Y-111521674D01*
X173046365Y-111530017D01*
X172920577Y-111689578D01*
X172914306Y-111699235D01*
X172819706Y-111879040D01*
X172815301Y-111889674D01*
X172755047Y-112083723D01*
X172753779Y-112089690D01*
X172720049Y-112152163D01*
X172657899Y-112186482D01*
X172587060Y-112181753D01*
X172530023Y-112139476D01*
X172509265Y-112097694D01*
X172457038Y-111912509D01*
X172362021Y-111719835D01*
X172250700Y-111570757D01*
X172236937Y-111552326D01*
X172236936Y-111552325D01*
X172233484Y-111547702D01*
X172229248Y-111543786D01*
X172079970Y-111405795D01*
X172079967Y-111405793D01*
X172075730Y-111401876D01*
X172053270Y-111387705D01*
X172051725Y-111386730D01*
X172004786Y-111333463D01*
X171993022Y-111284128D01*
X171992022Y-111252330D01*
X171991773Y-111244410D01*
X171986122Y-111224958D01*
X171982114Y-111205606D01*
X171981031Y-111197035D01*
X171979574Y-111185503D01*
X171971713Y-111165647D01*
X171963300Y-111144397D01*
X171959455Y-111133170D01*
X171958433Y-111129652D01*
X171947118Y-111090707D01*
X171943084Y-111083885D01*
X171943081Y-111083879D01*
X171936806Y-111073268D01*
X171928110Y-111055518D01*
X171923572Y-111044056D01*
X171923569Y-111044051D01*
X171920652Y-111036683D01*
X171894673Y-111000925D01*
X171888157Y-110991007D01*
X171869675Y-110959757D01*
X171865642Y-110952937D01*
X171851318Y-110938613D01*
X171838476Y-110923578D01*
X171836570Y-110920954D01*
X171826572Y-110907193D01*
X171792506Y-110879011D01*
X171783727Y-110871022D01*
X171411152Y-110498447D01*
X171403612Y-110490161D01*
X171399500Y-110483682D01*
X171349848Y-110437056D01*
X171347007Y-110434302D01*
X171327270Y-110414565D01*
X171324073Y-110412085D01*
X171315051Y-110404380D01*
X171301616Y-110391764D01*
X171282821Y-110374114D01*
X171275875Y-110370295D01*
X171275872Y-110370293D01*
X171265066Y-110364352D01*
X171248547Y-110353501D01*
X171242441Y-110348765D01*
X171232541Y-110341086D01*
X171225272Y-110337941D01*
X171225268Y-110337938D01*
X171191963Y-110323526D01*
X171181313Y-110318309D01*
X171142560Y-110297005D01*
X171122937Y-110291967D01*
X171104234Y-110285563D01*
X171092920Y-110280667D01*
X171092919Y-110280667D01*
X171085645Y-110277519D01*
X171077822Y-110276280D01*
X171077812Y-110276277D01*
X171041976Y-110270601D01*
X171030356Y-110268195D01*
X170995211Y-110259172D01*
X170995210Y-110259172D01*
X170987530Y-110257200D01*
X170967276Y-110257200D01*
X170947565Y-110255649D01*
X170945034Y-110255248D01*
X170927557Y-110252480D01*
X170919665Y-110253226D01*
X170883539Y-110256641D01*
X170871681Y-110257200D01*
X166344463Y-110257200D01*
X166333279Y-110256673D01*
X166325791Y-110254999D01*
X166317868Y-110255248D01*
X166257733Y-110257138D01*
X166253775Y-110257200D01*
X166225844Y-110257200D01*
X166221929Y-110257695D01*
X166221925Y-110257695D01*
X166221867Y-110257703D01*
X166221838Y-110257706D01*
X166209996Y-110258639D01*
X166165810Y-110260027D01*
X166148444Y-110265072D01*
X166146358Y-110265678D01*
X166127006Y-110269686D01*
X166114768Y-110271232D01*
X166114766Y-110271233D01*
X166106903Y-110272226D01*
X166065786Y-110288506D01*
X166054585Y-110292341D01*
X166012106Y-110304682D01*
X166005287Y-110308715D01*
X166005282Y-110308717D01*
X165994671Y-110314993D01*
X165976921Y-110323690D01*
X165958083Y-110331148D01*
X165951667Y-110335809D01*
X165951666Y-110335810D01*
X165922325Y-110357128D01*
X165912401Y-110363647D01*
X165881160Y-110382122D01*
X165881155Y-110382126D01*
X165874337Y-110386158D01*
X165860013Y-110400482D01*
X165844981Y-110413321D01*
X165828593Y-110425228D01*
X165800412Y-110459293D01*
X165792422Y-110468073D01*
X165664995Y-110595500D01*
X165602683Y-110629526D01*
X165531868Y-110624461D01*
X165475032Y-110581914D01*
X165450221Y-110515394D01*
X165449900Y-110506405D01*
X165449900Y-108802194D01*
X165469902Y-108734073D01*
X165486805Y-108713099D01*
X174293353Y-99906552D01*
X174301639Y-99899012D01*
X174308118Y-99894900D01*
X174354744Y-99845248D01*
X174357498Y-99842407D01*
X174377235Y-99822670D01*
X174379715Y-99819473D01*
X174387420Y-99810451D01*
X174389174Y-99808583D01*
X174417686Y-99778221D01*
X174421505Y-99771275D01*
X174421507Y-99771272D01*
X174427448Y-99760466D01*
X174438299Y-99743947D01*
X174442105Y-99739040D01*
X174450714Y-99727941D01*
X174453859Y-99720672D01*
X174453862Y-99720668D01*
X174468274Y-99687363D01*
X174473491Y-99676713D01*
X174494795Y-99637960D01*
X174496768Y-99630278D01*
X174499833Y-99618338D01*
X174506237Y-99599634D01*
X174511133Y-99588320D01*
X174511134Y-99588317D01*
X174514281Y-99581045D01*
X174515521Y-99573218D01*
X174515523Y-99573212D01*
X174521199Y-99537376D01*
X174523605Y-99525756D01*
X174532628Y-99490611D01*
X174532628Y-99490610D01*
X174534600Y-99482930D01*
X174534600Y-99468313D01*
X174554602Y-99400192D01*
X174586429Y-99366494D01*
X174591106Y-99363712D01*
X174595440Y-99359911D01*
X174595443Y-99359909D01*
X174748282Y-99225872D01*
X174752623Y-99222065D01*
X174772417Y-99196957D01*
X174817758Y-99139441D01*
X174885622Y-99053356D01*
X174894661Y-99036177D01*
X174982958Y-98868351D01*
X174985650Y-98863235D01*
X175049355Y-98658069D01*
X175052264Y-98633492D01*
X175069564Y-98487331D01*
X175069564Y-98487324D01*
X175070000Y-98483644D01*
X175070000Y-97038698D01*
X175055351Y-96879272D01*
X175051593Y-96865945D01*
X175016100Y-96740099D01*
X174997038Y-96672509D01*
X174954361Y-96585968D01*
X174904575Y-96485014D01*
X174902021Y-96479835D01*
X174795344Y-96336976D01*
X174776937Y-96312326D01*
X174776936Y-96312325D01*
X174773484Y-96307702D01*
X174769248Y-96303786D01*
X174619970Y-96165795D01*
X174619967Y-96165793D01*
X174615730Y-96161876D01*
X174593365Y-96147765D01*
X174591725Y-96146730D01*
X174544786Y-96093463D01*
X174533022Y-96044128D01*
X174532022Y-96012330D01*
X174531773Y-96004410D01*
X174526122Y-95984958D01*
X174522114Y-95965606D01*
X174521113Y-95957681D01*
X174519574Y-95945503D01*
X174511017Y-95923890D01*
X174503300Y-95904397D01*
X174499455Y-95893170D01*
X174496491Y-95882969D01*
X174487118Y-95850707D01*
X174483084Y-95843885D01*
X174483081Y-95843879D01*
X174476806Y-95833268D01*
X174468110Y-95815518D01*
X174463572Y-95804056D01*
X174463569Y-95804051D01*
X174460652Y-95796683D01*
X174436364Y-95763253D01*
X174434673Y-95760925D01*
X174428157Y-95751007D01*
X174415129Y-95728979D01*
X174405642Y-95712937D01*
X174391318Y-95698613D01*
X174378476Y-95683578D01*
X174366572Y-95667193D01*
X174332506Y-95639011D01*
X174323727Y-95631022D01*
X173301505Y-94608800D01*
X173267479Y-94546488D01*
X173264600Y-94519705D01*
X173264600Y-92483313D01*
X173284602Y-92415192D01*
X173316429Y-92381494D01*
X173321106Y-92378712D01*
X173325440Y-92374911D01*
X173325443Y-92374909D01*
X173478282Y-92240872D01*
X173482623Y-92237065D01*
X173504324Y-92209538D01*
X173612045Y-92072893D01*
X173615622Y-92068356D01*
X173618459Y-92062965D01*
X173712958Y-91883351D01*
X173715650Y-91878235D01*
X173779355Y-91673069D01*
X173779462Y-91672163D01*
X173812439Y-91611079D01*
X173874588Y-91576757D01*
X173945427Y-91581483D01*
X174002465Y-91623758D01*
X174023228Y-91665546D01*
X174075162Y-91849691D01*
X174170179Y-92042365D01*
X174237664Y-92132740D01*
X174282154Y-92192318D01*
X174298716Y-92214498D01*
X174302950Y-92218412D01*
X174302952Y-92218414D01*
X174451800Y-92356007D01*
X174456470Y-92360324D01*
X174638157Y-92474960D01*
X174837692Y-92554566D01*
X174843352Y-92555692D01*
X174843356Y-92555693D01*
X175042726Y-92595350D01*
X175042729Y-92595350D01*
X175048393Y-92596477D01*
X175054168Y-92596553D01*
X175054172Y-92596553D01*
X175161845Y-92597962D01*
X175263204Y-92599289D01*
X175268901Y-92598310D01*
X175268902Y-92598310D01*
X175469233Y-92563887D01*
X175469234Y-92563887D01*
X175474930Y-92562908D01*
X175676480Y-92488552D01*
X175861106Y-92378712D01*
X175865446Y-92374906D01*
X175865450Y-92374903D01*
X176018282Y-92240872D01*
X176022623Y-92237065D01*
X176044324Y-92209538D01*
X176152045Y-92072893D01*
X176155622Y-92068356D01*
X176158459Y-92062965D01*
X176252958Y-91883351D01*
X176255650Y-91878235D01*
X176319355Y-91673069D01*
X176319559Y-91671344D01*
X176352668Y-91610023D01*
X176414818Y-91575704D01*
X176485657Y-91580435D01*
X176542693Y-91622712D01*
X176563452Y-91664496D01*
X176614062Y-91843947D01*
X176618187Y-91854694D01*
X176708052Y-92036922D01*
X176714062Y-92046730D01*
X176835636Y-92209538D01*
X176843325Y-92218078D01*
X176992536Y-92356007D01*
X177001661Y-92363008D01*
X177173501Y-92471431D01*
X177183749Y-92476652D01*
X177372467Y-92551943D01*
X177383503Y-92555212D01*
X177439330Y-92566317D01*
X177452206Y-92565165D01*
X177456183Y-92552848D01*
X177965100Y-92552848D01*
X177968906Y-92565810D01*
X177983822Y-92567746D01*
X178009103Y-92563402D01*
X178020223Y-92560422D01*
X178210848Y-92490097D01*
X178221226Y-92485147D01*
X178395843Y-92381261D01*
X178405155Y-92374495D01*
X178557918Y-92240526D01*
X178565835Y-92232183D01*
X178691623Y-92072622D01*
X178697894Y-92062965D01*
X178792494Y-91883160D01*
X178796899Y-91872526D01*
X178857151Y-91678482D01*
X178859543Y-91667228D01*
X178879064Y-91502302D01*
X178879500Y-91494899D01*
X178879500Y-91040715D01*
X178875025Y-91025476D01*
X178873635Y-91024271D01*
X178865952Y-91022600D01*
X177983215Y-91022600D01*
X177967976Y-91027075D01*
X177966771Y-91028465D01*
X177965100Y-91036148D01*
X177965100Y-92552848D01*
X177456183Y-92552848D01*
X177457100Y-92550009D01*
X177457100Y-90496485D01*
X177965100Y-90496485D01*
X177969575Y-90511724D01*
X177970965Y-90512929D01*
X177978648Y-90514600D01*
X178861385Y-90514600D01*
X178876624Y-90510125D01*
X178877829Y-90508735D01*
X178879500Y-90501052D01*
X178879500Y-90056619D01*
X178879234Y-90050830D01*
X178865386Y-89900121D01*
X178863288Y-89888800D01*
X178808138Y-89693253D01*
X178804013Y-89682506D01*
X178714148Y-89500278D01*
X178708138Y-89490470D01*
X178586564Y-89327662D01*
X178578875Y-89319122D01*
X178429664Y-89181193D01*
X178420539Y-89174192D01*
X178248699Y-89065769D01*
X178238451Y-89060548D01*
X178049733Y-88985257D01*
X178038697Y-88981988D01*
X177982870Y-88970883D01*
X177969994Y-88972035D01*
X177965100Y-88987191D01*
X177965100Y-90496485D01*
X177457100Y-90496485D01*
X177457100Y-88984352D01*
X177453294Y-88971390D01*
X177438378Y-88969454D01*
X177413097Y-88973798D01*
X177401977Y-88976778D01*
X177211352Y-89047103D01*
X177200974Y-89052053D01*
X177026357Y-89155939D01*
X177017045Y-89162705D01*
X176864282Y-89296674D01*
X176856365Y-89305017D01*
X176730577Y-89464578D01*
X176724306Y-89474235D01*
X176629706Y-89654040D01*
X176625301Y-89664674D01*
X176565047Y-89858723D01*
X176563779Y-89864690D01*
X176530049Y-89927163D01*
X176467899Y-89961482D01*
X176397060Y-89956753D01*
X176340023Y-89914476D01*
X176319265Y-89872694D01*
X176267038Y-89687509D01*
X176259421Y-89672062D01*
X176174575Y-89500014D01*
X176172021Y-89494835D01*
X176043484Y-89322702D01*
X176039248Y-89318786D01*
X175889970Y-89180795D01*
X175889967Y-89180793D01*
X175885730Y-89176876D01*
X175704043Y-89062240D01*
X175504508Y-88982634D01*
X175498848Y-88981508D01*
X175498844Y-88981507D01*
X175299474Y-88941850D01*
X175299471Y-88941850D01*
X175293807Y-88940723D01*
X175288032Y-88940647D01*
X175288028Y-88940647D01*
X175180355Y-88939238D01*
X175078996Y-88937911D01*
X175073299Y-88938890D01*
X175073298Y-88938890D01*
X174880405Y-88972035D01*
X174867270Y-88974292D01*
X174665720Y-89048648D01*
X174481094Y-89158488D01*
X174476754Y-89162294D01*
X174476750Y-89162297D01*
X174323918Y-89296328D01*
X174319577Y-89300135D01*
X174316002Y-89304670D01*
X174316001Y-89304671D01*
X174282820Y-89346762D01*
X174186578Y-89468844D01*
X174183889Y-89473955D01*
X174183887Y-89473958D01*
X174164393Y-89511011D01*
X174086550Y-89658965D01*
X174022845Y-89864131D01*
X174022738Y-89865037D01*
X173989761Y-89926121D01*
X173927612Y-89960443D01*
X173856773Y-89955717D01*
X173799735Y-89913442D01*
X173778972Y-89871654D01*
X173775295Y-89858617D01*
X173727038Y-89687509D01*
X173719421Y-89672062D01*
X173634575Y-89500014D01*
X173632021Y-89494835D01*
X173503484Y-89322702D01*
X173499248Y-89318786D01*
X173349970Y-89180795D01*
X173349967Y-89180793D01*
X173345730Y-89176876D01*
X173164043Y-89062240D01*
X172964508Y-88982634D01*
X172958848Y-88981508D01*
X172958844Y-88981507D01*
X172759474Y-88941850D01*
X172759471Y-88941850D01*
X172753807Y-88940723D01*
X172748032Y-88940647D01*
X172748028Y-88940647D01*
X172640355Y-88939238D01*
X172538996Y-88937911D01*
X172533299Y-88938890D01*
X172533298Y-88938890D01*
X172423038Y-88957836D01*
X172352514Y-88949659D01*
X172297606Y-88904652D01*
X172275700Y-88833656D01*
X172275700Y-86101395D01*
X172295702Y-86033274D01*
X172312605Y-86012299D01*
X173023358Y-85301547D01*
X173031637Y-85294013D01*
X173038118Y-85289900D01*
X173084744Y-85240248D01*
X173087498Y-85237407D01*
X173107235Y-85217670D01*
X173109715Y-85214473D01*
X173117420Y-85205451D01*
X173119174Y-85203583D01*
X173147686Y-85173221D01*
X173151505Y-85166275D01*
X173151507Y-85166272D01*
X173157448Y-85155466D01*
X173168299Y-85138947D01*
X173175858Y-85129201D01*
X173180714Y-85122941D01*
X173183859Y-85115672D01*
X173183862Y-85115668D01*
X173198274Y-85082363D01*
X173203491Y-85071713D01*
X173224795Y-85032960D01*
X173229833Y-85013337D01*
X173236237Y-84994634D01*
X173241133Y-84983320D01*
X173241133Y-84983319D01*
X173244281Y-84976045D01*
X173245520Y-84968222D01*
X173245523Y-84968212D01*
X173251199Y-84932376D01*
X173253605Y-84920756D01*
X173262628Y-84885611D01*
X173262628Y-84885610D01*
X173264600Y-84877930D01*
X173264600Y-84863313D01*
X173284602Y-84795192D01*
X173316429Y-84761494D01*
X173321106Y-84758712D01*
X173325440Y-84754911D01*
X173325443Y-84754909D01*
X173478282Y-84620872D01*
X173482623Y-84617065D01*
X173615622Y-84448356D01*
X173620946Y-84438238D01*
X173712958Y-84263351D01*
X173715650Y-84258235D01*
X173779355Y-84053069D01*
X173779462Y-84052163D01*
X173812439Y-83991079D01*
X173874588Y-83956757D01*
X173945427Y-83961483D01*
X174002465Y-84003758D01*
X174023228Y-84045546D01*
X174075162Y-84229691D01*
X174077715Y-84234868D01*
X174077717Y-84234873D01*
X174089238Y-84258235D01*
X174170179Y-84422365D01*
X174298716Y-84594498D01*
X174302950Y-84598412D01*
X174302952Y-84598414D01*
X174443346Y-84728192D01*
X174456470Y-84740324D01*
X174638157Y-84854960D01*
X174643521Y-84857100D01*
X174818129Y-84926761D01*
X174837692Y-84934566D01*
X174843352Y-84935692D01*
X174843356Y-84935693D01*
X175042726Y-84975350D01*
X175042729Y-84975350D01*
X175048393Y-84976477D01*
X175054168Y-84976553D01*
X175054172Y-84976553D01*
X175161845Y-84977962D01*
X175263204Y-84979289D01*
X175268901Y-84978310D01*
X175268902Y-84978310D01*
X175469233Y-84943887D01*
X175469234Y-84943887D01*
X175474930Y-84942908D01*
X175676480Y-84868552D01*
X175861106Y-84758712D01*
X175865446Y-84754906D01*
X175865450Y-84754903D01*
X176018282Y-84620872D01*
X176022623Y-84617065D01*
X176155622Y-84448356D01*
X176160946Y-84438238D01*
X176252958Y-84263351D01*
X176255650Y-84258235D01*
X176319355Y-84053069D01*
X176319462Y-84052163D01*
X176352439Y-83991079D01*
X176414588Y-83956757D01*
X176485427Y-83961483D01*
X176542465Y-84003758D01*
X176563228Y-84045546D01*
X176615162Y-84229691D01*
X176617715Y-84234868D01*
X176617717Y-84234873D01*
X176629238Y-84258235D01*
X176710179Y-84422365D01*
X176838716Y-84594498D01*
X176842950Y-84598412D01*
X176842952Y-84598414D01*
X176983346Y-84728192D01*
X176996470Y-84740324D01*
X177178157Y-84854960D01*
X177183521Y-84857100D01*
X177358129Y-84926761D01*
X177377692Y-84934566D01*
X177383352Y-84935692D01*
X177383356Y-84935693D01*
X177582726Y-84975350D01*
X177582729Y-84975350D01*
X177588393Y-84976477D01*
X177594168Y-84976553D01*
X177594172Y-84976553D01*
X177701845Y-84977962D01*
X177803204Y-84979289D01*
X177808901Y-84978310D01*
X177808902Y-84978310D01*
X178009233Y-84943887D01*
X178009234Y-84943887D01*
X178014930Y-84942908D01*
X178216480Y-84868552D01*
X178401106Y-84758712D01*
X178405446Y-84754906D01*
X178405450Y-84754903D01*
X178558282Y-84620872D01*
X178562623Y-84617065D01*
X178695622Y-84448356D01*
X178700946Y-84438238D01*
X178792958Y-84263351D01*
X178795650Y-84258235D01*
X178859355Y-84053069D01*
X178862264Y-84028492D01*
X178879564Y-83882331D01*
X178879564Y-83882324D01*
X178880000Y-83878644D01*
X178880000Y-82433698D01*
X178865351Y-82274272D01*
X178863271Y-82266895D01*
X178808607Y-82073074D01*
X178807038Y-82067509D01*
X178804359Y-82062075D01*
X178714575Y-81880014D01*
X178712021Y-81874835D01*
X178583484Y-81702702D01*
X178573097Y-81693100D01*
X178429970Y-81560795D01*
X178429967Y-81560793D01*
X178425730Y-81556876D01*
X178401725Y-81541730D01*
X178354786Y-81488463D01*
X178343022Y-81439125D01*
X178342820Y-81432679D01*
X178341774Y-81399411D01*
X178339562Y-81391797D01*
X178339561Y-81391792D01*
X178336123Y-81379959D01*
X178332112Y-81360595D01*
X178330567Y-81348364D01*
X178329574Y-81340503D01*
X178326657Y-81333136D01*
X178326656Y-81333131D01*
X178313298Y-81299392D01*
X178309454Y-81288165D01*
X178299330Y-81253322D01*
X178297118Y-81245707D01*
X178286807Y-81228272D01*
X178278112Y-81210524D01*
X178270652Y-81191683D01*
X178271762Y-81191243D01*
X178258143Y-81129460D01*
X178282769Y-81062871D01*
X178339486Y-81020167D01*
X178383846Y-81012100D01*
X179616600Y-81012100D01*
X179684721Y-81032102D01*
G37*
G04 #@! TD.AperFunction*
M02*
