%FSLAX45Y45*%
G04 Gerber Fmt 4.5, Leading zero omitted, Abs format (unit mm)*
G04 Created by KiCad (PCBNEW (6.0.5)) date 2022-12-14 22:57:56*
%MOMM*%
%LPD*%
G01*
G04 APERTURE LIST*
%ADD10C,0.200000*%
%ADD11C,0.040000*%
%ADD12C,0.080000*%
%ADD13C,0.081280*%
%ADD14C,0.091440*%
%ADD15C,0.101600*%
G04 APERTURE END LIST*
D10*
D11*
X13835870Y-9311490D02*
X13875870Y-9351490D01*
X13875870Y-9311490D02*
X13835870Y-9351490D01*
X14941150Y-11913690D02*
X14981150Y-11953690D01*
X14981150Y-11913690D02*
X14941150Y-11953690D01*
X15081900Y-11981500D02*
X15121900Y-12021500D01*
X15121900Y-11981500D02*
X15081900Y-12021500D01*
D12*
X12359000Y-11202000D02*
G75*
G03*
X12359000Y-11202000I-40000J0D01*
G01*
X12359000Y-11493500D02*
G75*
G03*
X12359000Y-11493500I-40000J0D01*
G01*
X13121000Y-11202000D02*
G75*
G03*
X13121000Y-11202000I-40000J0D01*
G01*
X13121000Y-11493500D02*
G75*
G03*
X13121000Y-11493500I-40000J0D01*
G01*
X13375000Y-8509000D02*
G75*
G03*
X13375000Y-8509000I-40000J0D01*
G01*
X14391000Y-8509000D02*
G75*
G03*
X14391000Y-8509000I-40000J0D01*
G01*
D13*
X12310110Y-9293860D02*
X12310110Y-9375140D01*
X12269470Y-9334500D02*
X12350750Y-9334500D01*
X12310110Y-9547860D02*
X12310110Y-9629140D01*
X12269470Y-9588500D02*
X12350750Y-9588500D01*
X12310110Y-9801860D02*
X12310110Y-9883140D01*
X12269470Y-9842500D02*
X12350750Y-9842500D01*
X12310110Y-10055860D02*
X12310110Y-10137140D01*
X12269470Y-10096500D02*
X12350750Y-10096500D01*
X12310110Y-10309860D02*
X12310110Y-10391140D01*
X12269470Y-10350500D02*
X12350750Y-10350500D01*
X12310110Y-10563860D02*
X12310110Y-10645140D01*
X12269470Y-10604500D02*
X12350750Y-10604500D01*
X12310110Y-10817860D02*
X12310110Y-10899140D01*
X12269470Y-10858500D02*
X12350750Y-10858500D01*
X13072110Y-9293860D02*
X13072110Y-9375140D01*
X13031470Y-9334500D02*
X13112750Y-9334500D01*
X13072110Y-9547860D02*
X13072110Y-9629140D01*
X13031470Y-9588500D02*
X13112750Y-9588500D01*
X13072110Y-9801860D02*
X13072110Y-9883140D01*
X13031470Y-9842500D02*
X13112750Y-9842500D01*
X13072110Y-10055860D02*
X13072110Y-10137140D01*
X13031470Y-10096500D02*
X13112750Y-10096500D01*
X13072110Y-10309860D02*
X13072110Y-10391140D01*
X13031470Y-10350500D02*
X13112750Y-10350500D01*
X13072110Y-10563860D02*
X13072110Y-10645140D01*
X13031470Y-10604500D02*
X13112750Y-10604500D01*
X13072110Y-10817860D02*
X13072110Y-10899140D01*
X13031470Y-10858500D02*
X13112750Y-10858500D01*
X13580110Y-9734720D02*
X13580110Y-9816000D01*
X13539470Y-9775360D02*
X13620750Y-9775360D01*
X13580110Y-11258720D02*
X13580110Y-11340000D01*
X13539470Y-11299360D02*
X13620750Y-11299360D01*
X13834110Y-9734720D02*
X13834110Y-9816000D01*
X13793470Y-9775360D02*
X13874750Y-9775360D01*
X13834110Y-11258720D02*
X13834110Y-11340000D01*
X13793470Y-11299360D02*
X13874750Y-11299360D01*
X14088110Y-9734720D02*
X14088110Y-9816000D01*
X14047470Y-9775360D02*
X14128750Y-9775360D01*
X14088110Y-11258720D02*
X14088110Y-11340000D01*
X14047470Y-11299360D02*
X14128750Y-11299360D01*
X14342110Y-9734720D02*
X14342110Y-9816000D01*
X14301470Y-9775360D02*
X14382750Y-9775360D01*
X14342110Y-11258720D02*
X14342110Y-11340000D01*
X14301470Y-11299360D02*
X14382750Y-11299360D01*
X14596110Y-9734720D02*
X14596110Y-9816000D01*
X14555470Y-9775360D02*
X14636750Y-9775360D01*
X14596110Y-11258720D02*
X14596110Y-11340000D01*
X14555470Y-11299360D02*
X14636750Y-11299360D01*
X14850110Y-9734720D02*
X14850110Y-9816000D01*
X14809470Y-9775360D02*
X14890750Y-9775360D01*
X14850110Y-11258720D02*
X14850110Y-11340000D01*
X14809470Y-11299360D02*
X14890750Y-11299360D01*
X15104110Y-9734720D02*
X15104110Y-9816000D01*
X15063470Y-9775360D02*
X15144750Y-9775360D01*
X15104110Y-11258720D02*
X15104110Y-11340000D01*
X15063470Y-11299360D02*
X15144750Y-11299360D01*
X15358110Y-9734720D02*
X15358110Y-9816000D01*
X15317470Y-9775360D02*
X15398750Y-9775360D01*
X15358110Y-11258720D02*
X15358110Y-11340000D01*
X15317470Y-11299360D02*
X15398750Y-11299360D01*
X15485110Y-8274220D02*
X15485110Y-8355500D01*
X15444470Y-8314860D02*
X15525750Y-8314860D01*
X15485110Y-9036220D02*
X15485110Y-9117500D01*
X15444470Y-9076860D02*
X15525750Y-9076860D01*
X15612110Y-9734720D02*
X15612110Y-9816000D01*
X15571470Y-9775360D02*
X15652750Y-9775360D01*
X15612110Y-11258720D02*
X15612110Y-11340000D01*
X15571470Y-11299360D02*
X15652750Y-11299360D01*
X15739110Y-8274220D02*
X15739110Y-8355500D01*
X15698470Y-8314860D02*
X15779750Y-8314860D01*
X15739110Y-9036220D02*
X15739110Y-9117500D01*
X15698470Y-9076860D02*
X15779750Y-9076860D01*
X15866110Y-9734720D02*
X15866110Y-9816000D01*
X15825470Y-9775360D02*
X15906750Y-9775360D01*
X15866110Y-11258720D02*
X15866110Y-11340000D01*
X15825470Y-11299360D02*
X15906750Y-11299360D01*
X15993110Y-8274220D02*
X15993110Y-8355500D01*
X15952470Y-8314860D02*
X16033750Y-8314860D01*
X15993110Y-9036220D02*
X15993110Y-9117500D01*
X15952470Y-9076860D02*
X16033750Y-9076860D01*
X16120110Y-9734720D02*
X16120110Y-9816000D01*
X16079470Y-9775360D02*
X16160750Y-9775360D01*
X16120110Y-11258720D02*
X16120110Y-11340000D01*
X16079470Y-11299360D02*
X16160750Y-11299360D01*
X16247110Y-8274220D02*
X16247110Y-8355500D01*
X16206470Y-8314860D02*
X16287750Y-8314860D01*
X16247110Y-9036220D02*
X16247110Y-9117500D01*
X16206470Y-9076860D02*
X16287750Y-9076860D01*
X16374110Y-9734720D02*
X16374110Y-9816000D01*
X16333470Y-9775360D02*
X16414750Y-9775360D01*
X16374110Y-11258720D02*
X16374110Y-11340000D01*
X16333470Y-11299360D02*
X16414750Y-11299360D01*
X16501110Y-8274220D02*
X16501110Y-8355500D01*
X16460470Y-8314860D02*
X16541750Y-8314860D01*
X16501110Y-9036220D02*
X16501110Y-9117500D01*
X16460470Y-9076860D02*
X16541750Y-9076860D01*
X16628110Y-9734720D02*
X16628110Y-9816000D01*
X16587470Y-9775360D02*
X16668750Y-9775360D01*
X16628110Y-11258720D02*
X16628110Y-11340000D01*
X16587470Y-11299360D02*
X16668750Y-11299360D01*
X16755110Y-8274220D02*
X16755110Y-8355500D01*
X16714470Y-8314860D02*
X16795750Y-8314860D01*
X16755110Y-9036220D02*
X16755110Y-9117500D01*
X16714470Y-9076860D02*
X16795750Y-9076860D01*
X16882110Y-9734720D02*
X16882110Y-9816000D01*
X16841470Y-9775360D02*
X16922750Y-9775360D01*
X16882110Y-11258720D02*
X16882110Y-11340000D01*
X16841470Y-11299360D02*
X16922750Y-11299360D01*
X17009110Y-8274220D02*
X17009110Y-8355500D01*
X16968470Y-8314860D02*
X17049750Y-8314860D01*
X17009110Y-9036220D02*
X17009110Y-9117500D01*
X16968470Y-9076860D02*
X17049750Y-9076860D01*
X17136110Y-9734720D02*
X17136110Y-9816000D01*
X17095470Y-9775360D02*
X17176750Y-9775360D01*
X17136110Y-11258720D02*
X17136110Y-11340000D01*
X17095470Y-11299360D02*
X17176750Y-11299360D01*
X17263110Y-8274220D02*
X17263110Y-8355500D01*
X17222470Y-8314860D02*
X17303750Y-8314860D01*
X17263110Y-9036220D02*
X17263110Y-9117500D01*
X17222470Y-9076860D02*
X17303750Y-9076860D01*
X17390110Y-9734720D02*
X17390110Y-9816000D01*
X17349470Y-9775360D02*
X17430750Y-9775360D01*
X17390110Y-11258720D02*
X17390110Y-11340000D01*
X17349470Y-11299360D02*
X17430750Y-11299360D01*
X17517110Y-8274220D02*
X17517110Y-8355500D01*
X17476470Y-8314860D02*
X17557750Y-8314860D01*
X17517110Y-9036220D02*
X17517110Y-9117500D01*
X17476470Y-9076860D02*
X17557750Y-9076860D01*
X17771110Y-8274220D02*
X17771110Y-8355500D01*
X17730470Y-8314860D02*
X17811750Y-8314860D01*
X17771110Y-9036220D02*
X17771110Y-9117500D01*
X17730470Y-9076860D02*
X17811750Y-9076860D01*
D14*
X16152439Y-9553689D02*
X16152439Y-9489031D01*
X16087781Y-9489031D01*
X16087781Y-9553689D01*
X16152439Y-9553689D01*
D15*
X12466110Y-8231160D02*
X12516910Y-8180360D01*
X12466110Y-8129560D01*
X12415310Y-8180360D01*
X12466110Y-8231160D01*
X12466110Y-8881160D02*
X12516910Y-8830360D01*
X12466110Y-8779560D01*
X12415310Y-8830360D01*
X12466110Y-8881160D01*
X12916110Y-8231160D02*
X12966910Y-8180360D01*
X12916110Y-8129560D01*
X12865310Y-8180360D01*
X12916110Y-8231160D01*
X12916110Y-8881160D02*
X12966910Y-8830360D01*
X12916110Y-8779560D01*
X12865310Y-8830360D01*
X12916110Y-8881160D01*
D10*
X11930229Y-13263336D02*
X11930229Y-13063336D01*
X11977848Y-13063336D01*
X12006419Y-13072860D01*
X12025467Y-13091908D01*
X12034991Y-13110955D01*
X12044515Y-13149050D01*
X12044515Y-13177622D01*
X12034991Y-13215717D01*
X12025467Y-13234765D01*
X12006419Y-13253812D01*
X11977848Y-13263336D01*
X11930229Y-13263336D01*
X12130229Y-13263336D02*
X12130229Y-13130003D01*
X12130229Y-13168098D02*
X12139753Y-13149050D01*
X12149277Y-13139527D01*
X12168324Y-13130003D01*
X12187372Y-13130003D01*
X12254038Y-13263336D02*
X12254038Y-13130003D01*
X12254038Y-13063336D02*
X12244515Y-13072860D01*
X12254038Y-13082384D01*
X12263562Y-13072860D01*
X12254038Y-13063336D01*
X12254038Y-13082384D01*
X12377848Y-13263336D02*
X12358800Y-13253812D01*
X12349277Y-13234765D01*
X12349277Y-13063336D01*
X12482610Y-13263336D02*
X12463562Y-13253812D01*
X12454038Y-13234765D01*
X12454038Y-13063336D01*
X12711181Y-13263336D02*
X12711181Y-13063336D01*
X12777848Y-13206193D01*
X12844515Y-13063336D01*
X12844515Y-13263336D01*
X13025467Y-13263336D02*
X13025467Y-13158574D01*
X13015943Y-13139527D01*
X12996896Y-13130003D01*
X12958800Y-13130003D01*
X12939753Y-13139527D01*
X13025467Y-13253812D02*
X13006419Y-13263336D01*
X12958800Y-13263336D01*
X12939753Y-13253812D01*
X12930229Y-13234765D01*
X12930229Y-13215717D01*
X12939753Y-13196669D01*
X12958800Y-13187146D01*
X13006419Y-13187146D01*
X13025467Y-13177622D01*
X13120705Y-13130003D02*
X13120705Y-13330003D01*
X13120705Y-13139527D02*
X13139753Y-13130003D01*
X13177848Y-13130003D01*
X13196896Y-13139527D01*
X13206419Y-13149050D01*
X13215943Y-13168098D01*
X13215943Y-13225241D01*
X13206419Y-13244288D01*
X13196896Y-13253812D01*
X13177848Y-13263336D01*
X13139753Y-13263336D01*
X13120705Y-13253812D01*
X13301658Y-13244288D02*
X13311181Y-13253812D01*
X13301658Y-13263336D01*
X13292134Y-13253812D01*
X13301658Y-13244288D01*
X13301658Y-13263336D01*
X13301658Y-13139527D02*
X13311181Y-13149050D01*
X13301658Y-13158574D01*
X13292134Y-13149050D01*
X13301658Y-13139527D01*
X13301658Y-13158574D01*
D11*
X11632610Y-13572860D02*
X11672610Y-13612860D01*
X11672610Y-13572860D02*
X11632610Y-13612860D01*
D10*
X11968324Y-13483336D02*
X11987372Y-13483336D01*
X12006419Y-13492860D01*
X12015943Y-13502384D01*
X12025467Y-13521431D01*
X12034991Y-13559527D01*
X12034991Y-13607146D01*
X12025467Y-13645241D01*
X12015943Y-13664288D01*
X12006419Y-13673812D01*
X11987372Y-13683336D01*
X11968324Y-13683336D01*
X11949277Y-13673812D01*
X11939753Y-13664288D01*
X11930229Y-13645241D01*
X11920705Y-13607146D01*
X11920705Y-13559527D01*
X11930229Y-13521431D01*
X11939753Y-13502384D01*
X11949277Y-13492860D01*
X11968324Y-13483336D01*
X12120705Y-13664288D02*
X12130229Y-13673812D01*
X12120705Y-13683336D01*
X12111181Y-13673812D01*
X12120705Y-13664288D01*
X12120705Y-13683336D01*
X12301658Y-13550003D02*
X12301658Y-13683336D01*
X12254038Y-13473812D02*
X12206419Y-13616669D01*
X12330229Y-13616669D01*
X12444515Y-13483336D02*
X12463562Y-13483336D01*
X12482610Y-13492860D01*
X12492134Y-13502384D01*
X12501658Y-13521431D01*
X12511181Y-13559527D01*
X12511181Y-13607146D01*
X12501658Y-13645241D01*
X12492134Y-13664288D01*
X12482610Y-13673812D01*
X12463562Y-13683336D01*
X12444515Y-13683336D01*
X12425467Y-13673812D01*
X12415943Y-13664288D01*
X12406419Y-13645241D01*
X12396896Y-13607146D01*
X12396896Y-13559527D01*
X12406419Y-13521431D01*
X12415943Y-13502384D01*
X12425467Y-13492860D01*
X12444515Y-13483336D01*
X12634991Y-13483336D02*
X12654038Y-13483336D01*
X12673086Y-13492860D01*
X12682610Y-13502384D01*
X12692134Y-13521431D01*
X12701658Y-13559527D01*
X12701658Y-13607146D01*
X12692134Y-13645241D01*
X12682610Y-13664288D01*
X12673086Y-13673812D01*
X12654038Y-13683336D01*
X12634991Y-13683336D01*
X12615943Y-13673812D01*
X12606419Y-13664288D01*
X12596896Y-13645241D01*
X12587372Y-13607146D01*
X12587372Y-13559527D01*
X12596896Y-13521431D01*
X12606419Y-13502384D01*
X12615943Y-13492860D01*
X12634991Y-13483336D01*
X12787372Y-13683336D02*
X12787372Y-13550003D01*
X12787372Y-13569050D02*
X12796896Y-13559527D01*
X12815943Y-13550003D01*
X12844515Y-13550003D01*
X12863562Y-13559527D01*
X12873086Y-13578574D01*
X12873086Y-13683336D01*
X12873086Y-13578574D02*
X12882610Y-13559527D01*
X12901658Y-13550003D01*
X12930229Y-13550003D01*
X12949277Y-13559527D01*
X12958800Y-13578574D01*
X12958800Y-13683336D01*
X13054038Y-13683336D02*
X13054038Y-13550003D01*
X13054038Y-13569050D02*
X13063562Y-13559527D01*
X13082610Y-13550003D01*
X13111181Y-13550003D01*
X13130229Y-13559527D01*
X13139753Y-13578574D01*
X13139753Y-13683336D01*
X13139753Y-13578574D02*
X13149277Y-13559527D01*
X13168324Y-13550003D01*
X13196896Y-13550003D01*
X13215943Y-13559527D01*
X13225467Y-13578574D01*
X13225467Y-13683336D01*
X13615943Y-13473812D02*
X13444515Y-13730955D01*
X13873086Y-13483336D02*
X13892134Y-13483336D01*
X13911181Y-13492860D01*
X13920705Y-13502384D01*
X13930229Y-13521431D01*
X13939753Y-13559527D01*
X13939753Y-13607146D01*
X13930229Y-13645241D01*
X13920705Y-13664288D01*
X13911181Y-13673812D01*
X13892134Y-13683336D01*
X13873086Y-13683336D01*
X13854038Y-13673812D01*
X13844515Y-13664288D01*
X13834991Y-13645241D01*
X13825467Y-13607146D01*
X13825467Y-13559527D01*
X13834991Y-13521431D01*
X13844515Y-13502384D01*
X13854038Y-13492860D01*
X13873086Y-13483336D01*
X14025467Y-13664288D02*
X14034991Y-13673812D01*
X14025467Y-13683336D01*
X14015943Y-13673812D01*
X14025467Y-13664288D01*
X14025467Y-13683336D01*
X14158800Y-13483336D02*
X14177848Y-13483336D01*
X14196896Y-13492860D01*
X14206419Y-13502384D01*
X14215943Y-13521431D01*
X14225467Y-13559527D01*
X14225467Y-13607146D01*
X14215943Y-13645241D01*
X14206419Y-13664288D01*
X14196896Y-13673812D01*
X14177848Y-13683336D01*
X14158800Y-13683336D01*
X14139753Y-13673812D01*
X14130229Y-13664288D01*
X14120705Y-13645241D01*
X14111181Y-13607146D01*
X14111181Y-13559527D01*
X14120705Y-13521431D01*
X14130229Y-13502384D01*
X14139753Y-13492860D01*
X14158800Y-13483336D01*
X14415943Y-13683336D02*
X14301658Y-13683336D01*
X14358800Y-13683336D02*
X14358800Y-13483336D01*
X14339753Y-13511908D01*
X14320705Y-13530955D01*
X14301658Y-13540479D01*
X14596896Y-13483336D02*
X14501658Y-13483336D01*
X14492134Y-13578574D01*
X14501658Y-13569050D01*
X14520705Y-13559527D01*
X14568324Y-13559527D01*
X14587372Y-13569050D01*
X14596896Y-13578574D01*
X14606419Y-13597622D01*
X14606419Y-13645241D01*
X14596896Y-13664288D01*
X14587372Y-13673812D01*
X14568324Y-13683336D01*
X14520705Y-13683336D01*
X14501658Y-13673812D01*
X14492134Y-13664288D01*
X14673086Y-13483336D02*
X14806419Y-13483336D01*
X14720705Y-13683336D01*
X14873086Y-13483336D02*
X14873086Y-13521431D01*
X14949277Y-13483336D02*
X14949277Y-13521431D01*
X15244515Y-13759527D02*
X15234991Y-13750003D01*
X15215943Y-13721431D01*
X15206419Y-13702384D01*
X15196896Y-13673812D01*
X15187372Y-13626193D01*
X15187372Y-13588098D01*
X15196896Y-13540479D01*
X15206419Y-13511908D01*
X15215943Y-13492860D01*
X15234991Y-13464288D01*
X15244515Y-13454765D01*
X15301658Y-13483336D02*
X15425467Y-13483336D01*
X15358800Y-13559527D01*
X15387372Y-13559527D01*
X15406419Y-13569050D01*
X15415943Y-13578574D01*
X15425467Y-13597622D01*
X15425467Y-13645241D01*
X15415943Y-13664288D01*
X15406419Y-13673812D01*
X15387372Y-13683336D01*
X15330229Y-13683336D01*
X15311181Y-13673812D01*
X15301658Y-13664288D01*
X15663562Y-13683336D02*
X15663562Y-13483336D01*
X15749277Y-13683336D02*
X15749277Y-13578574D01*
X15739753Y-13559527D01*
X15720705Y-13550003D01*
X15692134Y-13550003D01*
X15673086Y-13559527D01*
X15663562Y-13569050D01*
X15873086Y-13683336D02*
X15854038Y-13673812D01*
X15844515Y-13664288D01*
X15834991Y-13645241D01*
X15834991Y-13588098D01*
X15844515Y-13569050D01*
X15854038Y-13559527D01*
X15873086Y-13550003D01*
X15901658Y-13550003D01*
X15920705Y-13559527D01*
X15930229Y-13569050D01*
X15939753Y-13588098D01*
X15939753Y-13645241D01*
X15930229Y-13664288D01*
X15920705Y-13673812D01*
X15901658Y-13683336D01*
X15873086Y-13683336D01*
X16054038Y-13683336D02*
X16034991Y-13673812D01*
X16025467Y-13654765D01*
X16025467Y-13483336D01*
X16206419Y-13673812D02*
X16187372Y-13683336D01*
X16149277Y-13683336D01*
X16130229Y-13673812D01*
X16120705Y-13654765D01*
X16120705Y-13578574D01*
X16130229Y-13559527D01*
X16149277Y-13550003D01*
X16187372Y-13550003D01*
X16206419Y-13559527D01*
X16215943Y-13578574D01*
X16215943Y-13597622D01*
X16120705Y-13616669D01*
X16292134Y-13673812D02*
X16311181Y-13683336D01*
X16349277Y-13683336D01*
X16368324Y-13673812D01*
X16377848Y-13654765D01*
X16377848Y-13645241D01*
X16368324Y-13626193D01*
X16349277Y-13616669D01*
X16320705Y-13616669D01*
X16301658Y-13607146D01*
X16292134Y-13588098D01*
X16292134Y-13578574D01*
X16301658Y-13559527D01*
X16320705Y-13550003D01*
X16349277Y-13550003D01*
X16368324Y-13559527D01*
X16444515Y-13759527D02*
X16454038Y-13750003D01*
X16473086Y-13721431D01*
X16482610Y-13702384D01*
X16492134Y-13673812D01*
X16501658Y-13626193D01*
X16501658Y-13588098D01*
X16492134Y-13540479D01*
X16482610Y-13511908D01*
X16473086Y-13492860D01*
X16454038Y-13464288D01*
X16444515Y-13454765D01*
D12*
X11672610Y-13856860D02*
G75*
G03*
X11672610Y-13856860I-40000J0D01*
G01*
D10*
X11968324Y-13747336D02*
X11987372Y-13747336D01*
X12006419Y-13756860D01*
X12015943Y-13766384D01*
X12025467Y-13785431D01*
X12034991Y-13823527D01*
X12034991Y-13871146D01*
X12025467Y-13909241D01*
X12015943Y-13928288D01*
X12006419Y-13937812D01*
X11987372Y-13947336D01*
X11968324Y-13947336D01*
X11949277Y-13937812D01*
X11939753Y-13928288D01*
X11930229Y-13909241D01*
X11920705Y-13871146D01*
X11920705Y-13823527D01*
X11930229Y-13785431D01*
X11939753Y-13766384D01*
X11949277Y-13756860D01*
X11968324Y-13747336D01*
X12120705Y-13928288D02*
X12130229Y-13937812D01*
X12120705Y-13947336D01*
X12111181Y-13937812D01*
X12120705Y-13928288D01*
X12120705Y-13947336D01*
X12244515Y-13833050D02*
X12225467Y-13823527D01*
X12215943Y-13814003D01*
X12206419Y-13794955D01*
X12206419Y-13785431D01*
X12215943Y-13766384D01*
X12225467Y-13756860D01*
X12244515Y-13747336D01*
X12282610Y-13747336D01*
X12301658Y-13756860D01*
X12311181Y-13766384D01*
X12320705Y-13785431D01*
X12320705Y-13794955D01*
X12311181Y-13814003D01*
X12301658Y-13823527D01*
X12282610Y-13833050D01*
X12244515Y-13833050D01*
X12225467Y-13842574D01*
X12215943Y-13852098D01*
X12206419Y-13871146D01*
X12206419Y-13909241D01*
X12215943Y-13928288D01*
X12225467Y-13937812D01*
X12244515Y-13947336D01*
X12282610Y-13947336D01*
X12301658Y-13937812D01*
X12311181Y-13928288D01*
X12320705Y-13909241D01*
X12320705Y-13871146D01*
X12311181Y-13852098D01*
X12301658Y-13842574D01*
X12282610Y-13833050D01*
X12444515Y-13747336D02*
X12463562Y-13747336D01*
X12482610Y-13756860D01*
X12492134Y-13766384D01*
X12501658Y-13785431D01*
X12511181Y-13823527D01*
X12511181Y-13871146D01*
X12501658Y-13909241D01*
X12492134Y-13928288D01*
X12482610Y-13937812D01*
X12463562Y-13947336D01*
X12444515Y-13947336D01*
X12425467Y-13937812D01*
X12415943Y-13928288D01*
X12406419Y-13909241D01*
X12396896Y-13871146D01*
X12396896Y-13823527D01*
X12406419Y-13785431D01*
X12415943Y-13766384D01*
X12425467Y-13756860D01*
X12444515Y-13747336D01*
X12634991Y-13747336D02*
X12654038Y-13747336D01*
X12673086Y-13756860D01*
X12682610Y-13766384D01*
X12692134Y-13785431D01*
X12701658Y-13823527D01*
X12701658Y-13871146D01*
X12692134Y-13909241D01*
X12682610Y-13928288D01*
X12673086Y-13937812D01*
X12654038Y-13947336D01*
X12634991Y-13947336D01*
X12615943Y-13937812D01*
X12606419Y-13928288D01*
X12596896Y-13909241D01*
X12587372Y-13871146D01*
X12587372Y-13823527D01*
X12596896Y-13785431D01*
X12606419Y-13766384D01*
X12615943Y-13756860D01*
X12634991Y-13747336D01*
X12787372Y-13947336D02*
X12787372Y-13814003D01*
X12787372Y-13833050D02*
X12796896Y-13823527D01*
X12815943Y-13814003D01*
X12844515Y-13814003D01*
X12863562Y-13823527D01*
X12873086Y-13842574D01*
X12873086Y-13947336D01*
X12873086Y-13842574D02*
X12882610Y-13823527D01*
X12901658Y-13814003D01*
X12930229Y-13814003D01*
X12949277Y-13823527D01*
X12958800Y-13842574D01*
X12958800Y-13947336D01*
X13054038Y-13947336D02*
X13054038Y-13814003D01*
X13054038Y-13833050D02*
X13063562Y-13823527D01*
X13082610Y-13814003D01*
X13111181Y-13814003D01*
X13130229Y-13823527D01*
X13139753Y-13842574D01*
X13139753Y-13947336D01*
X13139753Y-13842574D02*
X13149277Y-13823527D01*
X13168324Y-13814003D01*
X13196896Y-13814003D01*
X13215943Y-13823527D01*
X13225467Y-13842574D01*
X13225467Y-13947336D01*
X13615943Y-13737812D02*
X13444515Y-13994955D01*
X13873086Y-13747336D02*
X13892134Y-13747336D01*
X13911181Y-13756860D01*
X13920705Y-13766384D01*
X13930229Y-13785431D01*
X13939753Y-13823527D01*
X13939753Y-13871146D01*
X13930229Y-13909241D01*
X13920705Y-13928288D01*
X13911181Y-13937812D01*
X13892134Y-13947336D01*
X13873086Y-13947336D01*
X13854038Y-13937812D01*
X13844515Y-13928288D01*
X13834991Y-13909241D01*
X13825467Y-13871146D01*
X13825467Y-13823527D01*
X13834991Y-13785431D01*
X13844515Y-13766384D01*
X13854038Y-13756860D01*
X13873086Y-13747336D01*
X14025467Y-13928288D02*
X14034991Y-13937812D01*
X14025467Y-13947336D01*
X14015943Y-13937812D01*
X14025467Y-13928288D01*
X14025467Y-13947336D01*
X14158800Y-13747336D02*
X14177848Y-13747336D01*
X14196896Y-13756860D01*
X14206419Y-13766384D01*
X14215943Y-13785431D01*
X14225467Y-13823527D01*
X14225467Y-13871146D01*
X14215943Y-13909241D01*
X14206419Y-13928288D01*
X14196896Y-13937812D01*
X14177848Y-13947336D01*
X14158800Y-13947336D01*
X14139753Y-13937812D01*
X14130229Y-13928288D01*
X14120705Y-13909241D01*
X14111181Y-13871146D01*
X14111181Y-13823527D01*
X14120705Y-13785431D01*
X14130229Y-13766384D01*
X14139753Y-13756860D01*
X14158800Y-13747336D01*
X14292134Y-13747336D02*
X14415943Y-13747336D01*
X14349277Y-13823527D01*
X14377848Y-13823527D01*
X14396896Y-13833050D01*
X14406419Y-13842574D01*
X14415943Y-13861622D01*
X14415943Y-13909241D01*
X14406419Y-13928288D01*
X14396896Y-13937812D01*
X14377848Y-13947336D01*
X14320705Y-13947336D01*
X14301658Y-13937812D01*
X14292134Y-13928288D01*
X14606419Y-13947336D02*
X14492134Y-13947336D01*
X14549277Y-13947336D02*
X14549277Y-13747336D01*
X14530229Y-13775908D01*
X14511181Y-13794955D01*
X14492134Y-13804479D01*
X14787372Y-13747336D02*
X14692134Y-13747336D01*
X14682610Y-13842574D01*
X14692134Y-13833050D01*
X14711181Y-13823527D01*
X14758800Y-13823527D01*
X14777848Y-13833050D01*
X14787372Y-13842574D01*
X14796896Y-13861622D01*
X14796896Y-13909241D01*
X14787372Y-13928288D01*
X14777848Y-13937812D01*
X14758800Y-13947336D01*
X14711181Y-13947336D01*
X14692134Y-13937812D01*
X14682610Y-13928288D01*
X14873086Y-13747336D02*
X14873086Y-13785431D01*
X14949277Y-13747336D02*
X14949277Y-13785431D01*
X15244515Y-14023527D02*
X15234991Y-14014003D01*
X15215943Y-13985431D01*
X15206419Y-13966384D01*
X15196896Y-13937812D01*
X15187372Y-13890193D01*
X15187372Y-13852098D01*
X15196896Y-13804479D01*
X15206419Y-13775908D01*
X15215943Y-13756860D01*
X15234991Y-13728288D01*
X15244515Y-13718765D01*
X15406419Y-13747336D02*
X15368324Y-13747336D01*
X15349277Y-13756860D01*
X15339753Y-13766384D01*
X15320705Y-13794955D01*
X15311181Y-13833050D01*
X15311181Y-13909241D01*
X15320705Y-13928288D01*
X15330229Y-13937812D01*
X15349277Y-13947336D01*
X15387372Y-13947336D01*
X15406419Y-13937812D01*
X15415943Y-13928288D01*
X15425467Y-13909241D01*
X15425467Y-13861622D01*
X15415943Y-13842574D01*
X15406419Y-13833050D01*
X15387372Y-13823527D01*
X15349277Y-13823527D01*
X15330229Y-13833050D01*
X15320705Y-13842574D01*
X15311181Y-13861622D01*
X15663562Y-13947336D02*
X15663562Y-13747336D01*
X15749277Y-13947336D02*
X15749277Y-13842574D01*
X15739753Y-13823527D01*
X15720705Y-13814003D01*
X15692134Y-13814003D01*
X15673086Y-13823527D01*
X15663562Y-13833050D01*
X15873086Y-13947336D02*
X15854038Y-13937812D01*
X15844515Y-13928288D01*
X15834991Y-13909241D01*
X15834991Y-13852098D01*
X15844515Y-13833050D01*
X15854038Y-13823527D01*
X15873086Y-13814003D01*
X15901658Y-13814003D01*
X15920705Y-13823527D01*
X15930229Y-13833050D01*
X15939753Y-13852098D01*
X15939753Y-13909241D01*
X15930229Y-13928288D01*
X15920705Y-13937812D01*
X15901658Y-13947336D01*
X15873086Y-13947336D01*
X16054038Y-13947336D02*
X16034991Y-13937812D01*
X16025467Y-13918765D01*
X16025467Y-13747336D01*
X16206419Y-13937812D02*
X16187372Y-13947336D01*
X16149277Y-13947336D01*
X16130229Y-13937812D01*
X16120705Y-13918765D01*
X16120705Y-13842574D01*
X16130229Y-13823527D01*
X16149277Y-13814003D01*
X16187372Y-13814003D01*
X16206419Y-13823527D01*
X16215943Y-13842574D01*
X16215943Y-13861622D01*
X16120705Y-13880669D01*
X16292134Y-13937812D02*
X16311181Y-13947336D01*
X16349277Y-13947336D01*
X16368324Y-13937812D01*
X16377848Y-13918765D01*
X16377848Y-13909241D01*
X16368324Y-13890193D01*
X16349277Y-13880669D01*
X16320705Y-13880669D01*
X16301658Y-13871146D01*
X16292134Y-13852098D01*
X16292134Y-13842574D01*
X16301658Y-13823527D01*
X16320705Y-13814003D01*
X16349277Y-13814003D01*
X16368324Y-13823527D01*
X16444515Y-14023527D02*
X16454038Y-14014003D01*
X16473086Y-13985431D01*
X16482610Y-13966384D01*
X16492134Y-13937812D01*
X16501658Y-13890193D01*
X16501658Y-13852098D01*
X16492134Y-13804479D01*
X16482610Y-13775908D01*
X16473086Y-13756860D01*
X16454038Y-13728288D01*
X16444515Y-13718765D01*
D13*
X11631970Y-14080220D02*
X11631970Y-14161500D01*
X11591330Y-14120860D02*
X11672610Y-14120860D01*
D10*
X11968324Y-14011336D02*
X11987372Y-14011336D01*
X12006419Y-14020860D01*
X12015943Y-14030384D01*
X12025467Y-14049431D01*
X12034991Y-14087527D01*
X12034991Y-14135146D01*
X12025467Y-14173241D01*
X12015943Y-14192288D01*
X12006419Y-14201812D01*
X11987372Y-14211336D01*
X11968324Y-14211336D01*
X11949277Y-14201812D01*
X11939753Y-14192288D01*
X11930229Y-14173241D01*
X11920705Y-14135146D01*
X11920705Y-14087527D01*
X11930229Y-14049431D01*
X11939753Y-14030384D01*
X11949277Y-14020860D01*
X11968324Y-14011336D01*
X12120705Y-14192288D02*
X12130229Y-14201812D01*
X12120705Y-14211336D01*
X12111181Y-14201812D01*
X12120705Y-14192288D01*
X12120705Y-14211336D01*
X12244515Y-14097050D02*
X12225467Y-14087527D01*
X12215943Y-14078003D01*
X12206419Y-14058955D01*
X12206419Y-14049431D01*
X12215943Y-14030384D01*
X12225467Y-14020860D01*
X12244515Y-14011336D01*
X12282610Y-14011336D01*
X12301658Y-14020860D01*
X12311181Y-14030384D01*
X12320705Y-14049431D01*
X12320705Y-14058955D01*
X12311181Y-14078003D01*
X12301658Y-14087527D01*
X12282610Y-14097050D01*
X12244515Y-14097050D01*
X12225467Y-14106574D01*
X12215943Y-14116098D01*
X12206419Y-14135146D01*
X12206419Y-14173241D01*
X12215943Y-14192288D01*
X12225467Y-14201812D01*
X12244515Y-14211336D01*
X12282610Y-14211336D01*
X12301658Y-14201812D01*
X12311181Y-14192288D01*
X12320705Y-14173241D01*
X12320705Y-14135146D01*
X12311181Y-14116098D01*
X12301658Y-14106574D01*
X12282610Y-14097050D01*
X12511181Y-14211336D02*
X12396896Y-14211336D01*
X12454038Y-14211336D02*
X12454038Y-14011336D01*
X12434991Y-14039908D01*
X12415943Y-14058955D01*
X12396896Y-14068479D01*
X12577848Y-14011336D02*
X12701658Y-14011336D01*
X12634991Y-14087527D01*
X12663562Y-14087527D01*
X12682610Y-14097050D01*
X12692134Y-14106574D01*
X12701658Y-14125622D01*
X12701658Y-14173241D01*
X12692134Y-14192288D01*
X12682610Y-14201812D01*
X12663562Y-14211336D01*
X12606419Y-14211336D01*
X12587372Y-14201812D01*
X12577848Y-14192288D01*
X12787372Y-14211336D02*
X12787372Y-14078003D01*
X12787372Y-14097050D02*
X12796896Y-14087527D01*
X12815943Y-14078003D01*
X12844515Y-14078003D01*
X12863562Y-14087527D01*
X12873086Y-14106574D01*
X12873086Y-14211336D01*
X12873086Y-14106574D02*
X12882610Y-14087527D01*
X12901658Y-14078003D01*
X12930229Y-14078003D01*
X12949277Y-14087527D01*
X12958800Y-14106574D01*
X12958800Y-14211336D01*
X13054038Y-14211336D02*
X13054038Y-14078003D01*
X13054038Y-14097050D02*
X13063562Y-14087527D01*
X13082610Y-14078003D01*
X13111181Y-14078003D01*
X13130229Y-14087527D01*
X13139753Y-14106574D01*
X13139753Y-14211336D01*
X13139753Y-14106574D02*
X13149277Y-14087527D01*
X13168324Y-14078003D01*
X13196896Y-14078003D01*
X13215943Y-14087527D01*
X13225467Y-14106574D01*
X13225467Y-14211336D01*
X13615943Y-14001812D02*
X13444515Y-14258955D01*
X13873086Y-14011336D02*
X13892134Y-14011336D01*
X13911181Y-14020860D01*
X13920705Y-14030384D01*
X13930229Y-14049431D01*
X13939753Y-14087527D01*
X13939753Y-14135146D01*
X13930229Y-14173241D01*
X13920705Y-14192288D01*
X13911181Y-14201812D01*
X13892134Y-14211336D01*
X13873086Y-14211336D01*
X13854038Y-14201812D01*
X13844515Y-14192288D01*
X13834991Y-14173241D01*
X13825467Y-14135146D01*
X13825467Y-14087527D01*
X13834991Y-14049431D01*
X13844515Y-14030384D01*
X13854038Y-14020860D01*
X13873086Y-14011336D01*
X14025467Y-14192288D02*
X14034991Y-14201812D01*
X14025467Y-14211336D01*
X14015943Y-14201812D01*
X14025467Y-14192288D01*
X14025467Y-14211336D01*
X14158800Y-14011336D02*
X14177848Y-14011336D01*
X14196896Y-14020860D01*
X14206419Y-14030384D01*
X14215943Y-14049431D01*
X14225467Y-14087527D01*
X14225467Y-14135146D01*
X14215943Y-14173241D01*
X14206419Y-14192288D01*
X14196896Y-14201812D01*
X14177848Y-14211336D01*
X14158800Y-14211336D01*
X14139753Y-14201812D01*
X14130229Y-14192288D01*
X14120705Y-14173241D01*
X14111181Y-14135146D01*
X14111181Y-14087527D01*
X14120705Y-14049431D01*
X14130229Y-14030384D01*
X14139753Y-14020860D01*
X14158800Y-14011336D01*
X14292134Y-14011336D02*
X14415943Y-14011336D01*
X14349277Y-14087527D01*
X14377848Y-14087527D01*
X14396896Y-14097050D01*
X14406419Y-14106574D01*
X14415943Y-14125622D01*
X14415943Y-14173241D01*
X14406419Y-14192288D01*
X14396896Y-14201812D01*
X14377848Y-14211336D01*
X14320705Y-14211336D01*
X14301658Y-14201812D01*
X14292134Y-14192288D01*
X14492134Y-14030384D02*
X14501658Y-14020860D01*
X14520705Y-14011336D01*
X14568324Y-14011336D01*
X14587372Y-14020860D01*
X14596896Y-14030384D01*
X14606419Y-14049431D01*
X14606419Y-14068479D01*
X14596896Y-14097050D01*
X14482610Y-14211336D01*
X14606419Y-14211336D01*
X14730229Y-14011336D02*
X14749277Y-14011336D01*
X14768324Y-14020860D01*
X14777848Y-14030384D01*
X14787372Y-14049431D01*
X14796896Y-14087527D01*
X14796896Y-14135146D01*
X14787372Y-14173241D01*
X14777848Y-14192288D01*
X14768324Y-14201812D01*
X14749277Y-14211336D01*
X14730229Y-14211336D01*
X14711181Y-14201812D01*
X14701658Y-14192288D01*
X14692134Y-14173241D01*
X14682610Y-14135146D01*
X14682610Y-14087527D01*
X14692134Y-14049431D01*
X14701658Y-14030384D01*
X14711181Y-14020860D01*
X14730229Y-14011336D01*
X14873086Y-14011336D02*
X14873086Y-14049431D01*
X14949277Y-14011336D02*
X14949277Y-14049431D01*
X15244515Y-14287527D02*
X15234991Y-14278003D01*
X15215943Y-14249431D01*
X15206419Y-14230384D01*
X15196896Y-14201812D01*
X15187372Y-14154193D01*
X15187372Y-14116098D01*
X15196896Y-14068479D01*
X15206419Y-14039908D01*
X15215943Y-14020860D01*
X15234991Y-13992288D01*
X15244515Y-13982765D01*
X15406419Y-14011336D02*
X15368324Y-14011336D01*
X15349277Y-14020860D01*
X15339753Y-14030384D01*
X15320705Y-14058955D01*
X15311181Y-14097050D01*
X15311181Y-14173241D01*
X15320705Y-14192288D01*
X15330229Y-14201812D01*
X15349277Y-14211336D01*
X15387372Y-14211336D01*
X15406419Y-14201812D01*
X15415943Y-14192288D01*
X15425467Y-14173241D01*
X15425467Y-14125622D01*
X15415943Y-14106574D01*
X15406419Y-14097050D01*
X15387372Y-14087527D01*
X15349277Y-14087527D01*
X15330229Y-14097050D01*
X15320705Y-14106574D01*
X15311181Y-14125622D01*
X15596896Y-14011336D02*
X15558800Y-14011336D01*
X15539753Y-14020860D01*
X15530229Y-14030384D01*
X15511181Y-14058955D01*
X15501658Y-14097050D01*
X15501658Y-14173241D01*
X15511181Y-14192288D01*
X15520705Y-14201812D01*
X15539753Y-14211336D01*
X15577848Y-14211336D01*
X15596896Y-14201812D01*
X15606419Y-14192288D01*
X15615943Y-14173241D01*
X15615943Y-14125622D01*
X15606419Y-14106574D01*
X15596896Y-14097050D01*
X15577848Y-14087527D01*
X15539753Y-14087527D01*
X15520705Y-14097050D01*
X15511181Y-14106574D01*
X15501658Y-14125622D01*
X15854038Y-14211336D02*
X15854038Y-14011336D01*
X15939753Y-14211336D02*
X15939753Y-14106574D01*
X15930229Y-14087527D01*
X15911181Y-14078003D01*
X15882610Y-14078003D01*
X15863562Y-14087527D01*
X15854038Y-14097050D01*
X16063562Y-14211336D02*
X16044515Y-14201812D01*
X16034991Y-14192288D01*
X16025467Y-14173241D01*
X16025467Y-14116098D01*
X16034991Y-14097050D01*
X16044515Y-14087527D01*
X16063562Y-14078003D01*
X16092134Y-14078003D01*
X16111181Y-14087527D01*
X16120705Y-14097050D01*
X16130229Y-14116098D01*
X16130229Y-14173241D01*
X16120705Y-14192288D01*
X16111181Y-14201812D01*
X16092134Y-14211336D01*
X16063562Y-14211336D01*
X16244515Y-14211336D02*
X16225467Y-14201812D01*
X16215943Y-14182765D01*
X16215943Y-14011336D01*
X16396896Y-14201812D02*
X16377848Y-14211336D01*
X16339753Y-14211336D01*
X16320705Y-14201812D01*
X16311181Y-14182765D01*
X16311181Y-14106574D01*
X16320705Y-14087527D01*
X16339753Y-14078003D01*
X16377848Y-14078003D01*
X16396896Y-14087527D01*
X16406419Y-14106574D01*
X16406419Y-14125622D01*
X16311181Y-14144669D01*
X16482610Y-14201812D02*
X16501658Y-14211336D01*
X16539753Y-14211336D01*
X16558800Y-14201812D01*
X16568324Y-14182765D01*
X16568324Y-14173241D01*
X16558800Y-14154193D01*
X16539753Y-14144669D01*
X16511181Y-14144669D01*
X16492134Y-14135146D01*
X16482610Y-14116098D01*
X16482610Y-14106574D01*
X16492134Y-14087527D01*
X16511181Y-14078003D01*
X16539753Y-14078003D01*
X16558800Y-14087527D01*
X16634991Y-14287527D02*
X16644515Y-14278003D01*
X16663562Y-14249431D01*
X16673086Y-14230384D01*
X16682610Y-14201812D01*
X16692134Y-14154193D01*
X16692134Y-14116098D01*
X16682610Y-14068479D01*
X16673086Y-14039908D01*
X16663562Y-14020860D01*
X16644515Y-13992288D01*
X16634991Y-13982765D01*
D14*
X11659219Y-14417189D02*
X11659219Y-14352531D01*
X11594561Y-14352531D01*
X11594561Y-14417189D01*
X11659219Y-14417189D01*
D10*
X11968324Y-14275336D02*
X11987372Y-14275336D01*
X12006419Y-14284860D01*
X12015943Y-14294384D01*
X12025467Y-14313431D01*
X12034991Y-14351527D01*
X12034991Y-14399146D01*
X12025467Y-14437241D01*
X12015943Y-14456288D01*
X12006419Y-14465812D01*
X11987372Y-14475336D01*
X11968324Y-14475336D01*
X11949277Y-14465812D01*
X11939753Y-14456288D01*
X11930229Y-14437241D01*
X11920705Y-14399146D01*
X11920705Y-14351527D01*
X11930229Y-14313431D01*
X11939753Y-14294384D01*
X11949277Y-14284860D01*
X11968324Y-14275336D01*
X12120705Y-14456288D02*
X12130229Y-14465812D01*
X12120705Y-14475336D01*
X12111181Y-14465812D01*
X12120705Y-14456288D01*
X12120705Y-14475336D01*
X12225467Y-14475336D02*
X12263562Y-14475336D01*
X12282610Y-14465812D01*
X12292134Y-14456288D01*
X12311181Y-14427717D01*
X12320705Y-14389622D01*
X12320705Y-14313431D01*
X12311181Y-14294384D01*
X12301658Y-14284860D01*
X12282610Y-14275336D01*
X12244515Y-14275336D01*
X12225467Y-14284860D01*
X12215943Y-14294384D01*
X12206419Y-14313431D01*
X12206419Y-14361050D01*
X12215943Y-14380098D01*
X12225467Y-14389622D01*
X12244515Y-14399146D01*
X12282610Y-14399146D01*
X12301658Y-14389622D01*
X12311181Y-14380098D01*
X12320705Y-14361050D01*
X12511181Y-14475336D02*
X12396896Y-14475336D01*
X12454038Y-14475336D02*
X12454038Y-14275336D01*
X12434991Y-14303908D01*
X12415943Y-14322955D01*
X12396896Y-14332479D01*
X12682610Y-14342003D02*
X12682610Y-14475336D01*
X12634991Y-14265812D02*
X12587372Y-14408669D01*
X12711181Y-14408669D01*
X12787372Y-14475336D02*
X12787372Y-14342003D01*
X12787372Y-14361050D02*
X12796896Y-14351527D01*
X12815943Y-14342003D01*
X12844515Y-14342003D01*
X12863562Y-14351527D01*
X12873086Y-14370574D01*
X12873086Y-14475336D01*
X12873086Y-14370574D02*
X12882610Y-14351527D01*
X12901658Y-14342003D01*
X12930229Y-14342003D01*
X12949277Y-14351527D01*
X12958800Y-14370574D01*
X12958800Y-14475336D01*
X13054038Y-14475336D02*
X13054038Y-14342003D01*
X13054038Y-14361050D02*
X13063562Y-14351527D01*
X13082610Y-14342003D01*
X13111181Y-14342003D01*
X13130229Y-14351527D01*
X13139753Y-14370574D01*
X13139753Y-14475336D01*
X13139753Y-14370574D02*
X13149277Y-14351527D01*
X13168324Y-14342003D01*
X13196896Y-14342003D01*
X13215943Y-14351527D01*
X13225467Y-14370574D01*
X13225467Y-14475336D01*
X13615943Y-14265812D02*
X13444515Y-14522955D01*
X13873086Y-14275336D02*
X13892134Y-14275336D01*
X13911181Y-14284860D01*
X13920705Y-14294384D01*
X13930229Y-14313431D01*
X13939753Y-14351527D01*
X13939753Y-14399146D01*
X13930229Y-14437241D01*
X13920705Y-14456288D01*
X13911181Y-14465812D01*
X13892134Y-14475336D01*
X13873086Y-14475336D01*
X13854038Y-14465812D01*
X13844515Y-14456288D01*
X13834991Y-14437241D01*
X13825467Y-14399146D01*
X13825467Y-14351527D01*
X13834991Y-14313431D01*
X13844515Y-14294384D01*
X13854038Y-14284860D01*
X13873086Y-14275336D01*
X14025467Y-14456288D02*
X14034991Y-14465812D01*
X14025467Y-14475336D01*
X14015943Y-14465812D01*
X14025467Y-14456288D01*
X14025467Y-14475336D01*
X14158800Y-14275336D02*
X14177848Y-14275336D01*
X14196896Y-14284860D01*
X14206419Y-14294384D01*
X14215943Y-14313431D01*
X14225467Y-14351527D01*
X14225467Y-14399146D01*
X14215943Y-14437241D01*
X14206419Y-14456288D01*
X14196896Y-14465812D01*
X14177848Y-14475336D01*
X14158800Y-14475336D01*
X14139753Y-14465812D01*
X14130229Y-14456288D01*
X14120705Y-14437241D01*
X14111181Y-14399146D01*
X14111181Y-14351527D01*
X14120705Y-14313431D01*
X14130229Y-14294384D01*
X14139753Y-14284860D01*
X14158800Y-14275336D01*
X14292134Y-14275336D02*
X14415943Y-14275336D01*
X14349277Y-14351527D01*
X14377848Y-14351527D01*
X14396896Y-14361050D01*
X14406419Y-14370574D01*
X14415943Y-14389622D01*
X14415943Y-14437241D01*
X14406419Y-14456288D01*
X14396896Y-14465812D01*
X14377848Y-14475336D01*
X14320705Y-14475336D01*
X14301658Y-14465812D01*
X14292134Y-14456288D01*
X14587372Y-14275336D02*
X14549277Y-14275336D01*
X14530229Y-14284860D01*
X14520705Y-14294384D01*
X14501658Y-14322955D01*
X14492134Y-14361050D01*
X14492134Y-14437241D01*
X14501658Y-14456288D01*
X14511181Y-14465812D01*
X14530229Y-14475336D01*
X14568324Y-14475336D01*
X14587372Y-14465812D01*
X14596896Y-14456288D01*
X14606419Y-14437241D01*
X14606419Y-14389622D01*
X14596896Y-14370574D01*
X14587372Y-14361050D01*
X14568324Y-14351527D01*
X14530229Y-14351527D01*
X14511181Y-14361050D01*
X14501658Y-14370574D01*
X14492134Y-14389622D01*
X14730229Y-14275336D02*
X14749277Y-14275336D01*
X14768324Y-14284860D01*
X14777848Y-14294384D01*
X14787372Y-14313431D01*
X14796896Y-14351527D01*
X14796896Y-14399146D01*
X14787372Y-14437241D01*
X14777848Y-14456288D01*
X14768324Y-14465812D01*
X14749277Y-14475336D01*
X14730229Y-14475336D01*
X14711181Y-14465812D01*
X14701658Y-14456288D01*
X14692134Y-14437241D01*
X14682610Y-14399146D01*
X14682610Y-14351527D01*
X14692134Y-14313431D01*
X14701658Y-14294384D01*
X14711181Y-14284860D01*
X14730229Y-14275336D01*
X14873086Y-14275336D02*
X14873086Y-14313431D01*
X14949277Y-14275336D02*
X14949277Y-14313431D01*
X15244515Y-14551527D02*
X15234991Y-14542003D01*
X15215943Y-14513431D01*
X15206419Y-14494384D01*
X15196896Y-14465812D01*
X15187372Y-14418193D01*
X15187372Y-14380098D01*
X15196896Y-14332479D01*
X15206419Y-14303908D01*
X15215943Y-14284860D01*
X15234991Y-14256288D01*
X15244515Y-14246765D01*
X15425467Y-14475336D02*
X15311181Y-14475336D01*
X15368324Y-14475336D02*
X15368324Y-14275336D01*
X15349277Y-14303908D01*
X15330229Y-14322955D01*
X15311181Y-14332479D01*
X15663562Y-14475336D02*
X15663562Y-14275336D01*
X15749277Y-14475336D02*
X15749277Y-14370574D01*
X15739753Y-14351527D01*
X15720705Y-14342003D01*
X15692134Y-14342003D01*
X15673086Y-14351527D01*
X15663562Y-14361050D01*
X15873086Y-14475336D02*
X15854038Y-14465812D01*
X15844515Y-14456288D01*
X15834991Y-14437241D01*
X15834991Y-14380098D01*
X15844515Y-14361050D01*
X15854038Y-14351527D01*
X15873086Y-14342003D01*
X15901658Y-14342003D01*
X15920705Y-14351527D01*
X15930229Y-14361050D01*
X15939753Y-14380098D01*
X15939753Y-14437241D01*
X15930229Y-14456288D01*
X15920705Y-14465812D01*
X15901658Y-14475336D01*
X15873086Y-14475336D01*
X16054038Y-14475336D02*
X16034991Y-14465812D01*
X16025467Y-14446765D01*
X16025467Y-14275336D01*
X16206419Y-14465812D02*
X16187372Y-14475336D01*
X16149277Y-14475336D01*
X16130229Y-14465812D01*
X16120705Y-14446765D01*
X16120705Y-14370574D01*
X16130229Y-14351527D01*
X16149277Y-14342003D01*
X16187372Y-14342003D01*
X16206419Y-14351527D01*
X16215943Y-14370574D01*
X16215943Y-14389622D01*
X16120705Y-14408669D01*
X16282610Y-14551527D02*
X16292134Y-14542003D01*
X16311181Y-14513431D01*
X16320705Y-14494384D01*
X16330229Y-14465812D01*
X16339753Y-14418193D01*
X16339753Y-14380098D01*
X16330229Y-14332479D01*
X16320705Y-14303908D01*
X16311181Y-14284860D01*
X16292134Y-14256288D01*
X16282610Y-14246765D01*
D15*
X11621810Y-14699660D02*
X11672610Y-14648860D01*
X11621810Y-14598060D01*
X11571010Y-14648860D01*
X11621810Y-14699660D01*
D10*
X12034991Y-14739336D02*
X11920705Y-14739336D01*
X11977848Y-14739336D02*
X11977848Y-14539336D01*
X11958800Y-14567908D01*
X11939753Y-14586955D01*
X11920705Y-14596479D01*
X12120705Y-14720288D02*
X12130229Y-14729812D01*
X12120705Y-14739336D01*
X12111181Y-14729812D01*
X12120705Y-14720288D01*
X12120705Y-14739336D01*
X12254038Y-14539336D02*
X12273086Y-14539336D01*
X12292134Y-14548860D01*
X12301658Y-14558384D01*
X12311181Y-14577431D01*
X12320705Y-14615527D01*
X12320705Y-14663146D01*
X12311181Y-14701241D01*
X12301658Y-14720288D01*
X12292134Y-14729812D01*
X12273086Y-14739336D01*
X12254038Y-14739336D01*
X12234991Y-14729812D01*
X12225467Y-14720288D01*
X12215943Y-14701241D01*
X12206419Y-14663146D01*
X12206419Y-14615527D01*
X12215943Y-14577431D01*
X12225467Y-14558384D01*
X12234991Y-14548860D01*
X12254038Y-14539336D01*
X12511181Y-14739336D02*
X12396896Y-14739336D01*
X12454038Y-14739336D02*
X12454038Y-14539336D01*
X12434991Y-14567908D01*
X12415943Y-14586955D01*
X12396896Y-14596479D01*
X12682610Y-14539336D02*
X12644515Y-14539336D01*
X12625467Y-14548860D01*
X12615943Y-14558384D01*
X12596896Y-14586955D01*
X12587372Y-14625050D01*
X12587372Y-14701241D01*
X12596896Y-14720288D01*
X12606419Y-14729812D01*
X12625467Y-14739336D01*
X12663562Y-14739336D01*
X12682610Y-14729812D01*
X12692134Y-14720288D01*
X12701658Y-14701241D01*
X12701658Y-14653622D01*
X12692134Y-14634574D01*
X12682610Y-14625050D01*
X12663562Y-14615527D01*
X12625467Y-14615527D01*
X12606419Y-14625050D01*
X12596896Y-14634574D01*
X12587372Y-14653622D01*
X12787372Y-14739336D02*
X12787372Y-14606003D01*
X12787372Y-14625050D02*
X12796896Y-14615527D01*
X12815943Y-14606003D01*
X12844515Y-14606003D01*
X12863562Y-14615527D01*
X12873086Y-14634574D01*
X12873086Y-14739336D01*
X12873086Y-14634574D02*
X12882610Y-14615527D01*
X12901658Y-14606003D01*
X12930229Y-14606003D01*
X12949277Y-14615527D01*
X12958800Y-14634574D01*
X12958800Y-14739336D01*
X13054038Y-14739336D02*
X13054038Y-14606003D01*
X13054038Y-14625050D02*
X13063562Y-14615527D01*
X13082610Y-14606003D01*
X13111181Y-14606003D01*
X13130229Y-14615527D01*
X13139753Y-14634574D01*
X13139753Y-14739336D01*
X13139753Y-14634574D02*
X13149277Y-14615527D01*
X13168324Y-14606003D01*
X13196896Y-14606003D01*
X13215943Y-14615527D01*
X13225467Y-14634574D01*
X13225467Y-14739336D01*
X13615943Y-14529812D02*
X13444515Y-14786955D01*
X13873086Y-14539336D02*
X13892134Y-14539336D01*
X13911181Y-14548860D01*
X13920705Y-14558384D01*
X13930229Y-14577431D01*
X13939753Y-14615527D01*
X13939753Y-14663146D01*
X13930229Y-14701241D01*
X13920705Y-14720288D01*
X13911181Y-14729812D01*
X13892134Y-14739336D01*
X13873086Y-14739336D01*
X13854038Y-14729812D01*
X13844515Y-14720288D01*
X13834991Y-14701241D01*
X13825467Y-14663146D01*
X13825467Y-14615527D01*
X13834991Y-14577431D01*
X13844515Y-14558384D01*
X13854038Y-14548860D01*
X13873086Y-14539336D01*
X14025467Y-14720288D02*
X14034991Y-14729812D01*
X14025467Y-14739336D01*
X14015943Y-14729812D01*
X14025467Y-14720288D01*
X14025467Y-14739336D01*
X14158800Y-14539336D02*
X14177848Y-14539336D01*
X14196896Y-14548860D01*
X14206419Y-14558384D01*
X14215943Y-14577431D01*
X14225467Y-14615527D01*
X14225467Y-14663146D01*
X14215943Y-14701241D01*
X14206419Y-14720288D01*
X14196896Y-14729812D01*
X14177848Y-14739336D01*
X14158800Y-14739336D01*
X14139753Y-14729812D01*
X14130229Y-14720288D01*
X14120705Y-14701241D01*
X14111181Y-14663146D01*
X14111181Y-14615527D01*
X14120705Y-14577431D01*
X14130229Y-14558384D01*
X14139753Y-14548860D01*
X14158800Y-14539336D01*
X14396896Y-14606003D02*
X14396896Y-14739336D01*
X14349277Y-14529812D02*
X14301658Y-14672669D01*
X14425467Y-14672669D01*
X14539753Y-14539336D02*
X14558800Y-14539336D01*
X14577848Y-14548860D01*
X14587372Y-14558384D01*
X14596896Y-14577431D01*
X14606419Y-14615527D01*
X14606419Y-14663146D01*
X14596896Y-14701241D01*
X14587372Y-14720288D01*
X14577848Y-14729812D01*
X14558800Y-14739336D01*
X14539753Y-14739336D01*
X14520705Y-14729812D01*
X14511181Y-14720288D01*
X14501658Y-14701241D01*
X14492134Y-14663146D01*
X14492134Y-14615527D01*
X14501658Y-14577431D01*
X14511181Y-14558384D01*
X14520705Y-14548860D01*
X14539753Y-14539336D01*
X14730229Y-14539336D02*
X14749277Y-14539336D01*
X14768324Y-14548860D01*
X14777848Y-14558384D01*
X14787372Y-14577431D01*
X14796896Y-14615527D01*
X14796896Y-14663146D01*
X14787372Y-14701241D01*
X14777848Y-14720288D01*
X14768324Y-14729812D01*
X14749277Y-14739336D01*
X14730229Y-14739336D01*
X14711181Y-14729812D01*
X14701658Y-14720288D01*
X14692134Y-14701241D01*
X14682610Y-14663146D01*
X14682610Y-14615527D01*
X14692134Y-14577431D01*
X14701658Y-14558384D01*
X14711181Y-14548860D01*
X14730229Y-14539336D01*
X14873086Y-14539336D02*
X14873086Y-14577431D01*
X14949277Y-14539336D02*
X14949277Y-14577431D01*
X15244515Y-14815527D02*
X15234991Y-14806003D01*
X15215943Y-14777431D01*
X15206419Y-14758384D01*
X15196896Y-14729812D01*
X15187372Y-14682193D01*
X15187372Y-14644098D01*
X15196896Y-14596479D01*
X15206419Y-14567908D01*
X15215943Y-14548860D01*
X15234991Y-14520288D01*
X15244515Y-14510765D01*
X15406419Y-14606003D02*
X15406419Y-14739336D01*
X15358800Y-14529812D02*
X15311181Y-14672669D01*
X15434991Y-14672669D01*
X15663562Y-14739336D02*
X15663562Y-14539336D01*
X15749277Y-14739336D02*
X15749277Y-14634574D01*
X15739753Y-14615527D01*
X15720705Y-14606003D01*
X15692134Y-14606003D01*
X15673086Y-14615527D01*
X15663562Y-14625050D01*
X15873086Y-14739336D02*
X15854038Y-14729812D01*
X15844515Y-14720288D01*
X15834991Y-14701241D01*
X15834991Y-14644098D01*
X15844515Y-14625050D01*
X15854038Y-14615527D01*
X15873086Y-14606003D01*
X15901658Y-14606003D01*
X15920705Y-14615527D01*
X15930229Y-14625050D01*
X15939753Y-14644098D01*
X15939753Y-14701241D01*
X15930229Y-14720288D01*
X15920705Y-14729812D01*
X15901658Y-14739336D01*
X15873086Y-14739336D01*
X16054038Y-14739336D02*
X16034991Y-14729812D01*
X16025467Y-14710765D01*
X16025467Y-14539336D01*
X16206419Y-14729812D02*
X16187372Y-14739336D01*
X16149277Y-14739336D01*
X16130229Y-14729812D01*
X16120705Y-14710765D01*
X16120705Y-14634574D01*
X16130229Y-14615527D01*
X16149277Y-14606003D01*
X16187372Y-14606003D01*
X16206419Y-14615527D01*
X16215943Y-14634574D01*
X16215943Y-14653622D01*
X16120705Y-14672669D01*
X16292134Y-14729812D02*
X16311181Y-14739336D01*
X16349277Y-14739336D01*
X16368324Y-14729812D01*
X16377848Y-14710765D01*
X16377848Y-14701241D01*
X16368324Y-14682193D01*
X16349277Y-14672669D01*
X16320705Y-14672669D01*
X16301658Y-14663146D01*
X16292134Y-14644098D01*
X16292134Y-14634574D01*
X16301658Y-14615527D01*
X16320705Y-14606003D01*
X16349277Y-14606003D01*
X16368324Y-14615527D01*
X16444515Y-14815527D02*
X16454038Y-14806003D01*
X16473086Y-14777431D01*
X16482610Y-14758384D01*
X16492134Y-14729812D01*
X16501658Y-14682193D01*
X16501658Y-14644098D01*
X16492134Y-14596479D01*
X16482610Y-14567908D01*
X16473086Y-14548860D01*
X16454038Y-14520288D01*
X16444515Y-14510765D01*
M02*
