%FSLAX45Y45*%
G04 Gerber Fmt 4.5, Leading zero omitted, Abs format (unit mm)*
G04 Created by KiCad (PCBNEW (6.0.5)) date 2022-12-14 22:57:56*
%MOMM*%
%LPD*%
G01*
G04 APERTURE LIST*
%ADD10C,0.200000*%
%ADD11C,0.500000*%
G04 APERTURE END LIST*
D10*
D11*
X14600110Y-8350360D02*
X15100110Y-8850360D01*
X15100110Y-8350360D02*
X14600110Y-8850360D01*
D10*
X11930229Y-13263336D02*
X11930229Y-13063336D01*
X11977848Y-13063336D01*
X12006419Y-13072860D01*
X12025467Y-13091908D01*
X12034991Y-13110955D01*
X12044515Y-13149050D01*
X12044515Y-13177622D01*
X12034991Y-13215717D01*
X12025467Y-13234765D01*
X12006419Y-13253812D01*
X11977848Y-13263336D01*
X11930229Y-13263336D01*
X12130229Y-13263336D02*
X12130229Y-13130003D01*
X12130229Y-13168098D02*
X12139753Y-13149050D01*
X12149277Y-13139527D01*
X12168324Y-13130003D01*
X12187372Y-13130003D01*
X12254038Y-13263336D02*
X12254038Y-13130003D01*
X12254038Y-13063336D02*
X12244515Y-13072860D01*
X12254038Y-13082384D01*
X12263562Y-13072860D01*
X12254038Y-13063336D01*
X12254038Y-13082384D01*
X12377848Y-13263336D02*
X12358800Y-13253812D01*
X12349277Y-13234765D01*
X12349277Y-13063336D01*
X12482610Y-13263336D02*
X12463562Y-13253812D01*
X12454038Y-13234765D01*
X12454038Y-13063336D01*
X12711181Y-13263336D02*
X12711181Y-13063336D01*
X12777848Y-13206193D01*
X12844515Y-13063336D01*
X12844515Y-13263336D01*
X13025467Y-13263336D02*
X13025467Y-13158574D01*
X13015943Y-13139527D01*
X12996896Y-13130003D01*
X12958800Y-13130003D01*
X12939753Y-13139527D01*
X13025467Y-13253812D02*
X13006419Y-13263336D01*
X12958800Y-13263336D01*
X12939753Y-13253812D01*
X12930229Y-13234765D01*
X12930229Y-13215717D01*
X12939753Y-13196669D01*
X12958800Y-13187146D01*
X13006419Y-13187146D01*
X13025467Y-13177622D01*
X13120705Y-13130003D02*
X13120705Y-13330003D01*
X13120705Y-13139527D02*
X13139753Y-13130003D01*
X13177848Y-13130003D01*
X13196896Y-13139527D01*
X13206419Y-13149050D01*
X13215943Y-13168098D01*
X13215943Y-13225241D01*
X13206419Y-13244288D01*
X13196896Y-13253812D01*
X13177848Y-13263336D01*
X13139753Y-13263336D01*
X13120705Y-13253812D01*
X13301658Y-13244288D02*
X13311181Y-13253812D01*
X13301658Y-13263336D01*
X13292134Y-13253812D01*
X13301658Y-13244288D01*
X13301658Y-13263336D01*
X13301658Y-13139527D02*
X13311181Y-13149050D01*
X13301658Y-13158574D01*
X13292134Y-13149050D01*
X13301658Y-13139527D01*
X13301658Y-13158574D01*
X11472610Y-13492860D02*
X11672610Y-13692860D01*
X11672610Y-13492860D02*
X11472610Y-13692860D01*
X12025467Y-13483336D02*
X11930229Y-13483336D01*
X11920705Y-13578574D01*
X11930229Y-13569050D01*
X11949277Y-13559527D01*
X11996896Y-13559527D01*
X12015943Y-13569050D01*
X12025467Y-13578574D01*
X12034991Y-13597622D01*
X12034991Y-13645241D01*
X12025467Y-13664288D01*
X12015943Y-13673812D01*
X11996896Y-13683336D01*
X11949277Y-13683336D01*
X11930229Y-13673812D01*
X11920705Y-13664288D01*
X12120705Y-13664288D02*
X12130229Y-13673812D01*
X12120705Y-13683336D01*
X12111181Y-13673812D01*
X12120705Y-13664288D01*
X12120705Y-13683336D01*
X12254038Y-13483336D02*
X12273086Y-13483336D01*
X12292134Y-13492860D01*
X12301658Y-13502384D01*
X12311181Y-13521431D01*
X12320705Y-13559527D01*
X12320705Y-13607146D01*
X12311181Y-13645241D01*
X12301658Y-13664288D01*
X12292134Y-13673812D01*
X12273086Y-13683336D01*
X12254038Y-13683336D01*
X12234991Y-13673812D01*
X12225467Y-13664288D01*
X12215943Y-13645241D01*
X12206419Y-13607146D01*
X12206419Y-13559527D01*
X12215943Y-13521431D01*
X12225467Y-13502384D01*
X12234991Y-13492860D01*
X12254038Y-13483336D01*
X12444515Y-13483336D02*
X12463562Y-13483336D01*
X12482610Y-13492860D01*
X12492134Y-13502384D01*
X12501658Y-13521431D01*
X12511181Y-13559527D01*
X12511181Y-13607146D01*
X12501658Y-13645241D01*
X12492134Y-13664288D01*
X12482610Y-13673812D01*
X12463562Y-13683336D01*
X12444515Y-13683336D01*
X12425467Y-13673812D01*
X12415943Y-13664288D01*
X12406419Y-13645241D01*
X12396896Y-13607146D01*
X12396896Y-13559527D01*
X12406419Y-13521431D01*
X12415943Y-13502384D01*
X12425467Y-13492860D01*
X12444515Y-13483336D01*
X12634991Y-13483336D02*
X12654038Y-13483336D01*
X12673086Y-13492860D01*
X12682610Y-13502384D01*
X12692134Y-13521431D01*
X12701658Y-13559527D01*
X12701658Y-13607146D01*
X12692134Y-13645241D01*
X12682610Y-13664288D01*
X12673086Y-13673812D01*
X12654038Y-13683336D01*
X12634991Y-13683336D01*
X12615943Y-13673812D01*
X12606419Y-13664288D01*
X12596896Y-13645241D01*
X12587372Y-13607146D01*
X12587372Y-13559527D01*
X12596896Y-13521431D01*
X12606419Y-13502384D01*
X12615943Y-13492860D01*
X12634991Y-13483336D01*
X12787372Y-13683336D02*
X12787372Y-13550003D01*
X12787372Y-13569050D02*
X12796896Y-13559527D01*
X12815943Y-13550003D01*
X12844515Y-13550003D01*
X12863562Y-13559527D01*
X12873086Y-13578574D01*
X12873086Y-13683336D01*
X12873086Y-13578574D02*
X12882610Y-13559527D01*
X12901658Y-13550003D01*
X12930229Y-13550003D01*
X12949277Y-13559527D01*
X12958800Y-13578574D01*
X12958800Y-13683336D01*
X13054038Y-13683336D02*
X13054038Y-13550003D01*
X13054038Y-13569050D02*
X13063562Y-13559527D01*
X13082610Y-13550003D01*
X13111181Y-13550003D01*
X13130229Y-13559527D01*
X13139753Y-13578574D01*
X13139753Y-13683336D01*
X13139753Y-13578574D02*
X13149277Y-13559527D01*
X13168324Y-13550003D01*
X13196896Y-13550003D01*
X13215943Y-13559527D01*
X13225467Y-13578574D01*
X13225467Y-13683336D01*
X13615943Y-13473812D02*
X13444515Y-13730955D01*
X13873086Y-13483336D02*
X13892134Y-13483336D01*
X13911181Y-13492860D01*
X13920705Y-13502384D01*
X13930229Y-13521431D01*
X13939753Y-13559527D01*
X13939753Y-13607146D01*
X13930229Y-13645241D01*
X13920705Y-13664288D01*
X13911181Y-13673812D01*
X13892134Y-13683336D01*
X13873086Y-13683336D01*
X13854038Y-13673812D01*
X13844515Y-13664288D01*
X13834991Y-13645241D01*
X13825467Y-13607146D01*
X13825467Y-13559527D01*
X13834991Y-13521431D01*
X13844515Y-13502384D01*
X13854038Y-13492860D01*
X13873086Y-13483336D01*
X14025467Y-13664288D02*
X14034991Y-13673812D01*
X14025467Y-13683336D01*
X14015943Y-13673812D01*
X14025467Y-13664288D01*
X14025467Y-13683336D01*
X14225467Y-13683336D02*
X14111181Y-13683336D01*
X14168324Y-13683336D02*
X14168324Y-13483336D01*
X14149277Y-13511908D01*
X14130229Y-13530955D01*
X14111181Y-13540479D01*
X14320705Y-13683336D02*
X14358800Y-13683336D01*
X14377848Y-13673812D01*
X14387372Y-13664288D01*
X14406419Y-13635717D01*
X14415943Y-13597622D01*
X14415943Y-13521431D01*
X14406419Y-13502384D01*
X14396896Y-13492860D01*
X14377848Y-13483336D01*
X14339753Y-13483336D01*
X14320705Y-13492860D01*
X14311181Y-13502384D01*
X14301658Y-13521431D01*
X14301658Y-13569050D01*
X14311181Y-13588098D01*
X14320705Y-13597622D01*
X14339753Y-13607146D01*
X14377848Y-13607146D01*
X14396896Y-13597622D01*
X14406419Y-13588098D01*
X14415943Y-13569050D01*
X14587372Y-13483336D02*
X14549277Y-13483336D01*
X14530229Y-13492860D01*
X14520705Y-13502384D01*
X14501658Y-13530955D01*
X14492134Y-13569050D01*
X14492134Y-13645241D01*
X14501658Y-13664288D01*
X14511181Y-13673812D01*
X14530229Y-13683336D01*
X14568324Y-13683336D01*
X14587372Y-13673812D01*
X14596896Y-13664288D01*
X14606419Y-13645241D01*
X14606419Y-13597622D01*
X14596896Y-13578574D01*
X14587372Y-13569050D01*
X14568324Y-13559527D01*
X14530229Y-13559527D01*
X14511181Y-13569050D01*
X14501658Y-13578574D01*
X14492134Y-13597622D01*
X14701658Y-13683336D02*
X14739753Y-13683336D01*
X14758800Y-13673812D01*
X14768324Y-13664288D01*
X14787372Y-13635717D01*
X14796896Y-13597622D01*
X14796896Y-13521431D01*
X14787372Y-13502384D01*
X14777848Y-13492860D01*
X14758800Y-13483336D01*
X14720705Y-13483336D01*
X14701658Y-13492860D01*
X14692134Y-13502384D01*
X14682610Y-13521431D01*
X14682610Y-13569050D01*
X14692134Y-13588098D01*
X14701658Y-13597622D01*
X14720705Y-13607146D01*
X14758800Y-13607146D01*
X14777848Y-13597622D01*
X14787372Y-13588098D01*
X14796896Y-13569050D01*
X14873086Y-13483336D02*
X14873086Y-13521431D01*
X14949277Y-13483336D02*
X14949277Y-13521431D01*
X15244515Y-13759527D02*
X15234991Y-13750003D01*
X15215943Y-13721431D01*
X15206419Y-13702384D01*
X15196896Y-13673812D01*
X15187372Y-13626193D01*
X15187372Y-13588098D01*
X15196896Y-13540479D01*
X15206419Y-13511908D01*
X15215943Y-13492860D01*
X15234991Y-13464288D01*
X15244515Y-13454765D01*
X15425467Y-13683336D02*
X15311181Y-13683336D01*
X15368324Y-13683336D02*
X15368324Y-13483336D01*
X15349277Y-13511908D01*
X15330229Y-13530955D01*
X15311181Y-13540479D01*
X15663562Y-13683336D02*
X15663562Y-13483336D01*
X15749277Y-13683336D02*
X15749277Y-13578574D01*
X15739753Y-13559527D01*
X15720705Y-13550003D01*
X15692134Y-13550003D01*
X15673086Y-13559527D01*
X15663562Y-13569050D01*
X15873086Y-13683336D02*
X15854038Y-13673812D01*
X15844515Y-13664288D01*
X15834991Y-13645241D01*
X15834991Y-13588098D01*
X15844515Y-13569050D01*
X15854038Y-13559527D01*
X15873086Y-13550003D01*
X15901658Y-13550003D01*
X15920705Y-13559527D01*
X15930229Y-13569050D01*
X15939753Y-13588098D01*
X15939753Y-13645241D01*
X15930229Y-13664288D01*
X15920705Y-13673812D01*
X15901658Y-13683336D01*
X15873086Y-13683336D01*
X16054038Y-13683336D02*
X16034991Y-13673812D01*
X16025467Y-13654765D01*
X16025467Y-13483336D01*
X16206419Y-13673812D02*
X16187372Y-13683336D01*
X16149277Y-13683336D01*
X16130229Y-13673812D01*
X16120705Y-13654765D01*
X16120705Y-13578574D01*
X16130229Y-13559527D01*
X16149277Y-13550003D01*
X16187372Y-13550003D01*
X16206419Y-13559527D01*
X16215943Y-13578574D01*
X16215943Y-13597622D01*
X16120705Y-13616669D01*
X16282610Y-13759527D02*
X16292134Y-13750003D01*
X16311181Y-13721431D01*
X16320705Y-13702384D01*
X16330229Y-13673812D01*
X16339753Y-13626193D01*
X16339753Y-13588098D01*
X16330229Y-13540479D01*
X16320705Y-13511908D01*
X16311181Y-13492860D01*
X16292134Y-13464288D01*
X16282610Y-13454765D01*
X16644515Y-13759527D02*
X16634991Y-13750003D01*
X16615943Y-13721431D01*
X16606419Y-13702384D01*
X16596896Y-13673812D01*
X16587372Y-13626193D01*
X16587372Y-13588098D01*
X16596896Y-13540479D01*
X16606419Y-13511908D01*
X16615943Y-13492860D01*
X16634991Y-13464288D01*
X16644515Y-13454765D01*
X16720705Y-13550003D02*
X16720705Y-13683336D01*
X16720705Y-13569050D02*
X16730229Y-13559527D01*
X16749277Y-13550003D01*
X16777848Y-13550003D01*
X16796896Y-13559527D01*
X16806420Y-13578574D01*
X16806420Y-13683336D01*
X16930229Y-13683336D02*
X16911181Y-13673812D01*
X16901658Y-13664288D01*
X16892134Y-13645241D01*
X16892134Y-13588098D01*
X16901658Y-13569050D01*
X16911181Y-13559527D01*
X16930229Y-13550003D01*
X16958800Y-13550003D01*
X16977848Y-13559527D01*
X16987372Y-13569050D01*
X16996896Y-13588098D01*
X16996896Y-13645241D01*
X16987372Y-13664288D01*
X16977848Y-13673812D01*
X16958800Y-13683336D01*
X16930229Y-13683336D01*
X17054039Y-13550003D02*
X17130229Y-13550003D01*
X17082610Y-13483336D02*
X17082610Y-13654765D01*
X17092134Y-13673812D01*
X17111181Y-13683336D01*
X17130229Y-13683336D01*
X17349277Y-13550003D02*
X17349277Y-13750003D01*
X17349277Y-13559527D02*
X17368324Y-13550003D01*
X17406420Y-13550003D01*
X17425467Y-13559527D01*
X17434991Y-13569050D01*
X17444515Y-13588098D01*
X17444515Y-13645241D01*
X17434991Y-13664288D01*
X17425467Y-13673812D01*
X17406420Y-13683336D01*
X17368324Y-13683336D01*
X17349277Y-13673812D01*
X17558800Y-13683336D02*
X17539753Y-13673812D01*
X17530229Y-13654765D01*
X17530229Y-13483336D01*
X17720705Y-13683336D02*
X17720705Y-13578574D01*
X17711181Y-13559527D01*
X17692134Y-13550003D01*
X17654039Y-13550003D01*
X17634991Y-13559527D01*
X17720705Y-13673812D02*
X17701658Y-13683336D01*
X17654039Y-13683336D01*
X17634991Y-13673812D01*
X17625467Y-13654765D01*
X17625467Y-13635717D01*
X17634991Y-13616669D01*
X17654039Y-13607146D01*
X17701658Y-13607146D01*
X17720705Y-13597622D01*
X17787372Y-13550003D02*
X17863562Y-13550003D01*
X17815943Y-13483336D02*
X17815943Y-13654765D01*
X17825467Y-13673812D01*
X17844515Y-13683336D01*
X17863562Y-13683336D01*
X18006420Y-13673812D02*
X17987372Y-13683336D01*
X17949277Y-13683336D01*
X17930229Y-13673812D01*
X17920705Y-13654765D01*
X17920705Y-13578574D01*
X17930229Y-13559527D01*
X17949277Y-13550003D01*
X17987372Y-13550003D01*
X18006420Y-13559527D01*
X18015943Y-13578574D01*
X18015943Y-13597622D01*
X17920705Y-13616669D01*
X18187372Y-13683336D02*
X18187372Y-13483336D01*
X18187372Y-13673812D02*
X18168324Y-13683336D01*
X18130229Y-13683336D01*
X18111181Y-13673812D01*
X18101658Y-13664288D01*
X18092134Y-13645241D01*
X18092134Y-13588098D01*
X18101658Y-13569050D01*
X18111181Y-13559527D01*
X18130229Y-13550003D01*
X18168324Y-13550003D01*
X18187372Y-13559527D01*
X18263562Y-13759527D02*
X18273086Y-13750003D01*
X18292134Y-13721431D01*
X18301658Y-13702384D01*
X18311181Y-13673812D01*
X18320705Y-13626193D01*
X18320705Y-13588098D01*
X18311181Y-13540479D01*
X18301658Y-13511908D01*
X18292134Y-13492860D01*
X18273086Y-13464288D01*
X18263562Y-13454765D01*
M02*
