M48
; DRILL file {KiCad (6.0.5)} date Wed Dec 14 22:57:56 2022
; FORMAT={-:-/ absolute / metric / decimal}
; #@! TF.CreationDate,2022-12-14T22:57:56+01:00
; #@! TF.GenerationSoftware,Kicad,Pcbnew,(6.0.5)
; #@! TF.FileFunction,Plated,1,2,PTH
FMAT,2
METRIC
; #@! TA.AperFunction,Plated,PTH,ViaDrill
T1C0.400
; #@! TA.AperFunction,Plated,PTH,ComponentDrill
T2C0.800
; #@! TA.AperFunction,Plated,PTH,ComponentDrill
T3C0.813
; #@! TA.AperFunction,Plated,PTH,ComponentDrill
T4C0.914
; #@! TA.AperFunction,Plated,PTH,ComponentDrill
T5C1.016
%
G90
G05
T1
X138.559Y-93.315
X149.612Y-119.337
X151.019Y-120.015
T2
X123.19Y-112.02
X123.19Y-114.935
X130.81Y-112.02
X130.81Y-114.935
X133.35Y-85.09
X143.51Y-85.09
T3
X123.101Y-93.345
X123.101Y-95.885
X123.101Y-98.425
X123.101Y-100.965
X123.101Y-103.505
X123.101Y-106.045
X123.101Y-108.585
X130.721Y-93.345
X130.721Y-95.885
X130.721Y-98.425
X130.721Y-100.965
X130.721Y-103.505
X130.721Y-106.045
X130.721Y-108.585
X135.801Y-97.754
X135.801Y-112.994
X138.341Y-97.754
X138.341Y-112.994
X140.881Y-97.754
X140.881Y-112.994
X143.421Y-97.754
X143.421Y-112.994
X145.961Y-97.754
X145.961Y-112.994
X148.501Y-97.754
X148.501Y-112.994
X151.041Y-97.754
X151.041Y-112.994
X153.581Y-97.754
X153.581Y-112.994
X154.851Y-83.149
X154.851Y-90.769
X156.121Y-97.754
X156.121Y-112.994
X157.391Y-83.149
X157.391Y-90.769
X158.661Y-97.754
X158.661Y-112.994
X159.931Y-83.149
X159.931Y-90.769
X161.201Y-97.754
X161.201Y-112.994
X162.471Y-83.149
X162.471Y-90.769
X163.741Y-97.754
X163.741Y-112.994
X165.011Y-83.149
X165.011Y-90.769
X166.281Y-97.754
X166.281Y-112.994
X167.551Y-83.149
X167.551Y-90.769
X168.821Y-97.754
X168.821Y-112.994
X170.091Y-83.149
X170.091Y-90.769
X171.361Y-97.754
X171.361Y-112.994
X172.631Y-83.149
X172.631Y-90.769
X173.901Y-97.754
X173.901Y-112.994
X175.171Y-83.149
X175.171Y-90.769
X177.711Y-83.149
X177.711Y-90.769
T4
X161.201Y-95.214
T5
X124.661Y-81.804
X124.661Y-88.304
X129.161Y-81.804
X129.161Y-88.304
T0
M30
